<?xml version="1.0" encoding="utf-8"?>
<!-- Generator: Adobe Illustrator 18.1.0, SVG Export Plug-In . SVG Version: 6.00 Build 0)  -->
<!DOCTYPE svg PUBLIC "-//W3C//DTD SVG 1.1//EN" "http://www.w3.org/Graphics/SVG/1.1/DTD/svg11.dtd">
<svg version="1.1" id="Layer_1" xmlns="http://www.w3.org/2000/svg" xmlns:xlink="http://www.w3.org/1999/xlink" x="0px" y="0px"
	 viewBox="0 0 450 300" enable-background="new 0 0 450 300" xml:space="preserve">
<g>
	<path fill="#FFFFFF" d="M180.5,110.4c-0.4-0.2-0.9-0.6-0.9-1.2c0-0.2,0-0.4,0-0.7c0,0,0-0.1,0-0.1c-0.3,0.1-0.7,0.3-1.2,0.4
		c-0.1,0.7-0.3,1.9-0.4,3c0.5-0.4,1.2-0.8,2.1-1.2C180.2,110.5,180.4,110.4,180.5,110.4z"/>
	<path fill="#FFFFFF" d="M154.8,158.8l0.6,0c-0.1-0.1-0.1-0.1-0.2-0.1C155.1,158.8,155,158.8,154.8,158.8z"/>
	<path fill="#FFFFFF" d="M278.2,126.5c-0.1-0.2-0.2-0.2-0.6-0.3c-0.6-0.1-1.6-0.3-2.7-1.7c-0.9-1-0.9-1-1.3-1c-0.1,0-0.3,0-0.4,0
		l0.1,0.1c0.4,0.3,0.6,0.6,0.8,0.9c0.4,0.5,0.8,1.2,2.1,1.8c1.7,0.9,2.2,1.4,2.4,2.3c0.1-0.1,0.1-0.2,0.2-0.2
		c0.2-0.2,0.4-0.4,0.4-0.6c0-0.1,0-0.2,0-0.2c0,0-0.1,0-0.1-0.1C278.9,127.3,278.6,127.1,278.2,126.5z"/>
	<path fill="#FFFFFF" d="M280.4,93.4c-0.8,0.7-1.6,1.3-2.3,1.6c-0.8,0.3-1,1.7-1,2.1c0,0,0,0.3,0.1,0.7c0.1-0.5,0.6-1.1,1.2-1.8
		c0.5-0.6,1.1-1.3,1.7-2.2C280.2,93.7,280.3,93.6,280.4,93.4z"/>
	<path fill="#FFFFFF" d="M254.8,114c0-0.2-0.1-0.7-0.2-1c-0.1-0.5-0.3-1.2-0.4-1.8c0-0.2,0-0.4-0.1-0.6c-0.1,0-0.2,0-0.3,0.1
		c-0.3,0-0.4,0.1-0.4,0.3c0,0.1-0.1,0.2-0.1,0.3c0.3,0.3,0.5,0.7,0.8,1.6c0.2,0.5,0.3,1,0.2,1.4C254.6,114.1,254.8,114,254.8,114z"
		/>
	<path fill="#FFFFFF" d="M302.5,125.1C302.5,125.1,302.5,125.1,302.5,125.1C302.6,125,302.6,125,302.5,125.1
		c-0.9-0.5-2.6-1.1-4.1-3.1c-0.6-0.8-1-1.3-1.2-1.6c-0.2,0.1-0.4,0.2-0.7,0.4c-1,0.5-1.3,0.6-1.4,0.7c-0.4,0.3-0.6,0.4-2.3,0.8
		c-1.9,0.5-2.1,0.7-2.3,0.9c-0.1,0.1-0.3,0.3-0.7,0.5c-0.5,0.3-0.6,0.5-0.8,1c-0.1,0.2-0.1,0.4-0.2,0.6c0,0,0,0.1,0,0.1
		c0,0,0,0,0.1-0.1c0.1-0.2,0.2-0.4,0.4-0.6c0.4-0.6,0.9-0.8,1.5-0.8c0.7,0,1.6,0.3,2.9,0.7c1.5,0.5,3.7,1.2,7.1,2
		c0.4,0.1,0.8,0.2,1.2,0.3c-0.1-0.2-0.1-0.3-0.1-0.5C301.7,126.1,301.8,125.6,302.5,125.1z"/>
	<path fill="#FFFFFF" d="M317.5,144.9c-0.1,0.1-0.2,0.3-0.2,0.4c-0.3,0.6-0.7,1.4-1.8,1.6c-1.3,0.3-1.8,0.3-2.4-0.8
		c-0.1-0.3-0.3-0.7-0.8-1.3c-0.8-1-0.8-1-0.9-1.2c-0.1-0.2-0.4-0.7-1-1.6c0,0,0,0,0,0c0,0.4,0,0.8,0.1,1.2l2,2.9l2.2,2.8
		c0.5-0.3,1.3-0.9,2.6-1.7c0.8-0.5,1.5-0.7,2.1-0.5c-0.2-0.2-0.4-0.4-0.6-0.6C318,145.2,317.6,145,317.5,144.9z"/>
	<path fill="#FFFFFF" d="M333.3,156.4l-0.7-1.5c0,0-0.6-1.3-1.5-3.3c-0.1-0.3-0.2-0.5-0.3-0.7c-0.4-0.1-1.1-0.3-2.7-1.5
		c-1-0.7-1.8-1-2.4-0.9c-0.6,0.1-0.8,0.6-0.8,0.6l-0.2,0.5l-0.5,0c-0.2,0-1.7-0.2-3.8-2c0.2,0.4,0.3,0.8,0.3,1l1.5,2.8
		c0,0.1,0.2,1.6-1.1,3.1c-0.3,0.3-0.4,0.5-0.5,0.6c-0.1,0.2-0.2,0.4-0.8,1.3c-1.3,1.8-2.4,2.4-2.7,2.5l-2.4,1.3
		c-1.1,0.3-3.1,1.1-3.6,1.7c-0.9,0.9-1.8,0.8-2.8,0.7c-0.4,0-0.9-0.1-1.5-0.1c-0.9,0-1.2,0-1.5-0.3c-0.3-0.3-0.2-0.7-0.2-0.8
		c0-0.2,0.1-0.6-0.6-1.6c-0.9-1.3-1.1-1.6-0.8-2c-0.4-0.6-0.6-1.2-0.6-3.2c0-2.2-1.8-2.6-1.8-2.6l-0.2,0l-3-3.2
		c-1.6-1.7-1.9-2.4-1.4-3.3c0.1-0.2,0.2-0.3,0-0.9c-0.1,0.2-0.1,0.4-0.1,0.6c-0.1,0.2-0.1,0.5-0.2,0.7c-0.2,0.6-0.1,0.6,0.4,1.5
		c0.3,0.4,0.6,1,1.1,1.9c0.7,1.4,0.7,1.4,0.7,1.6c0,0.1,0.1,0.4,1,2.2c1.2,2.7,1.4,4.2,1.3,5l2.3,2.5l2.9,2.3l0.1,0.2
		c0,0.1,0.8,1.9,3.2,2.4c1.3,0.3,1.6,0.2,1.7,0.2c0.1-0.1,0.4-0.3,0.8-0.4c0.8-0.2,1.2,0.2,1.4,0.4c0.5,0.5,0.6,1.4,0.3,2.4
		c-0.1,0.3-0.2,0.5-0.2,0.7c-0.1,0.4-0.2,0.6-0.6,2.4c-0.1,0.4-0.1,0.7-0.2,0.9c0.3,0.3,0.6,0.9,0.9,2.4c0.2,1,0,1.8-0.6,2.5
		c-1.3,1.5-4,1.6-5.2,1.6c-0.5,0.9-1.4,2.5-1.6,3.1c-0.2,0.6-0.7,1.1-1.3,1.7c-0.5,0.6-1.2,1.3-1.6,2.1c-0.7,1.3-1.2,1.5-2.1,1.6
		c-0.1,0-0.2,0-0.4,0c0.1,0.5,0.5,1.4,0.8,2.1c0.5,1.2,1,2.4,1,3.2v2.4c0,0.1,0,0.1,0,0.2c0,0.8,0.2,2.9-1.8,4.4
		c-0.5,0.4-0.8,0.5-0.8,0.6l0,0l-0.1,0c-0.1,0.1-0.3,0.2-0.4,0.3c-0.6,0.5-0.6,2.4-0.4,3.6l0.1,0.4l-0.3,0.3c0,0-0.8,0.9-1.1,4.1
		c-0.2,1.9-0.2,2.1-0.7,2.3c-0.2,0.1-0.5,0.1-0.8-0.1c-0.1,0.1-0.3,0.2-0.6,0.6c-0.5,0.6-0.7,1-0.7,1.2l1.9-0.3l-1.6,1.6
		c0,0-2.3,2.5-3.6,3.9l-0.6,0.7c-0.7,0.8-0.7,0.8-1.3,1.4c-1.1,1.1-3.7,1.1-5.7,0.8c-0.8-0.1-1.2,0-1.8,0.4
		c-0.7,0.3-1.6,0.8-3.2,0.8c-1.3,0-1.9,0-2.2-0.5c-0.3-0.4-0.1-0.9,0.1-1.2c0.1-0.3,0.3-0.6,0.3-1.1c0-1.4-0.4-2.4-0.5-2.6l-2.6-3.2
		l0.8-4.4c-0.2-0.4-1-1.7-3.1-4.6c-1.5-2.1-1.8-2.6-1.5-3.1c0.1-0.2,0.3-0.4,0.6-0.4c0-0.3-0.1-0.6-0.1-0.8c-0.2-1-0.3-1.7,0.2-3.8
		c0.3-1.2,0.4-1.5,0.5-1.8c0.1-0.3,0.2-0.5,0.5-2.3c0.3-1.9,0.8-2.5,1.1-3c0.2-0.4,0.4-0.5,0.4-1.2c0-0.5-0.3-0.8-1.1-1.6
		c-0.9-0.9-2.3-2.1-3.9-4.8c-1.2-2.1-1.5-2.9-1.2-3.5c0.3-0.5,0.9-0.5,1.2-0.5c0.5,0,0.8,0,1.1-0.5c0.4-0.9,0.3-0.9-0.1-1.3
		c-0.5-0.4-1.1-1-1.2-2.3c-0.1-0.7-0.1-0.7-0.9-0.7c-0.7,0-1.5,0-2.5-0.6c-0.6-0.4-1.2-0.3-2.2-0.1c-1.1,0.2-2.5,0.5-4.2-0.2
		c-1.2-0.5-1.4-0.2-1.9,0.3c-0.5,0.5-1.2,1.2-2.7,1.1c-2.5-0.2-4.6,0-4.6,0l-0.3,0l-3.4-2.6c-1.3-1-1.8-1.4-1.9-1.6
		c-0.3-0.2-0.4-0.3-0.5-0.4c-0.6,0.1-1.1-0.2-1.7-0.9c-1.4-1.6-1.7-3.1-2.2-6.3l0-0.3c-0.5-3.1,0.7-5.3,1.1-6v-4.4l0.1-0.2
		c0-0.1,0.9-1.8,2.7-2.5c0.8-0.3,2.1-2.4,2.8-3.8c0.1-0.1,1.2-2.2,1.9-3.1c0.3-0.5,0.2-1.1,0-2.2c0-0.2-0.1-0.4-0.1-0.7
		c-0.1-0.5,0.1-0.9,0.2-1.1c0.4-0.5,1.1-0.6,1.9-0.6c0.7,0,1.5-0.1,1.9-0.5c0.7-1,1.2-1.1,2.1-1c0.6,0,1.6,0.1,3.8-0.4
		c1-0.2,1.5-0.4,1.9-0.4c0.3-0.2,0.8-0.3,1.5-0.5c1.5-0.4,2-0.5,2.3-0.4c0.2-0.1,0.5-0.2,0.9-0.5c1.4-0.7,1.7-0.7,2.4-0.8
		c0.4,0,1-0.1,2.3-0.4c0.7-0.2,1.5-0.3,2,0.2c0.5,0.5,0.4,1.1,0.3,1.7c-0.2,0.9-0.1,1,0.3,1.1c1.9,0.6,1.9,1.9,1.8,2.6
		c0,0.5,0,0.6,0.2,0.6c1,0.3,1.3,0.6,1.8,1.1c0.4,0.3,0.9,0.8,2.1,1.5c0.2,0.1,0.3,0.2,0.4,0.3c0.2-0.5,0.7-1.1,1.7-1.5
		c-0.1-0.2-0.2-0.4-0.1-0.8c0.1-0.5,0.4-0.8,0.5-0.9c0.6-0.4,1.4,0,2.5,0.4c1,0.4,2.2,0.9,3.1,0.8c1.4-0.2,2.1,0,3.2,0.3
		c0.8,0.3,1.9,0.6,3.8,0.8c0.3,0,0.5,0.1,0.7,0.1c-0.2-0.7-0.2-1.7,0.6-3c0.3-0.4,1-1.5,1-1.7c-0.1-0.3-0.2-0.8,0-1.9
		c-0.1,0.1-0.2,0.1-0.3,0.2c-0.8,0.5-1.9,1.2-3.3,1.6c-1.8,0.6-3,0.6-3.8,0.2c-0.4-0.3-0.6-0.6-0.6-0.8c0,0-0.6-1.7-1.3-3.6
		c0,0,0-0.1,0-0.1l-1.6,2.1l-0.5-0.1c-0.1,0-1.6-0.4-3.8-1.5c-0.3-0.1-0.5-0.3-0.8-0.5c-0.4,1.1-1.8,1.9-3,2.5
		c-1,0.6-1.4,0.8-1.9,0.6c-0.4-0.1-0.5-0.5-0.6-0.7c-0.1-0.2-0.2-0.4-0.6-0.7c-0.7-0.6-1.1-0.8-0.9-1.4c0.1-0.4,0.4-0.5,0.8-0.6
		c0.3,0,0.5,0,0.6-0.3c0.1-0.1,0.1-0.2,0.1-0.3c-0.1-0.1-0.3-0.3-0.5-0.5c-0.5-0.4-1.2-1-2.1-2c-0.4-0.5-0.7-0.8-0.9-0.9
		c-0.3-0.1-0.7-0.4-1.1-0.9c-0.1-0.1-0.2-0.2-0.3-0.3c-0.3,0-0.6-0.1-0.7-0.2c-0.2-0.1-0.3-0.1-0.3-0.2c0,0,0,0-0.1,0.1
		c-0.5,0.1-1.5,0.4-4,0.7c-0.2,0-0.4,0-0.5,0.1c0.2,0.2,0.3,0.4,0.3,0.7l0,0.5l-0.6,0.2c-0.3,0.1-1.3,0.6-3.1,3.6
		c-0.9,1.5-1.1,1.8-1.5,1.8c-0.1,0.1-0.4,0.4-1,1c-0.9,1-1.6,1.5-2.2,1.4c-0.6-0.1-0.8-0.7-0.8-1c0,0,0-0.1,0-0.1
		c-1.2,0-3.1,0-5.1-1c-0.7-0.4-1.1-0.5-1.2-1c-0.1-0.4,0-0.7,0.2-1c0.2-0.4,0.6-1.2,0.6-3.2c0-0.8,0-1.4,0-1.8c0,0,0-0.1,0-0.1l0,0
		c0-0.2,0-0.4,0.1-0.5c0-0.6,0-0.9,0.1-1.1c0-0.2,0-0.2,0-0.3c0-0.2,0-0.4-0.1-0.9c0-0.8,0.4-1.1,0.6-1.2c1-0.5,3,0.7,4.6,1.8
		c0.4,0.1,2,0.4,3.3,0c0.8-0.3,1-0.4,1-0.4c0-0.1,0-0.3,0.1-0.5c0-0.2,0-0.4,0.1-0.7c0-0.1,0-0.2,0-0.2c0,0-0.3-0.1-0.5-0.2
		c-0.7-0.3-2-0.8-3.5-2.1c-1.5-1.3-1.8-1.5-1.4-2.1c0.3-0.6,0.9-0.3,1.4-0.2c0.6,0.2,1.9,0.8,3,0.6c1.2-0.2,1.2-0.2,1.4-0.6
		c0.1-0.3,0.3-0.7,0.7-1.2c-0.2-0.1-0.3-0.1-0.4-0.2c-0.3-0.1-0.4-0.2-0.5-0.2c-0.1,0-0.2,0-0.4,0.1c-0.5,0.1-1.3,0.3-3.1,0.2
		c-1.9-0.1-2.2-0.1-2.2-0.8c0,0,0-0.1,0-0.1c-0.4,0-0.7,0-1,0.1c-0.6,0.3-1.1,0.4-1.5,0.4c-0.5,0-0.9-0.2-1.1-0.4
		c-0.4-0.4-0.5-1-0.5-2c0.1-1.6,0-2.1,0-2.1l0-0.1v-1.9l2.7-1.8l2.5,1.6c0.7,0.4,1.1,0.7,1.2,1l0.3,0c0.1,0,0.3,0,0.3,0.1
		c0.1,0,0.1,0.1,0.3,0c-0.4-0.2-0.7-0.6-1.1-1.1c-0.8-1.1-0.9-1.3-0.7-1.7l0-0.1c0,0,0-0.1,0-0.1c-0.1-0.2-0.1-0.4-0.2-0.5
		c-0.1-0.2-0.3-0.4-0.4-0.7c-0.5-1.1-1.1-2.3,0.2-3.3l0.1-0.1l0.2,0c0,0,0.9-0.2,2-0.5c0.4-0.1,0.5-0.2,0.7-0.2c0.1,0,0.8,0,0.8,0.9
		c0,0.2,0,0.5,0.5,1c0.7,0.9,0.9,1.3,0.9,1.7c0,0,0,0.1,0.1,0.2c0.5,0.7,0.4,1.6,0.3,2.3c0,0.1,0,0.3,0,0.4c0,0.1,0.1,0.2,0.1,0.3
		c0.3,0.7,0.9,2,1.6,2.9c0.5,0.6,0.6,1.1,0.7,1.6c0.2-0.2,0.3-0.5,0.6-0.8c0.1-0.1,0.2-0.2,0.3-0.3c0-0.2,0-0.4,0.1-0.6
		c0.4-1,1.1-1,1.6-1.1c0.5-0.1,1.1-0.2,2.2-0.7c0,0,0,0,0,0c-0.3-0.3-0.7-0.8-0.8-1.7c-0.2-1.2-0.2-1.4,0-1.8
		c0.2-0.3,0.5-0.3,0.6-0.3c0,0,0.3-0.1,0.7-1c0.3-0.6,0.7-1.4,1.4-1.3c0.7,0.1,0.8,0.8,1,1.4c0.1,0.5,0.3,1.3,0.6,1.4
		c0.4,0.1,0.7,0.4,0.9,0.8c0.3,0.7,0,1.5-0.2,2.2c0.2-0.1,0.7-0.2,2-0.4c1.5-0.3,2-0.2,2.6,0c0.3,0.1,0.6,0.2,1.8,0
		c1.1-0.1,1.4-0.3,1.5-0.3c0,0,0-0.1,0-0.2c0.1-0.3,0.2-0.8,0.5-1.3c0.1-0.2,0.2-0.3,0.2-0.4c-0.2-0.4-0.4-0.9-0.5-2
		c-0.1-1.1-0.1-1.5,0.3-1.9c0.3-0.3,0.7-0.3,1.1-0.3c0.4,0,1.2,0,2.4-0.4c-0.4-0.1-0.9-0.2-1.5-0.3c-0.9-0.2-1.5-0.4-1.8-0.5
		l-0.3-0.1l-0.2-0.4c-0.1-0.1-0.2-0.1-0.4-0.3c-0.3-0.2-0.5-0.4-0.8-0.6c0.2,0.5,0.4,1.1,0.7,1.6c0.7,1.3,0.7,1.9-0.1,2.7
		c-0.3,0.3-0.6,0.6-1,1.5c-0.8,2.1-1,2.5-2.7,2.4c-0.3,0-0.6,0-1,0c-1.5,0-2.1-0.4-2.1-1.6c0-0.4,0-0.8-0.4-1.4
		c-0.7-1.2-0.9-1.5-0.6-2.3c0.1-0.2,0.2-0.6,0.3-1.3c-0.7,0.7-1.4,1.4-2.3,1.3c-0.2,0-0.4,0-0.7,0.2c-0.8,0.4-1.6,0.7-3.4-0.3
		c-0.4-0.2-1.6-0.8-1.5-1.9c0.1-0.7,0.6-1.2,1.1-1.4c0-0.6,0.2-1.5,0.9-2.1c0.3-0.2,0.5-0.4,0.7-0.5c0,0,0,0,0,0
		c-0.1-0.2-0.3-0.4-0.7-0.8c-0.4-0.4-0.9-1-0.8-1.6c0.1-0.6,0.7-0.9,1.3-1.1c0.7-0.3,1.8-0.7,2.6-2c1.1-1.6,1.4-1.8,2.1-2.1
		c0.3-0.1,0.8-0.3,2.1-1.8c0.3-0.3,0.5-0.5,0.7-0.7c0-0.3,0.2-0.7,0.4-0.9l0.1-0.1c0.7-1.1,0.9-1.2,2.3-1.6c0.7-0.2,1.8-0.5,3.6-1.1
		c2.9-1,2.9-1,3.3-0.8l0.3,0.2c0.3,0,0.9,0,2-0.2c2.7-0.4,3.5-0.3,4,0.8c0.2,0.4,0.4,1,2.7,1.7c1,0.3,1.7,0.5,2.2,0.7
		c0.1,0,0.1,0,0.2,0l0.1,0l0,0c0.2,0.1,0.4,0.2,0.5,0.2c1.2,0.5,1.8,0.9,1.8,1.8c0,0.2,0,0.4,0.4,0.9c0.2,0.3,0.9,1.1,0.5,1.9
		c-0.4,0.8-1.5,0.7-3,0.5l-0.4,0c-0.4,0-0.7-0.1-1-0.1c0,0,0,0.1,0,0.1c0.2,0.4,0.4,0.9,2.4,1.1c0.5,0.1,1,0.1,1.2,0.1
		c0.3-0.5,0.9-1.1,2.7-1.9c0.2-0.1,0.4-0.2,0.6-0.3c-0.6-0.5-0.8-1.2-0.7-2.1c0.2-1.5,0.2-1.8,0.8-2c0.5-0.2,0.8,0.2,0.9,0.3
		c0.2,0.2,0.3,0.3,1,0.1c0.7-0.3,1.3-0.3,1.7-0.1c0.6,0.4,0.8,1.1,0.8,1.6c0.2-0.1,0.4-0.1,0.6-0.1c0.3,0,0.8,0,3.1-1.8
		c1.7-1.3,2.3-1.7,2.9-1.4c0.5,0.2,0.7,0.7,0.7,0.9c0.1,0.3,0.1,0.3,0.4,0.3v0L313,84c-20.1-26.7-52-44-88-44
		c-35.4,0-66.9,16.7-87,42.7c0.1,0,0.1,0,0.2,0.1c0.3,0.1,0.6,0.2,1.8,0.2c1.6-0.1,2.2,0.4,2.6,0.9c0.2,0.2,0.2,0.2,0.4,0.2h0
		c0.3,0,0.8-0.1,1.5-0.4c0.8-0.3,1.2-0.4,1.5-0.4c0.9,0,1.1,0.8,1.1,1.1c0.1,0.4,0.2,1.2,3.5,1.5c0.5,0.1,0.9,0.1,1.2,0.1
		c0.3-0.1,0.6-0.1,0.8-0.1c1,0,1.5,0.2,2,0.5c0.3,0.2,0.5,0.3,1.1,0.3c0.3,0,0.6,0,1-0.1c0.3,0,0.6-0.1,0.8-0.1
		c0.2-0.3,0.7-0.5,1.1-0.6c0.7-0.3,1-0.4,1.4-0.4c0.3,0,0.5,0.1,0.7,0.1c0.5,0.2,1.7,0.5,5,0.8c0.1,0,0.3,0,0.4,0c0,0,0-0.1,0-0.1
		c-0.1-0.2-0.1-0.7,0.3-1.2c0.4-0.5,0.6-0.7,0.6-0.7c0,0,0.1-0.1,0.9-1.1c0.4-0.5,0.8-0.9,1.2-0.9c0.7,0,0.9,0.7,0.9,0.9
		c0.1,0.4,0.2,0.8,0.7,1c-0.1-0.3-0.1-0.6-0.1-0.9c0-0.2,0-0.2-0.2-0.4c-1.1-0.6-1.1-1.5-0.2-3c0.5-0.8,0.8-1.4,1.4-1.4
		c0.6,0,0.8,0.5,0.9,0.8c0.2,0.4,0.2,0.4,0.4,0.4c0.1,0,0.2,0,0.3,0c1.1-0.3,1.6,0.1,1.8,0.4c0.4,0.6,0.2,1.2,0,1.8
		c0,0.1-0.1,0.2-0.1,0.3c0.2,0.2,0.3,0.3,0.4,0.4c0.2,0.2,0.3,0.4,1.2,0.5c0.8,0.1,1.2,0.1,1.4,0.5c0.2,0.4,0.1,0.7,0,0.9
		c-0.1,0.1-0.1,0.3-0.2,0.6c0.1-0.2,0.2-0.3,0.4-0.5c0.9-1,0.9-1,1.1-1.1c0,0,0.1-0.1,1-0.9c0.4-0.4,0.7-0.6,1-0.7
		c-1.4-0.2-2.1-0.6-3.8-2c-0.8-0.6-1.1-1.3-0.9-1.9c0.4-1.2,2.6-1.5,3.5-1.6l2.4-0.4c0.5-0.1,0.9-0.1,1.1-0.2c0.2-0.2,0.6-0.3,2-0.8
		c1.4-0.4,1.5-0.4,1.7-0.4h0.4l0.3,0.4c0.2,0,0.4,0,0.8,0c2,0,2.4,0.8,2.6,1.7c0.1,0.6,0.3,1.1,1.4,1.8c0.9,0.5,1.4,0.9,1.6,1.2
		c0.2,0,0.4,0.1,0.8,0.1c1.9,0.3,1.9,1.7,1.8,2.5c0,0.8,0,1.2,0.6,1.6c1.2,0.8,1.3,0.8,1.4,1.3v0c0,0,0.2,0.3,1,1.1
		c1.1,1.1,1.3,1.3,1.2,1.8c-0.1,0.4-0.5,0.6-0.6,0.6c-0.1,0-0.2,0.2-0.2,1c0.1,1.3,0.1,1.6-0.2,1.9l-0.2,0.2l-0.4,0
		c-0.3,0-0.5-0.1-0.7-0.3c-0.3-0.2-1-0.6-2-0.4c0.3,0.3,0.5,0.7,0.6,1.3c0.1,0.5,0.2,0.8,0.2,1.1c0.2,1,0.2,1.1-0.3,2.5
		c-0.3,0.8-0.5,1.4-1.2,1.4c-0.3,0-0.5-0.1-0.8-0.2c-0.4-0.2-0.9-0.5-1.9-0.7c-1.7-0.3-2.2-0.5-2.4-1.4c0-0.2-0.1-0.3-0.5-0.7
		c-0.7-0.7-0.8-0.7-1.1-0.8c-0.3-0.1-0.7-0.2-1.6-0.6c-0.8-0.4-1.2-0.6-1.3-1.1c-0.1-0.5,0.2-0.8,0.5-1c0.3-0.3,1-0.9,1.4-2.6
		c0.3-1.3,0.7-2.4,1.5-2.4c0.1,0,0.2,0,0.2,0c0.1-0.2,0.1-0.4,0.1-0.5c0,0-0.1-0.1-0.2-0.1c-0.3-0.2-0.8-0.6-1.5-1.2
		c-0.7-0.6-1-0.8-1.2-1c-0.5-0.3-0.6-0.5-0.8-1.2c-0.1-0.2-0.1-0.5-0.3-0.8c-0.1-0.2-0.1-0.3-0.1-0.4c0,0-0.1,0.1-0.1,0.1
		c-0.5,0.3-1.4,0.8-2.7,0.8c-0.1,0-0.2,0-0.4,0c-0.3,0-0.5,0-0.8-0.1c0.3,0.2,0.4,0.6,0.5,0.9c0.2,0.5,0.4,1.2,1.4,1.7
		c1.2,0.6,1.5,0.8,1.5,1.4c0,0.5-0.5,0.8-0.8,0.9c-0.5,0.2-1.4,0.6-2.1,2c-0.3,0.5-0.5,0.9-0.7,1.2c0.3,0.1,0.7,0.4,1.1,0.8
		c0.7,0.7,0.7,1.3,0.5,1.7c-0.5,1.2-2.7,1.5-3.6,1.5l-2.6,0.4c-0.9,0.1-1.1,0.2-1.3,0.2h-0.6l-0.2-0.6c0-0.2-0.1-0.5,0.2-0.7
		c-0.3-0.4-0.4-0.7-0.5-1c-0.1,0.1-0.2,0.1-0.2,0.2c-0.5,0.4-1.3,1.1-2.5,1.7c-0.4,0.2-0.8,0.4-0.9,0.5c-0.1,0.5-0.4,1.1-1.7,2.5
		c-0.5,0.6-0.8,1-1,1.2c0.1,0.1,0.2,0.2,0.2,0.4c0.1,0.5-0.1,0.9-0.3,1.3c-0.1,0.3-0.3,0.5-0.4,0.6c-0.1,0.1-0.1,0.2-0.2,0.3
		c0,0.1,0.1,0.1,0.1,0.2c0.1,0.3,0.3,0.6,0.5,1.2c0.3,0,0.5,0,0.8,0.2l0.2,0.1c1,0.5,1.1,0.6,2.2,2.3l0.3,0.5
		c0.2,0.3,0.3,0.5,0.5,0.7c0.1,0.2,0.3,0.4,0.3,0.5c0.1,0,0.3-0.1,0.6-0.1c0.6-0.1,1.6-0.2,3.2-0.3c0.4,0,0.7,0,1,0
		c0.6,0,1.3,0,1.7,0.2c0.2-0.2,0.4-0.3,0.7-0.4c0.3-0.1,1.2-0.8,1.9-3.1c0.1-0.2,0.1-0.4,0.2-0.5c-0.3-0.4-0.4-1.1-0.4-1.4
		c-0.1-1.2-0.1-1.4,0.2-1.7l0.2-0.2l0.3,0c0.1-0.1,0.2-0.3,0.3-0.7c0.3-0.6,0.4-1,0.4-1.1c0.1-0.4,0.2-0.5,0.5-0.8
		c0.1-0.1,0.4-0.4,0.9-1c0.7-0.8,1.1-1.1,1.6-1.1c0.5,0,0.8,0.4,0.9,0.6c0.1,0.2,0.2,0.3,0.4,0.3c0.5,0.1,0.7,0.1,0.9,0.1
		c0.1,0,0.1,0,0.2,0l0,0l0.3-0.1c0.1,0,0.2,0,0.4,0c0.9,0,1.4,0.7,2.2,1.9c0.2,0.4,0.5,0.8,0.9,1.3c0.7,1,0.9,1.3,0.8,1.6
		c0.5,0.1,1.1,0.3,1.7,0.5c0.1,0.1,0.3,0.1,0.4,0.2c0-0.5,0.3-1.1,1.1-1.7c0.4-0.3,0.7-0.5,0.8-0.6l0.1-0.2l0-0.2l0.1,0l0.1-0.1
		l0.5,0c0,0,0.1,0,0.1,0c0.3-0.1,0.5-0.2,0.7-0.2h0.4l0.3,0.4c0.2,0.4,0.1,0.7,0,0.9c-0.1,0.3-0.3,0.7-0.2,1.4c0,0.1,0,0.2,0,0.4
		c0.2-0.1,0.5-0.1,0.9-0.1c0.3,0,0.9,0,1.2,0.5c0.3,0.4,0.2,0.9,0.1,1.3c-0.1,0.5-0.3,1.1-0.2,2.1c0,0.2,0.1,0.3,0.1,0.4
		c0.2-0.1,0.4-0.2,0.7-0.2c0.2,0,0.7,0.1,1,0.6c0.1,0.1,0.1,0.2,0.2,0.3c0,0,0.1,0.1,0.2,0.1c0.4,0.2,1.2,0.7,3.2,2
		c1.9,1.3,2.1,1.5,1.9,2.1c-0.1,0.6-0.7,0.6-0.9,0.7c-0.5,0.1-1.1,0.1-1.3,1.2c0,0.2-0.1,0.4-0.1,0.6c0.4,0,0.8,0.3,1,0.7
		c0.1,0.1,0.1,0.3,0.2,0.4c0.5,1,0.8,1.9-0.7,3.6c-0.4,0.4-0.6,0.6-0.7,0.7c-0.1,0.2-0.2,0.4-1,1.5c-0.8,1.1-1,1.3-1.4,1.3
		c-0.2,0-0.8-0.1-0.8-1c0-0.5-0.1-0.7-0.4-0.8c-0.5-0.2-0.7-0.2-0.7-0.2c-0.3,0.1-0.8,0.1-1.7-0.3c-0.4-0.2-1.1-0.5-1.1-1.1
		c-0.1-0.6,0.4-1,1-1.4c0.4-0.3,0.8-0.6,1.3-1c-0.3,0.1-0.7,0.2-1.1,0.2c-0.5,0.1-0.9,0.1-1.1,0.2c-0.2,0.2-0.7,0.4-2,0.8
		c-1.6,0.5-2.6,0.5-3.3,0.5l-0.5,0h0c0.1,0,0.2,0.1,0.4,0.2c0.1,0.1,0.5,0.3,1.2,0.5c1.2,0.4,1.6,0.5,1.5,1.2c0,0.3-0.2,0.6-0.7,0.7
		c0.3,0,0.6-0.1,1-0.2c0.9-0.3,1.2-0.3,1.8-0.2c0.2,0,0.4,0,0.7,0c0.7,0,1,0.5,1.1,0.7c0.1,0.3,0.5,1.1-1.9,3.4
		c-1.1,1.1-2.9,1.6-5,2.1L193,125c-0.9,0.2-1,0.3-1.2,0.3h-0.5l-0.2-0.5c0-0.1-0.1-0.3,0-0.4c-0.1,0-0.1,0.1-0.2,0.1
		c-0.3,0.2-0.8,0.4-1.4,0.6c0,0,0,0-0.1,0c0.1,0.5,0,1.2-0.4,2.3c-0.6,1.7-0.6,1.8-1.2,1.8h-0.3l-0.2-0.2c-0.1-0.1-0.1-0.2-0.2-0.3
		c-0.5,0.4-1.1,1.1-1.7,2.4c-0.5,1.1-1.2,1.6-2,1.6c-0.3,0-0.6-0.1-0.9-0.2c-0.2,0-0.3-0.1-0.4-0.1c0,0-0.1,0.1-0.1,0.1
		c0,0,0.1,0.1,0.1,0.1c0.2,0.3,0.4,0.7,0.6,1.3c0.2,0.7,0.3,1.2-0.4,1.7c-0.2,0.1-0.6,0.4-1.4,1.6c-0.9,1.4-1,1.6-1.7,1.7
		c-0.2,0-0.8,0.1-2.8,1.5c-0.3,0.2-0.7,0.5-0.9,0.6c0.1,0.1,0.2,0.2,0.3,0.3c0.4,0.5,0.5,1.2,0.3,2.1c0,0.3-0.1,0.5-0.1,0.7
		c0.7,0.2,1,1,1.2,1.3c0.4,0.9,0.6,1.7,0.3,2.3c-0.3,0.4-0.8,0.6-1.6,0.5c-0.2,0-0.5,0-0.7,0c-0.3,0.1-0.5,0.1-0.6,0.1
		c-0.5,0-0.7-0.3-0.8-0.4c0-0.1-0.2-0.3-0.9-0.6c-0.5-0.3-1.1-0.6-1.2-1.2c-0.1-0.5,0.1-1,0.4-1.3c0.2-0.3,0.4-0.7,0.4-1.2
		c0-0.1,0-0.1,0-0.2c-0.1,0-0.1,0-0.2,0c-0.2,0-0.4,0-0.6,0c-0.9,0-1.7-0.2-2.6-0.8c-0.2-0.1-0.4-0.2-0.6-0.3
		c-0.3,0.1-0.6,0.1-0.7,0.1c-0.2,0-0.4,0-0.7-0.1c-0.3,0-0.5-0.1-0.6-0.1c-0.3,0.4-0.9,1.1-2.6,2.1c-1.9,1-1.9,1-2.1,1h-0.5
		l-0.2-0.4c-0.1-0.1-0.1-0.2-0.1-0.3c-0.6,0-0.9,0.1-1,0.1h-0.5l-0.2-0.5c0,0,0,0,0,0c0,0-0.1,0-0.1,0c-0.1,0.5-0.5,1.3-1.4,2.4
		c-0.4,0.5-0.6,0.8-0.7,0.9c0.4,0.4,0.7,1,0.5,2.1c-0.2,1-0.2,1.2-0.2,1.2c0,0.1,0,0.4-0.2,2.1c0,0.2-0.1,0.5-0.1,0.6
		c0.6,0.1,1.2,0.5,1.8,1.3l0.3,0.3c0.1,0.2,0.3,0.3,0.4,0.5c0.3-0.3,0.8-0.6,1.8-0.9c0.4-0.1,0.7-0.2,0.9-0.3c0.2-0.4,0.5-1,1.8-2
		c0.2-0.1,0.3-0.3,0.5-0.4c0.1-0.3,0.2-0.5,0.4-0.6c0.4-0.5,0.6-0.7,1-0.7c0.5,0,0.7,0.4,0.9,0.6c0.2,0.3,0.5,0.9,1.5,1.6
		c0.9,0.6,1.5,1.1,1.5,1.8c0,0.6-0.6,1-1,1.3c-0.4,0.2-0.8,0.5-1.2,1c-0.2,0.2-0.3,0.3-0.4,0.5c0,0.2-0.2,0.5-0.3,0.8
		c-0.1,0.3-0.2,0.4-0.3,0.5c0,0.1,0,0.2-0.1,0.3c0.4-0.2,0.8-0.3,1.2-0.4c1.5-0.3,1.9-0.2,2.2,0c0.1,0,0.4,0,0.8-0.1
		c0.5-0.1,0.8-0.1,0.9-0.1h0.5l0.3,0.5c0.2,0.5-0.1,0.8-0.3,1.1c-0.3,0.3-0.8,0.9-0.9,1.9c-0.2,1.2-0.2,1.2-0.2,1.4
		c0,0.2-0.1,0.6-0.4,2.5c0,0.2-0.1,0.5-0.1,0.7c0.7,0.1,1.2,0.9,1.3,1.1c0.2,0.3,0.3,0.6,0.5,0.8c0.3-0.2,0.8-0.3,1.5-0.4
		c0.6-0.1,0.9-0.1,1-0.1h0.8l0,0.2c0.1,0,0.2,0,0.4,0c0.1,0,0.2,0,0.3,0c0.2-0.3,0.6-0.4,0.9-0.5c0.3-0.1,0.4-0.2,0.5-0.2
		c0.2-0.2,0.5-0.6,1.4-1.2c1.1-0.8,1.2-0.9,1.5-0.9l0.3,0c0.1,0,0.4-0.1,1.2-0.4c1.5-0.6,1.5-0.6,1.7-0.6h0.5c0.2,0,0.4-0.1,0.8-0.2
		c2.1-0.6,2.6,0.5,2.9,1.1c0.2,0.5,0.4,0.9,1.3,1.1c0.4,0.1,0.7,0.2,0.9,0.2c0.1-0.4,0.4-0.9,1.3-1.5c0.4-0.3,0.8-0.4,1.1-0.4
		c0.9,0,1.2,0.9,1.3,1.3c0.2,0.6,0.2,0.6,0.4,0.6c1.3,0,1.8,1,2.1,1.6c0.3,0.6,0.4,0.8,0.8,0.8c1.1,0.1,1.6,0.9,1.8,1.4
		c0.1,0.1,0.1,0.3,0.2,0.3c0,0,0.2-0.1,0.5-0.3c1.1-0.7,1.1-0.7,1.4-0.7h0.5l0.2,0.5c0.4,0.2,0.7,0.5,0.9,0.7
		c0.4,0.4,0.8,0.8,1.6,1.1c1.2,0.4,1.5,0.9,1.8,1.5c0.1,0.3,0.2,0.5,0.8,0.8c0.6,0.3,0.8,0.8,0.8,1.1c0.2,1.1-0.6,2.2-1.2,3
		c0,0,0,0,0,0c0.1,0.1,0.2,0.3,0.3,0.4c0.6,0.7,1.1,1.3,1.8,1.2c1-0.1,1.7,0.3,2.2,0.5c0.3,0.2,0.5,0.3,0.8,0.3
		c0.2,0,0.6-0.1,0.9-0.2c1.4-0.6,2.2-0.3,2.7,0c0.3,0.2,0.5,0.2,1,0.1c0.3-0.1,0.5-0.1,0.8-0.1c0.9,0,1.5,0.4,1.9,0.7
		c0.3,0.2,0.5,0.4,0.9,0.4c1.6,0,2.6,2.2,2.9,2.9c0.4,0.4,1,1.4,0.9,3.9c0,0.5-0.1,0.9-0.1,1.2l0,0l0,0c0,0.3-0.1,0.5-0.2,0.7
		c-0.2,0.6-0.5,0.9-0.7,1.2c-0.3,0.3-0.7,0.7-1.1,1.8c-0.6,1.4-0.6,1.5-1.2,1.5h0c0,0-0.1,0.1-0.1,0.1c-0.2,0.2-0.5,0.6-0.5,0.7
		c0,0.1,0.1,0.1,0.1,0.2c0.1,0.3,0.3,0.6,0.5,1.2c0.4,1.3,0,1.9-0.4,2.4c-0.3,0.4-0.5,0.8-0.5,1.9c0,1.5,0,1.8-0.6,2.1
		c0,0-0.3,0.2-0.8,1.4c-0.7,1.8-0.8,2-1.4,2h-0.3l-0.1-0.1c-0.1,0.1-0.3,0.3-0.6,0.6c-1.3,1.3-1.3,1.3-1.8,1.3c0,0-0.4,0.1-1.7,1
		c-0.3,0.2-0.6,0.4-0.9,0.6c0.1,0.5-0.3,1-0.7,1.5c-0.3,0.4-0.5,0.7-0.5,0.8c0.3,0.4,0.7,0.9,0.7,2.1c0,1.3,0,1.8-0.6,1.9
		c-0.1,0.1-0.2,0.4-0.4,0.9c-0.5,1.5-1.6,2.3-2.9,2.2c-0.3,0.8-1.1,1.7-2.3,1.7c-0.9,0-1.2,0.1-2.1,0.6c0.1,0.1,0.2,0.3,0.3,0.5
		c0.4,0.6,0.8,1.2,0.7,1.9c-0.1,0.5-0.2,0.8-0.6,1.1c-0.2,0.1-0.5,0.3-1.2,1.2c-0.7,0.8-1.4,1.2-2.1,1.2c-0.2,0-0.4,0-0.5-0.1
		l-0.4,1.1c-0.4,1-0.6,1.7-1.3,1.7c-0.2,0-0.4-0.1-0.6-0.2c-0.2-0.1-0.5-0.2-1-0.2c-0.1,0.1-0.1,0.2-0.3,0.3c-0.2,0.2-0.4,0.6-0.6,1
		c-0.1,0.3-0.3,0.6-0.4,0.9c0,0,0.2,0.4,0.3,0.6c0.2,0.4,0.4,0.8,0.6,1.4c0.2,0.7,0.4,1.2-0.4,1.7c-0.2,0.1-0.6,0.3-1.3,1.3
		c0.5,0.1,0.9,0.4,1.2,0.9c1,1.2,1.2,1.8,0.5,2.8c-0.1,0.2-0.3,0.4-0.4,0.8c-0.4,1.1-0.9,1.3-1.6,1.5c-0.3,0.1-0.7,0.2-1.2,0.7
		c-0.1,0.1-0.1,0.1-0.1,0.1c0,0,0,0,0.1,0c0.2,0.2,0.6,0.5,0.6,1c0,0.5-0.5,0.8-0.6,0.9c-0.1,0.1-0.1,0.1-0.1,0.1
		c0,0,0.1,0.1,0.2,0.3c0.2,0.5,0.5,1.3,0.3,2.5c-0.2,1-0.3,1.5-1,1.5c-0.5,0-0.7-0.4-0.8-0.6c-0.2-0.3-0.4-0.7-1.1-0.9
		c-1-0.3-1.2-0.4-1.5-0.8c-0.1-0.1-0.3-0.5-1.6-1.5c-1.2-1-1.7-1.4-1.6-2c0.1-0.5,0.5-0.7,0.8-0.8c0.3-0.1,0.3-0.1,0.3-0.4
		c0-0.9,0-1-0.3-1.5c-0.2-0.5-0.6-1.2-1.1-2.7c-0.6-1.7-0.7-1.9-0.4-2.3l0.2-0.3l0.4,0c0.2,0,0.4,0.1,0.6,0.2
		c0.3,0.2,0.8,0.3,1.3-0.1c-0.4-0.2-0.7-0.6-0.9-0.9c-0.3-0.5-0.5-0.8-0.8-1.1c-0.7-0.8-1.3-1.5-1.4-3.6c-0.1-1.8-0.1-2.1,0.3-2.7
		c0.1-0.1,0.3-0.4,0.6-1.2c0.1-0.3,0.2-0.5,0.2-0.6c-0.6-0.3-1.2-0.8-1.2-2.3c0-0.7,0-1.2,0-1.4c-0.1-0.1-0.1-0.3-0.2-0.4
		c-0.4-1.2-0.6-2.9-0.6-3l0-0.2l1.4-2.6c0.7-1.3,0.7-1.3,0.5-1.9c-0.1-0.4-0.3-1.1-0.4-2.4c-0.1-2.1-0.1-2.3,0.2-3.3
		c0.2-0.5,0.4-1.2,0.7-2.5c0.1-0.3,0.1-0.5,0.2-0.7c0-0.2,0-0.4,0-0.6c0.1-0.4-0.3-0.8-0.8-1.5c-0.4-0.6-0.9-1.2-1.2-2
		c-0.3,0-0.5-0.1-0.8-0.2c-1.1-0.6-1.6-1.4-2-2c-0.1-0.1-0.1-0.2-0.2-0.3c-0.2-0.3-0.4-0.4-1.1-0.8c-0.2-0.1-0.5-0.3-0.9-0.5
		c-1.5-0.9-1.9-1.5-1.9-3.1c0-0.7,0-1.1,0-1.5c0-0.4,0-0.8,0-1.5c0-0.4-0.2-0.6-0.5-0.9c-0.4-0.4-1-1-1-2.1c0-0.6,0-0.6-0.4-0.9
		c-0.4-0.2-1-0.6-1.8-1.4c-0.9-0.9-1.2-1.3-1.1-1.8c0.1-0.5,0.6-0.6,0.8-0.7c0,0,0.1,0,0.1,0c0.2-1.2,0.7-1.5,1.4-1.7
		c0,0,0.1,0,0.1,0c-0.2-0.2-0.4-0.4-0.6-0.6c-0.2-0.2-0.4-0.4-0.6-0.5c-1-1-1-1.3-0.9-2.5c0-0.2,0.1-0.3,0.1-0.6
		c0.2-1.6,1.3-1.7,2.1-1.8c0.4-0.1,0.8-0.1,1.2-0.3c0.7-0.2,0.7-0.6,0.8-1.5c0-0.3,0-0.6,0.1-0.8c0.2-0.8,0.2-1.1,0-2.6
		c-0.2,0-0.4,0.1-0.6,0.2c-0.5,0.2-1.2,0.4-1.9,0.4c-1.8,0-2.6-0.4-3.7-2.7c0-0.1-0.1-0.2-0.1-0.3c-0.4,0.1-0.8,0-1.4-0.3
		c-1.4-0.7-1.6-1.3-1.8-2.2c-0.1-0.4-0.1-0.9-0.5-1.5c-0.1-0.2-0.2-0.4-0.2-0.5c-0.2,0.1-0.5,0.1-0.8,0.1c-0.6,0-1.2-0.2-1.9-0.7
		c-0.4-0.3-0.7-0.5-0.9-0.6c-0.2-0.1-0.4-0.2-1-0.5c-0.9-0.5-0.9-0.5-1.1-0.6c-0.3-0.1-0.9-0.3-3-1.2c-2.4-1.1-2.4-1.1-2.3-1.7
		l0.1-0.6c-0.1,0-0.3,0.1-0.5,0.1c-0.6,0.2-1.3,0.4-2.2,0.5c-0.3,0-0.5,0.1-0.7,0.1c-1.4,0-1.9-0.8-2.2-1.4c-0.3-0.5-0.6-1-1.5-1.5
		c-1-0.5-1.6-1-1.6-1.6c0-0.6,0.4-0.9,0.7-1.1c0.2-0.1,0.4-0.3,0.4-0.4c0.2-0.6,0.1-0.9,0.1-1.4c0-0.3-0.1-0.7-0.1-1.1
		c0-0.4-0.1-0.5-0.8-1.2c-0.3-0.3-0.7-0.7-1.2-1.3c-0.8-0.9-1.2-1.4-1.5-2c0.1,0.2,0.2,0.4,0.3,0.6l0.1,0.3c0.5,1.1,0.5,1.1,0.7,1.6
		c0.2,0.3,0.5,0.8,1,1.8c0.8,1.5,0.9,1.6,0.6,2l-0.2,0.4l-0.4,0c-0.3,0-0.5-0.1-0.7-0.3c-0.2-0.2-0.6-0.5-0.9-0.4
		c-0.6,0.3-0.7,0.4-1,0.4h-0.4l-0.2-0.3c-0.2-0.3-0.1-0.7,0-0.9c0.1-0.2,0.1-0.4,0-0.7c-0.2-0.4-0.5-0.7-1-1.1
		c-0.5-0.4-1.2-1-2.1-2.1c-1-1.2-1.2-1.7-1.3-2.2c-0.1-0.2-0.1-0.4-0.4-0.8c-0.7-1-0.5-1.8-0.3-2.5c0.1-0.5,0.3-1.2,0.2-2.2
		c0-0.1,0-0.2,0-0.3c-0.5,0.1-1.1-0.1-1.7-0.5l-0.1-0.1c-1.3-0.8-1.7-1.1-1.4-2c0.1-0.1,0.1-0.3,0.1-0.8c0-0.3,0-0.5,0-0.7
		c0-0.2,0-0.4,0-0.4c0,0-0.2-0.2-0.3-0.3c-0.1-0.1-0.3-0.3-0.6-0.5c-0.3-0.3-0.5-0.5-0.7-0.7c-0.8-0.7-1.2-1.1-1.7-3l-0.1-0.5
		c-0.3-1.3-0.3-1.3-0.6-2.2l-0.3-0.9c-0.6-1.8,0.6-3,1.4-3.9c0.4-0.5,0.8-0.9,1-1.3c0.2-0.6,0.2-0.8,0.1-1.4
		c-0.1-0.6-0.2-1.4-0.1-2.9c0.1-0.9,0.1-1.5,0.3-1.8c-1.4-0.9-1.7-2.2-1.9-3.2c-0.1-0.3-0.1-0.5-0.2-0.7c-0.3-1-1.5-2.3-3.1-2.9
		c-1.8-0.7-2-2.7-2-3.8c-0.2-0.1-0.5-0.2-0.7-0.3c-6.2,13.7-9.6,28.9-9.6,44.9c0,60.8,49.2,110,110,110c59.7,0,108.3-47.5,110-106.8
		c-0.3,0.5-0.6,1.1-0.9,1.7L333.3,156.4z M166.5,77.9c-0.5,0.4-1.4,1-1.7,2.5c-0.1,0.4-0.2,0.7-0.2,1c0.5,0.4,0.7,1.3,0.8,1.7
		c0.2,1.3,0.3,1.6,0,2l-0.2,0.3l-0.4,0c-0.3,0-0.5-0.1-0.7-0.3c-0.3-0.2-0.8-0.6-1.5-0.6c-0.2,0-0.4,0-0.6,0.1
		c-1.1,0.2-1.3,0.3-1.5,0.3h-0.3l-0.2-0.2c-0.1,0-0.4,0-0.9,0c-1.3,0-1.4,0.2-1.5,0.3c-0.3,0.3-0.6,0.6-1.4,0.8l-1.3,0.8l-1-1
		c-0.2-0.2-0.5-0.4-1-0.7c-0.5-0.3-1.2-0.8-2.1-1.5c-1.1-0.9-1.4-1.1-1.3-2.1c0-0.2,0.1-0.5,0.1-1.1c-0.6,0.4-1.5,0.6-2.4,0.1
		c-0.7-0.4-1-0.4-1-0.4c-0.3,0-0.5-0.1-0.6-0.2l-0.2-0.2l0-0.4c0-0.2-0.1-0.7-0.2-1c-0.3-1-0.4-1.3-0.2-1.7c0.2-0.3,0.5-0.4,0.7-0.5
		c0.2-0.1,0.6-0.2,1.3-1.4c0.6-1,1-1.5,1.6-1.5c0.7,0,1,0.7,1.2,1.2c0.2,0.5,0.3,0.9,0.6,0.9c1.2,0.1,1.4,0.2,2.5,0.6
		c0.7,0.3,1.7,0.6,3.5,1.2l0.3,0.1c0.5,0.2,1,0.3,1.3,0.4c0-0.5,0.1-1.3,0.8-2.1c0.4-0.5,1.1-1.1,1.9-1.1c0.6,0,1.2,0.3,1.7,0.7
		c0.7,0.5,1.5,1,2.9,1.1c1.6,0.2,2,0.2,2.2,0.8C167.2,77.3,166.8,77.7,166.5,77.9z M182.4,155.3c-0.1,0.5-0.5,0.7-0.7,0.7
		c-0.3,0.1-0.8,0.3-1.2,1.3c-0.5,1.4-0.6,1.6-1.2,1.6c0,0,0,0,0,0c-0.5,0-0.7-0.3-0.8-0.9c0-0.3-0.1-0.9-0.4-1.1
		c-0.9-0.5-1.2-0.9-1.5-1.4c-0.2-0.3-0.3-0.6-0.7-1c-0.3-0.4-1.2-0.5-1.9-0.5c-1.2-0.1-2.5-0.2-3-1.3c-0.3-0.7-0.5-1-0.2-1.4
		l0.2-0.4l0.5,0c0.1,0,0.2,0,0.3,0c0.3,0.1,1,0.1,1.6-0.2c0.9-0.4,1.5-0.6,2-0.6c0.6,0,0.9,0.2,1.2,0.4c0.1,0.1,0.2,0.1,0.3,0.2
		l0.1,0.1l0.9,0.8c0.4,0.3,0.7,0.5,1.1,0.7c0.5,0.3,1.1,0.7,2.3,1.5C182.2,154.6,182.5,154.8,182.4,155.3z M232.7,87
		c-0.9,0.6-1.2,1-1.5,1.2c-0.5,0.5-0.8,0.7-2.4,1.4c-1.2,0.5-1.5,0.7-1.8,0.9c-0.5,0.3-0.9,0.6-2.6,1c-1.7,0.4-1.9,0.7-2.3,1.1
		c-0.3,0.3-0.6,0.6-1.2,1.1c-0.8,0.5-0.8,0.8-0.8,1.6c0,0.5,0,1.2-0.2,2c-0.4,1.6-1,1.9-2,2c-0.2,0-0.4,0.1-0.7,0.2
		c-0.5,0.2-0.7,0.3-0.9,0.3c-0.2,0-0.4-0.1-0.5-0.1c-0.1-0.1-0.4-0.1-1-0.1h-2.4c-0.6,0-1.4-0.1-1.9-0.7c-0.5-0.7-0.3-1.6,0-2.4
		c0.1-0.4,0.2-0.9,0.3-1.3c0.1-0.7,0.1-0.7-0.3-1c-0.4-0.4-1-0.9-1.7-2.3c-0.5-0.9-0.8-1.3-0.9-1.5c-0.1-0.2-0.4-0.6,0-1.1
		c0,0,0-0.1,0.1-0.5c0.1-0.6,0.2-0.9,0.2-1.2c0.1-0.4,0.1-0.5-0.2-2c-0.1-0.6-0.2-1.3,0.1-1.8c0.1-0.2,0.3-0.3,0.6-0.4
		c-0.3-1-0.3-1.5,0.5-2.1c0.3-0.2,0.6-0.4,1.2-1.1c0,0,0.1-0.1,0.1-0.1c-0.7-0.3-1.8-0.8-3.1-2.3c-1.3-1.5-1.6-2.1-1.4-2.8
		c0.2-0.6,0.8-0.7,1.1-0.8c0,0,0.1,0,0.1,0c-0.2-0.7-1.5-1.1-4.2-1.3l-3.7,1l-0.3-0.1c-0.4-0.2-0.8-0.6-0.8-1.2
		c0-0.7,0.5-1.3,1.4-1.9c-1-0.1-2.2-0.4-3.6-1c-1.9-0.8-2.6-1.1-2.6-1.9c0-0.7,0.6-0.9,1.3-1.1c0.6-0.2,1.5-0.5,1.9-1.1
		c0.8-1.2,1.3-1.4,2.1-1.4c0.3,0,0.7,0,1.6-0.8c1.2-1,1.2-1,1.6-1.2c0.3-0.1,0.8-0.3,3-1.7c0.2-0.1,0.3-0.2,0.5-0.3
		c-0.2-0.3-0.2-0.7,0-1.2c0.3-0.7,0.5-1.3,1.4-1.3c0.2,0,0.4,0,0.8,0.1c0.7,0.1,2,0.3,4.2,0.3c1,0,2.1,0,3.2-0.1l2.9-0.2
		c0.7-0.1,0.9-0.1,1-0.1c0.2-0.1,0.5-0.2,2.1-0.5c1-0.2,1.5-0.2,1.9-0.3c0.8-0.1,1.1-0.1,3.9-1.3c2.4-1,3.3-0.6,4.1-0.3
		c0.5,0.2,1,0.5,2.4,0.5c0.4,0,0.9,0,1.4-0.1c1.7-0.2,2.8-0.3,3.3-0.3c0.8,0,1,0.4,1,0.7c0,0.3,0,0.4-0.2,0.6
		c0.5,0.6,1.1,1.5,1.1,2.4c0,0.4-0.1,0.8-0.2,1.2c0,0,0,0,0,0c0.1-0.1,0.3-0.1,0.6-0.3c1.4-0.7,1.4-0.7,1.6-0.7c0.1,0,0.4-0.2,1-0.4
		c1-0.4,1.5-0.6,1.9-0.6c0.4,0,0.6,0.1,0.9,0.2c0.3,0.1,0.7,0.3,1.8,0.3c1.1,0,1.9,0,2.2,0.6c0.3,0.5,0.1,1-0.1,1.3
		c-0.2,0.3-0.3,0.7-0.2,1.2c0.1,0.5,0.2,1.1-0.2,1.5c-0.4,0.5-0.9,0.5-1.5,0.5c-0.6,0-1.4,0.1-2.3,0.5c-1.1,0.5-1.2,0.6-1.3,0.8
		c-0.3,0.4-0.6,0.8-2.1,1.6c-0.2,0.1-0.5,0.3-0.9,0.5c0,0.4-0.4,0.7-0.5,0.9c0,0,0,0,0,0c0.1,0.1,0.1,0.2,0.2,0.2
		c0.5,0.6,1.4,1.5,1.5,3.5c0.1,2,0.1,2.6-0.8,3.1c-0.2,0.1-0.4,0.3-0.7,0.7c-0.5,0.7-1,1.1-1.5,1.3c0.1,0.6,0,1.5-0.4,2.5
		c-0.3,0.7-0.6,1.1-0.9,1.3c0,0.1,0.1,0.1,0.1,0.2c0.5,0.7,1.1,1.5,0.8,2.3c-0.3,0.8-1.2,1-2.2,1.2c-1.2,0.2-1.5,0.4-2.5,1.2
		C233.8,86.2,233.4,86.6,232.7,87z M235.7,92.4c-0.1-0.5,0.1-0.9,0.3-1.1c0.2-0.3,0.4-0.6,0.1-1.4c-0.4-1-0.5-1.5-0.2-1.9l0.2-0.3
		l0.5,0c0.4,0,0.8,0.3,1.3,0.7c0.2,0.2,0.6,0.5,0.8,0.6l0.2,0c0,0,0.4,0.1,1.4,0.1c0.7,0,1.6-0.1,2.5-0.2c1-0.1,1.4-0.2,1.6-0.2h0.6
		l0.3,0.8c0.7,0.2,0.9,0.3,1.1,0.6l0.1,0.3l-0.1,0.3c0,0.1,0.1,0.3,0.4,0.6c0.7,0.8,1,1.1,0.7,1.6l-0.2,0.4l-0.5,0
		c-0.1,0-0.2,0-0.3,0c-0.3-0.1-0.8-0.1-1.1,0.2c-0.7,0.6-1.1,0.7-1.4,0.8c-0.2,0.1-0.3,0.1-0.7,0.7c-0.4,0.6-0.6,1-1.2,1
		c-0.4,0-0.6-0.2-0.9-0.5c-0.4-0.4-1.1-1-3-1.7C236.4,93.3,235.9,93,235.7,92.4z"/>
</g>
<path fill="#FF003D" d="M156.4,101.8c-3.5-3.5-9.2-3.5-12.7,0s-3.5,9.2,0,12.7l6.4,6.4l6.4-6.4C159.9,111,159.9,105.3,156.4,101.8z
	 M147.9,106c1.2-1.2,3.1-1.2,4.2,0s1.2,3.1,0,4.2s-3.1,1.2-4.2,0S146.7,107.2,147.9,106z"/>
<path fill="#FF003D" d="M160.4,129.8c-3.5-3.5-9.2-3.5-12.7,0c-3.5,3.5-3.5,9.2,0,12.7l6.4,6.4l6.4-6.4
	C163.9,139,163.9,133.3,160.4,129.8z M151.9,134c1.2-1.2,3.1-1.2,4.2,0s1.2,3.1,0,4.2s-3.1,1.2-4.2,0S150.7,135.2,151.9,134z"/>
<path fill="#FF003D" d="M256.4,141.8c-3.5-3.5-9.2-3.5-12.7,0s-3.5,9.2,0,12.7l6.4,6.4l6.4-6.4C259.9,151,259.9,145.3,256.4,141.8z
	 M247.9,146c1.2-1.2,3.1-1.2,4.2,0s1.2,3.1,0,4.2s-3.1,1.2-4.2,0S246.7,147.2,247.9,146z"/>
<path fill="#FF003D" d="M316.4,70.8c-3.5-3.5-9.2-3.5-12.7,0s-3.5,9.2,0,12.7l6.4,6.4l6.4-6.4C319.9,80,319.9,74.3,316.4,70.8z
	 M307.9,75c1.2-1.2,3.1-1.2,4.2,0s1.2,3.1,0,4.2s-3.1,1.2-4.2,0S306.7,76.2,307.9,75z"/>
<path fill="#FF003D" d="M236.4,60.8c-3.5-3.5-9.2-3.5-12.7,0s-3.5,9.2,0,12.7l6.4,6.4l6.4-6.4C239.9,70,239.9,64.3,236.4,60.8z
	 M227.9,65c1.2-1.2,3.1-1.2,4.2,0s1.2,3.1,0,4.2s-3.1,1.2-4.2,0S226.7,66.2,227.9,65z"/>
<path fill="#FF003D" d="M296.4,177.8c-3.5-3.5-9.2-3.5-12.7,0s-3.5,9.2,0,12.7l6.4,6.4l6.4-6.4C299.9,187,299.9,181.3,296.4,177.8z
	 M287.9,182c1.2-1.2,3.1-1.2,4.2,0s1.2,3.1,0,4.2s-3.1,1.2-4.2,0S286.7,183.2,287.9,182z"/>
<path fill="#FF003D" d="M266.4,94.8c-3.5-3.5-9.2-3.5-12.7,0s-3.5,9.2,0,12.7l6.4,6.4l6.4-6.4C269.9,104,269.9,98.3,266.4,94.8z
	 M257.9,99c1.2-1.2,3.1-1.2,4.2,0s1.2,3.1,0,4.2s-3.1,1.2-4.2,0S256.7,100.2,257.9,99z"/>
<path fill="#FF003D" d="M215.4,177.8c-3.5-3.5-9.2-3.5-12.7,0s-3.5,9.2,0,12.7l6.4,6.4l6.4-6.4C218.9,187,218.9,181.3,215.4,177.8z
	 M206.9,182c1.2-1.2,3.1-1.2,4.2,0s1.2,3.1,0,4.2s-3.1,1.2-4.2,0S205.7,183.2,206.9,182z"/>
<path fill="#FF003D" d="M195.4,207.8c-3.5-3.5-9.2-3.5-12.7,0s-3.5,9.2,0,12.7l6.4,6.4l6.4-6.4C198.9,217,198.9,211.3,195.4,207.8z
	 M186.9,212c1.2-1.2,3.1-1.2,4.2,0s1.2,3.1,0,4.2s-3.1,1.2-4.2,0S185.7,213.2,186.9,212z"/>
</svg>
