<?xml version="1.0" encoding="utf-8"?>
<!-- Generator: Adobe Illustrator 19.2.0, SVG Export Plug-In . SVG Version: 6.00 Build 0)  -->
<svg version="1.1" id="Layer_1" xmlns="http://www.w3.org/2000/svg" xmlns:xlink="http://www.w3.org/1999/xlink" x="0px" y="0px"
	 viewBox="0 0 425 300" enable-background="new 0 0 425 300" xml:space="preserve">
<path fill="#FF003D" d="M196.9,163.6c-2-18-15.4-33.2-33-37.6c-4.5-1.1-8.9-1.5-13.1-1.3c-6.7,0.4-12.3-5.3-12.3-12V53.3l0,0
	C138.5,23.9,114.7,0,85.2,0c-5.1,0-10,0.8-14.7,2.1c21.8,6.2,37.9,26,38.6,49.6l0,0v0.9c0,0.3,0,0.5,0,0.8l0,0l0,0
	c0,0.3,0,0.5,0,0.7v44.8l0,0v68.4c0,24.4,19.3,45.2,43.7,45.4C179,212.9,199.9,190.3,196.9,163.6z"/>
<path fill="#FFFFFF" d="M414.4,236.2c-7.6-6.1-19.2-10.6-34.8-13.8c-10.2-2-16.9-4.2-20.2-6.7c-3.3-2.5-5-5.7-5-9.6
	c0-4.1,1.6-7.4,4.7-10.1c3.1-2.7,7.5-4,13.1-4c6.2,0,11,1.6,14.2,4.8c3.2,3.2,4.9,7.3,4.9,12.4h33l0.2-0.7
	c0.4-11.6-4.2-21.1-13.8-28.7c-9.6-7.6-22.4-11.4-38.6-11.4c-15.4,0-27.7,3.8-36.9,11.4c-5.1,4.3-8.8,9-11,14.3
	c-2.2-5.4-6-10.2-11.2-14.4c-9.6-7.6-22.4-11.4-38.6-11.4c-15.4,0-27.7,3.8-36.9,11.4c-6.8,5.7-11.1,12.2-12.9,19.8
	c-2.1-8-6.3-14.5-12.5-19.6c-9.5-7.7-21.8-11.5-36.9-11.5c-16,0-28.9,3.9-38.8,11.7c-7.2,5.7-11.6,12.1-13.2,19.3
	c-8.9-14.3-23.1-25.1-40-29.4c-6.8-1.7-13.3-2.3-19.7-1.9c-10.1,0.6-18.5-7.9-18.5-18v-20.7V81.1c0-0.4,0-0.8,0-1.1s0-0.8,0-1.1
	v-1.3h0.1c1.3-35.5,25.4-65.1,58.1-74.5c-7-2-14.4-3.1-22-3.1C37,0,1.2,35.8,1.2,80v151.9c0,36.6,28.9,67.8,65.5,68.1
	c21,0.2,39.7-9.6,51.9-24.8c1.7,5.7,4.7,10.5,8.9,14.5c7.2,6.8,17.4,10.3,30.7,10.3c8,0,14.8-2,20.6-6.1c5.7-4.1,10.4-9.2,13.9-15.4
	c0.4,3.4,1,6.6,1.9,9.8c0.9,3.2,2,6.3,3.2,9.1H232c-2-5.2-3.4-10.4-4.3-15.6c-0.1-0.8-0.2-1.8-0.3-2.6c2,2.7,4.4,5.3,7.2,7.8
	c9.8,8.6,23.1,12.8,40,12.8c16,0,28.9-3.6,38.7-10.8c4.6-3.4,8.1-7.3,10.5-11.6c2.2,3.4,5,6.6,8.5,9.6c9.8,8.6,23.1,12.8,40,12.8
	c16,0,28.9-3.6,38.7-10.8c9.8-7.2,14.6-16.5,14.6-27.9C425.7,250.6,422,242.2,414.4,236.2z M67.5,261.7c-16.6,0-30-13.4-30-30
	s13.4-30,30-30s30,13.4,30,30S84,261.7,67.5,261.7z M182.6,270.2c-4.7,3-10,4.5-16.1,4.5c-4.8,0-8.7-1.3-11.5-3.9
	c-2.8-2.6-4.2-6-4.2-10.2c0-5.2,1.9-9.6,5.6-13.2c3.7-3.6,9.3-5.4,16.5-5.4H192v17.9h0.1C190.5,263.8,187.3,267.2,182.6,270.2z
	 M192.1,222.7H173c-17.1,0-30.4,3-39.9,9c-0.1-1.7-0.1-3.4-0.3-5.2c-0.7-6.3-2.3-12.3-4.7-18l27.7,0.1c0-4.8,1.5-8.5,4.5-11.2
	s7.3-4,12.8-4c6.2,0,11,1.7,14.2,5c3.2,3.4,4.8,8.1,4.8,14.2V222.7z M289.9,272.8c-3.3,2.5-8.1,3.8-14.5,3.8
	c-6.8,0-12.3-1.5-16.5-4.6c-4.2-3-6.4-8-6.7-14.8h-25.8v-36.4c1.9,4.4,4.8,8.1,8.8,11.3c7.6,6,18.9,10.5,33.9,13.5
	c9.8,2.1,16.6,4.5,20.2,7.3c3.6,2.7,5.4,6,5.4,9.7C294.8,266.9,293.2,270.3,289.9,272.8z M387.6,272.8c-3.3,2.5-8.1,3.8-14.5,3.8
	c-6.8,0-12.3-1.5-16.5-4.6c-4.2-3.1-6.4-8-6.7-14.8h-22.1c-0.8-8.7-4.6-15.8-11.2-21c-7.6-6.1-19.2-10.6-34.8-13.8
	c-10.2-2-16.9-4.2-20.2-6.7c-3.3-2.5-5-5.7-5-9.6c0-4.1,1.6-7.4,4.7-10.1c3.1-2.7,7.5-4,13.1-4c6.2,0,11,1.6,14.2,4.8
	s4.9,7.3,4.9,12.4h28.1c0.4,9.6,4.1,17.2,11.4,22.9c7.6,6,18.9,10.5,33.9,13.5c9.8,2.1,16.6,4.5,20.2,7.3c3.6,2.7,5.4,6,5.4,9.7
	C392.6,266.9,390.9,270.3,387.6,272.8z"/>
</svg>
