<?xml version="1.0" encoding="utf-8"?>
<!-- Generator: Adobe Illustrator 18.1.0, SVG Export Plug-In . SVG Version: 6.00 Build 0)  -->
<!DOCTYPE svg PUBLIC "-//W3C//DTD SVG 1.1//EN" "http://www.w3.org/Graphics/SVG/1.1/DTD/svg11.dtd">
<svg version="1.1" id="Layer_1" xmlns="http://www.w3.org/2000/svg" xmlns:xlink="http://www.w3.org/1999/xlink" x="0px" y="0px"
	 viewBox="0 0 450 300" enable-background="new 0 0 450 300" xml:space="preserve">
<g>
	<path fill="#FF003D" d="M325.5,108.6H325l0.4-0.4l-58.6-58.6l-0.4,0.4v-0.5h-82.8V50l-0.4-0.4l-58.6,58.6l0.4,0.4h-0.5v82.8h0.5
		l-0.4,0.4l58.6,58.6l0.4-0.4v0.5h82.8V250l0.4,0.4l58.6-58.6l-0.4-0.4h0.5V108.6z M295.1,120.4l-28.1,11.7v-23h23.4L295.1,120.4z
		 M291.4,109.1h31.1l-26.5,11L291.4,109.1z M225,148.7l-16.4-39.6h32.8L225,148.7z M242.3,109.5l23.2,23.2l-39.6,16.4L242.3,109.5z
		 M224.1,149.1l-39.6-16.4l23.2-23.2L224.1,149.1z M223.7,150l-39.6,16.4v-32.8L223.7,150z M224.1,150.9l-16.4,39.6l-23.2-23.2
		L224.1,150.9z M225,151.3l16.4,39.6h-32.8L225,151.3z M225.9,150.9l39.6,16.4l-23.2,23.2L225.9,150.9z M226.3,150l39.6-16.4v32.8
		L226.3,150z M265.9,131.6l-22.6-22.6h22.6V131.6z M242.9,108.1l11.7-28.1l11.4,4.7v23.4H242.9z M254.9,79l11-26.5v31.1L254.9,79z
		 M254,78.6l-11-4.5l22-22L254,78.6z M253.6,79.6L242,107.7l-16.3-16.3l16.6-16.6L253.6,79.6z M241,108.1H209l16-16L241,108.1z
		 M208,107.7l-11.7-28.1l11.4-4.7l16.6,16.6L208,107.7z M196,78.6l-11-26.5l22,22L196,78.6z M195.1,79l-11,4.5V52.5L195.1,79z
		 M195.4,79.9l11.7,28.1h-23V84.6L195.4,79.9z M206.6,109.1l-22.6,22.6v-22.6H206.6z M183.1,132.1l-28.1-11.7l4.7-11.4h23.4V132.1z
		 M154,120.1l-26.5-11h31.1L154,120.1z M153.6,121l-4.5,11l-22-22L153.6,121z M154.6,121.4l28.1,11.7l-16.3,16.3l-16.6-16.6
		L154.6,121.4z M183.1,134V166l-16-16L183.1,134z M182.7,167l-28.1,11.7l-4.7-11.4l16.6-16.6L182.7,167z M153.6,179l-26.5,11l22-22
		L153.6,179z M154,179.9l4.5,11h-31.1L154,179.9z M154.9,179.6l28.1-11.7v23h-23.4L154.9,179.6z M184.1,168.4l22.6,22.6h-22.6V168.4
		z M207.1,191.9l-11.7,28.1l-11.4-4.7v-23.4H207.1z M195.1,221l-11,26.5v-31.1L195.1,221z M196,221.4l11,4.5l-22,22L196,221.4z
		 M196.4,220.4l11.7-28.1l16.3,16.3l-16.6,16.6L196.4,220.4z M209,191.9H241l-16,16L209,191.9z M242,192.3l11.7,28.1l-11.4,4.7
		l-16.6-16.6L242,192.3z M254,221.4l11,26.5l-22-22L254,221.4z M254.9,221l11-4.5v31.1L254.9,221z M254.6,220.1l-11.7-28.1h23v23.4
		L254.6,220.1z M243.4,190.9l22.6-22.6v22.6H243.4z M266.9,167.9l28.1,11.7l-4.7,11.4h-23.4V167.9z M296,179.9l26.5,11h-31.1
		L296,179.9z M296.4,179l4.5-11l22,22L296.4,179z M295.4,178.6L267.3,167l16.3-16.3l16.6,16.6L295.4,178.6z M266.9,166V134l16,16
		L266.9,166z M267.3,133l28.1-11.7l4.7,11.4l-16.6,16.6L267.3,133z M296.4,121l26.5-11l-22,22L296.4,121z M291,108.1l-6.5-15.7
		l38,15.7H291z M289.9,108.1h-23v-23l16.3,6.7L289.9,108.1z M266.9,84V52.5l15.7,38L266.9,84z M242,73.7l-15.7-6.5l38-15.7L242,73.7
		z M241.3,74.4L225,90.7l-16.3-16.3l16.3-6.7L241.3,74.4z M208,73.7l-22.3-22.3l38,15.7L208,73.7z M183.1,84l-15.7,6.5l15.7-38V84z
		 M183.1,85.1v23h-23l6.7-16.3L183.1,85.1z M159,108.1h-31.5l38-15.7L159,108.1z M148.7,133l-6.5,15.7l-15.7-38L148.7,133z
		 M149.4,133.7l16.3,16.3l-16.3,16.3l-6.7-16.3L149.4,133.7z M148.7,167l-22.3,22.3l15.7-38L148.7,167z M159,191.9l6.5,15.7
		l-38-15.7H159z M160.1,191.9h23v23l-16.3-6.7L160.1,191.9z M183.1,216v31.5l-15.7-38L183.1,216z M208,226.3l15.7,6.5l-38,15.7
		L208,226.3z M208.7,225.6l16.3-16.3l16.3,16.3l-16.3,6.7L208.7,225.6z M242,226.3l22.3,22.3l-38-15.7L242,226.3z M266.9,216
		l15.7-6.5l-15.7,38V216z M266.9,214.9v-23h23l-6.7,16.3L266.9,214.9z M291,191.9h31.5l-38,15.7L291,191.9z M301.3,167l6.5-15.7
		l15.7,38L301.3,167z M300.6,166.3L284.3,150l16.3-16.3l6.7,16.3L300.6,166.3z M301.3,133l22.3-22.3l-15.7,38L301.3,133z M284,91
		l-16.1-38.9l55,55L284,91z M225,66.6l-38.9-16.1h77.8L225,66.6z M166,91l-38.9,16.1l55-55L166,91z M141.6,150l-16.1,38.9v-77.8
		L141.6,150z M166,209l16.1,38.9l-55-55L166,209z M225,233.4l38.9,16.1h-77.8L225,233.4z M284,209l38.9-16.1l-55,55L284,209z
		 M308.4,150l16.1-38.9v77.8L308.4,150z"/>
	<g>
		<g>
			<path fill="#FFFFFF" d="M234.9,150c-0.6,0.3-1.2,0.6-1.8,0.8c-2.3,0.9-4.3,1.7-3.6,4.8c0.2,0.9,0.5,1.8,0.8,2.8
				c1.1,3.7,2.4,8.2,1.6,13.6c1.6-0.4,3-1,4.2-1.8c-0.6-0.2-1.2-0.5-1.6-0.9c-0.9-0.9-1.3-2.3-1-3.9c0.2-1.4,0.9-2.8,1.8-3.7
				c0.4-0.4,0.7-0.6,1.1-0.7c2.1-4.7,1.3-6.7,0.7-8.5c-0.2-0.5-0.3-0.9-0.4-1.3c-0.2-0.8-0.3-1.7,0.3-2.1c0.2-0.1,0.3-0.1,0.5-0.1
				c-0.1-0.3-0.3-0.5-0.4-0.8C236.4,148.8,235.8,149.5,234.9,150z"/>
			<path fill="#FFFFFF" d="M236.6,162c-0.1,0-0.3,0.1-0.7,0.4c-0.7,0.7-1.3,1.9-1.5,3.1c-0.2,1.2,0.1,2.3,0.7,3
				c0.6,0.6,1.6,0.8,2.2,0.8c1.4,0,2.9-0.6,3.9-1.5c0.3-0.3,0.4-0.5,0.4-0.7c0-0.3-0.6-0.7-1.1-1.1c-0.5-0.4-1.1-0.8-1.6-1.3
				c-0.5-0.5-0.9-1.1-1.3-1.6C237.3,162.6,236.9,162,236.6,162z"/>
			<path fill="#FFFFFF" d="M238.6,162.6c0.3,0.5,0.7,1,1.2,1.4c0.5,0.5,1,0.8,1.4,1.2c0.1,0.1,0.2,0.1,0.2,0.2
				c0.5-1.8,0.8-3.7,0.8-5.8c0-5.5-1.9-8.5-4.6-9.9l-0.2,0.3c0,0.1,0,0.4,0.1,1c0.1,0.4,0.2,0.8,0.4,1.2c0.7,1.9,1.5,4.2-0.6,9.1
				C237.8,161.5,238.2,162,238.6,162.6z"/>
			<path fill="#FFFFFF" d="M229.3,158.8c-0.3-1-0.6-2-0.8-2.9c-0.9-4,1.9-5.2,4.2-6.1c0.6-0.2,1.2-0.5,1.7-0.7
				c0.9-0.5,1.4-1.2,1.8-2c-0.5-0.8-1.1-1.5-1.8-2.2c-1.8,2-4.4,3.3-7.3,3.3c-2,0-3.9-0.6-5.4-1.6c0.2,0.1,0.5,0.2,0.7,0.2
				c0,0,0.1,0,0.1,0c0.2,0.1,0.4,0.1,0.7,0.1c0.1,0,0.2,0,0.3,0c0.2,0,0.3,0.1,0.5,0.1c0.3,0,0.6,0,0.9,0c0.4,0,0.7,0,1.1-0.1
				c0.1,0,0.2,0,0.3,0c0.3,0,0.5-0.1,0.7-0.1c0.1,0,0.2-0.1,0.3-0.1c0.2-0.1,0.5-0.1,0.7-0.2c0.1,0,0.2-0.1,0.3-0.1
				c0.3-0.1,0.5-0.2,0.8-0.3c0.1,0,0.1-0.1,0.2-0.1c3.1-1.6,5.3-4.9,5.3-8.6c0-5.3-4.3-9.7-9.7-9.7s-9.7,4.3-9.7,9.7
				c0,2.2,0.7,4.2,2,5.9c-1.3,1-2.5,2.3-3.5,3.8c0.4,0.8,0.9,1.5,1.8,1.9c0.5,0.3,1.1,0.5,1.7,0.7c2.3,0.9,5.2,2,4.2,6.1
				c-0.2,0.9-0.5,1.9-0.8,2.9c-1.1,3.7-2.4,8.2-1.5,13.5c1.8,0.3,3.7,0.4,5.8,0.4s4-0.1,5.8-0.4C231.7,167,230.3,162.5,229.3,158.8z
				"/>
			<path fill="#FFFFFF" d="M219.7,158.5c0.3-1,0.6-2,0.8-2.8c0.7-3.1-1.3-3.9-3.6-4.8c-0.6-0.2-1.3-0.5-1.8-0.8
				c-0.9-0.5-1.5-1.1-1.9-1.9c-0.1,0.2-0.3,0.5-0.4,0.7c0.2,0,0.3,0,0.5,0.1c0.6,0.4,0.4,1.3,0.3,2.1c-0.1,0.5-0.3,0.9-0.4,1.3
				c-0.7,1.8-1.4,3.9,0.7,8.5c0.3,0.1,0.7,0.3,1.1,0.7c0.9,0.9,1.6,2.3,1.8,3.7c0.2,1.6-0.1,3-1,3.9c-0.4,0.4-1,0.7-1.6,0.9
				c1.2,0.9,2.6,1.5,4.2,1.8C217.3,166.7,218.6,162.2,219.7,158.5z"/>
			<path fill="#FFFFFF" d="M215.5,165.6c-0.2-1.2-0.7-2.4-1.5-3.1c-0.4-0.4-0.6-0.4-0.7-0.4c-0.3,0-0.7,0.6-1.1,1.1
				c-0.4,0.5-0.8,1.1-1.3,1.6c-0.5,0.5-1.1,0.9-1.6,1.3c-0.5,0.4-1.1,0.8-1.1,1.1c0,0.2,0.1,0.4,0.4,0.7c0.9,0.9,2.5,1.5,3.9,1.5
				c0.7,0,1.6-0.1,2.2-0.8C215.4,167.9,215.7,166.8,215.5,165.6z"/>
			<path fill="#FFFFFF" d="M212.4,150.9c0.1-0.6,0.1-0.9,0.1-1l-0.2-0.3c-2.7,1.5-4.6,4.4-4.6,10c0,2.1,0.3,4.1,0.8,5.8
				c0.1-0.1,0.2-0.1,0.2-0.2c0.5-0.3,1-0.7,1.4-1.2c0.5-0.5,0.8-1,1.2-1.4c0.4-0.6,0.8-1.1,1.2-1.4c-2.1-4.9-1.3-7.2-0.6-9.1
				C212.2,151.7,212.3,151.3,212.4,150.9z"/>
		</g>
		<path fill="#FF003D" d="M234.4,133.2c-1.7-3.5-5.3-5.9-9.4-5.9c-4.1,0-7.7,2.4-9.4,5.8c0,0,0,0,0,0c-1.4,0-2.5,1.8-2.5,4
			c0,2.2,1.1,4,2.5,4s1.5-1.8,1.5-4c0-1.5-0.1-2.9-0.6-3.5c1.6-3.1,4.8-5.3,8.5-5.3c3.6,0,6.7,2,8.4,5c-0.8,0.5-0.9,2-0.9,3.9
			c0,2.2,0.1,4,1.5,4s2.5-1.8,2.5-4C236.4,135.2,235.6,133.6,234.4,133.2z"/>
	</g>
	<g>
		<g>
			<path fill="#FFFFFF" d="M277.9,50c-0.6,0.3-1.2,0.6-1.8,0.8c-2.3,0.9-4.3,1.7-3.6,4.8c0.2,0.9,0.5,1.8,0.8,2.8
				c1.1,3.7,2.4,8.2,1.6,13.6c1.6-0.4,3-1,4.2-1.8c-0.6-0.2-1.2-0.5-1.6-0.9c-0.9-0.9-1.3-2.3-1-3.9c0.2-1.4,0.9-2.8,1.8-3.7
				c0.4-0.4,0.7-0.6,1.1-0.7c2.1-4.7,1.3-6.7,0.7-8.5c-0.2-0.5-0.3-0.9-0.4-1.3c-0.2-0.8-0.3-1.7,0.3-2.1c0.2-0.1,0.3-0.1,0.5-0.1
				c-0.1-0.3-0.3-0.5-0.4-0.8C279.4,48.8,278.8,49.5,277.9,50z"/>
			<path fill="#FFFFFF" d="M279.6,62c-0.1,0-0.3,0.1-0.7,0.4c-0.7,0.7-1.3,1.9-1.5,3.1c-0.2,1.2,0.1,2.3,0.7,3
				c0.6,0.6,1.6,0.8,2.2,0.8c1.4,0,2.9-0.6,3.9-1.5c0.3-0.3,0.4-0.5,0.4-0.7c0-0.3-0.6-0.7-1.1-1.1c-0.5-0.4-1.1-0.8-1.6-1.3
				s-0.9-1.1-1.3-1.6C280.3,62.6,279.9,62,279.6,62z"/>
			<path fill="#FFFFFF" d="M281.6,62.6c0.3,0.5,0.7,1,1.2,1.4c0.5,0.5,1,0.8,1.4,1.2c0.1,0.1,0.2,0.1,0.2,0.2
				c0.5-1.8,0.8-3.7,0.8-5.8c0-5.5-1.9-8.5-4.6-9.9l-0.2,0.3c0,0.1,0,0.4,0.1,1c0.1,0.4,0.2,0.8,0.4,1.2c0.7,1.9,1.5,4.2-0.6,9.1
				C280.8,61.5,281.2,62,281.6,62.6z"/>
			<path fill="#FFFFFF" d="M272.3,58.8c-0.3-1-0.6-2-0.8-2.9c-0.9-4,1.9-5.2,4.2-6.1c0.6-0.2,1.2-0.5,1.7-0.7c0.9-0.5,1.4-1.2,1.8-2
				c-0.5-0.8-1.1-1.5-1.8-2.2c-1.8,2-4.4,3.3-7.3,3.3c-2,0-3.9-0.6-5.4-1.6c0.2,0.1,0.5,0.2,0.7,0.2c0,0,0.1,0,0.1,0
				c0.2,0.1,0.4,0.1,0.7,0.1c0.1,0,0.2,0,0.3,0c0.2,0,0.3,0.1,0.5,0.1c0.3,0,0.6,0,0.9,0c0.4,0,0.7,0,1.1-0.1c0.1,0,0.2,0,0.3,0
				c0.3,0,0.5-0.1,0.7-0.1c0.1,0,0.2-0.1,0.3-0.1c0.2-0.1,0.5-0.1,0.7-0.2c0.1,0,0.2-0.1,0.3-0.1c0.3-0.1,0.5-0.2,0.8-0.3
				c0.1,0,0.1-0.1,0.2-0.1c3.1-1.6,5.3-4.9,5.3-8.6c0-5.3-4.3-9.7-9.7-9.7c-5.3,0-9.7,4.3-9.7,9.7c0,2.2,0.7,4.2,2,5.9
				c-1.3,1-2.5,2.3-3.5,3.8c0.4,0.8,0.9,1.5,1.8,1.9c0.5,0.3,1.1,0.5,1.7,0.7c2.3,0.9,5.2,2,4.2,6.1c-0.2,0.9-0.5,1.9-0.8,2.9
				c-1.1,3.7-2.4,8.2-1.5,13.5c1.8,0.3,3.7,0.4,5.8,0.4c2.1,0,4-0.1,5.8-0.4C274.7,67,273.3,62.5,272.3,58.8z"/>
			<path fill="#FFFFFF" d="M262.7,58.5c0.3-1,0.6-2,0.8-2.8c0.7-3.1-1.3-3.9-3.6-4.8c-0.6-0.2-1.3-0.5-1.8-0.8
				c-0.9-0.5-1.5-1.1-1.9-1.9c-0.1,0.2-0.3,0.5-0.4,0.7c0.2,0,0.3,0,0.5,0.1c0.6,0.4,0.4,1.3,0.3,2.1c-0.1,0.5-0.3,0.9-0.4,1.3
				c-0.7,1.8-1.4,3.9,0.7,8.5c0.3,0.1,0.7,0.3,1.1,0.7c0.9,0.9,1.6,2.3,1.8,3.7c0.2,1.6-0.1,3-1,3.9c-0.4,0.4-1,0.7-1.6,0.9
				c1.2,0.9,2.6,1.5,4.2,1.8C260.3,66.7,261.6,62.2,262.7,58.5z"/>
			<path fill="#FFFFFF" d="M258.5,65.6c-0.2-1.2-0.7-2.4-1.5-3.1c-0.4-0.4-0.6-0.4-0.7-0.4c-0.3,0-0.7,0.6-1.1,1.1
				c-0.4,0.5-0.8,1.1-1.3,1.6c-0.5,0.5-1.1,0.9-1.6,1.3c-0.5,0.4-1.1,0.8-1.1,1.1c0,0.2,0.1,0.4,0.4,0.7c0.9,0.9,2.5,1.5,3.9,1.5
				c0.7,0,1.6-0.1,2.2-0.8C258.4,67.9,258.7,66.8,258.5,65.6z"/>
			<path fill="#FFFFFF" d="M255.4,50.9c0.1-0.6,0.1-0.9,0.1-1l-0.2-0.3c-2.7,1.5-4.6,4.4-4.6,10c0,2.1,0.3,4.1,0.8,5.8
				c0.1-0.1,0.2-0.1,0.2-0.2c0.5-0.3,1-0.7,1.4-1.2c0.5-0.5,0.8-1,1.2-1.4c0.4-0.6,0.8-1.1,1.2-1.4c-2.1-4.9-1.3-7.2-0.6-9.1
				C255.2,51.7,255.3,51.3,255.4,50.9z"/>
		</g>
		<path fill="#FF003D" d="M277.4,33.2c-1.7-3.5-5.3-5.9-9.4-5.9c-4.1,0-7.7,2.4-9.4,5.8c0,0,0,0,0,0c-1.4,0-2.5,1.8-2.5,4
			c0,2.2,1.1,4,2.5,4s1.5-1.8,1.5-4c0-1.5-0.1-2.9-0.6-3.5c1.6-3.1,4.8-5.3,8.5-5.3c3.6,0,6.7,2,8.4,5c-0.8,0.5-0.9,2-0.9,3.9
			c0,2.2,0.1,4,1.5,4s2.5-1.8,2.5-4C279.4,35.2,278.6,33.6,277.4,33.2z"/>
	</g>
	<g>
		<g>
			<path fill="#FFFFFF" d="M193.9,50c-0.6,0.3-1.2,0.6-1.8,0.8c-2.3,0.9-4.3,1.7-3.6,4.8c0.2,0.9,0.5,1.8,0.8,2.8
				c1.1,3.7,2.4,8.2,1.6,13.6c1.6-0.4,3-1,4.2-1.8c-0.6-0.2-1.2-0.5-1.6-0.9c-0.9-0.9-1.3-2.3-1-3.9c0.2-1.4,0.9-2.8,1.8-3.7
				c0.4-0.4,0.7-0.6,1.1-0.7c2.1-4.7,1.3-6.7,0.7-8.5c-0.2-0.5-0.3-0.9-0.4-1.3c-0.2-0.8-0.3-1.7,0.3-2.1c0.2-0.1,0.3-0.1,0.5-0.1
				c-0.1-0.3-0.3-0.5-0.4-0.8C195.4,48.8,194.8,49.5,193.9,50z"/>
			<path fill="#FFFFFF" d="M195.6,62c-0.1,0-0.3,0.1-0.7,0.4c-0.7,0.7-1.3,1.9-1.5,3.1c-0.2,1.2,0.1,2.3,0.7,3
				c0.6,0.6,1.6,0.8,2.2,0.8c1.4,0,2.9-0.6,3.9-1.5c0.3-0.3,0.4-0.5,0.4-0.7c0-0.3-0.6-0.7-1.1-1.1c-0.5-0.4-1.1-0.8-1.6-1.3
				c-0.5-0.5-0.9-1.1-1.3-1.6C196.3,62.6,195.9,62,195.6,62z"/>
			<path fill="#FFFFFF" d="M197.6,62.6c0.3,0.5,0.7,1,1.2,1.4c0.5,0.5,1,0.8,1.4,1.2c0.1,0.1,0.2,0.1,0.2,0.2
				c0.5-1.8,0.8-3.7,0.8-5.8c0-5.5-1.9-8.5-4.6-9.9l-0.2,0.3c0,0.1,0,0.4,0.1,1c0.1,0.4,0.2,0.8,0.4,1.2c0.7,1.9,1.5,4.2-0.6,9.1
				C196.8,61.5,197.2,62,197.6,62.6z"/>
			<path fill="#FFFFFF" d="M188.3,58.8c-0.3-1-0.6-2-0.8-2.9c-0.9-4,1.9-5.2,4.2-6.1c0.6-0.2,1.2-0.5,1.7-0.7c0.9-0.5,1.4-1.2,1.8-2
				c-0.5-0.8-1.1-1.5-1.8-2.2c-1.8,2-4.4,3.3-7.3,3.3c-2,0-3.9-0.6-5.4-1.6c0.2,0.1,0.5,0.2,0.7,0.2c0,0,0.1,0,0.1,0
				c0.2,0.1,0.4,0.1,0.7,0.1c0.1,0,0.2,0,0.3,0c0.2,0,0.3,0.1,0.5,0.1c0.3,0,0.6,0,0.9,0c0.4,0,0.7,0,1.1-0.1c0.1,0,0.2,0,0.3,0
				c0.3,0,0.5-0.1,0.7-0.1c0.1,0,0.2-0.1,0.3-0.1c0.2-0.1,0.5-0.1,0.7-0.2c0.1,0,0.2-0.1,0.3-0.1c0.3-0.1,0.5-0.2,0.8-0.3
				c0.1,0,0.1-0.1,0.2-0.1c3.1-1.6,5.3-4.9,5.3-8.6c0-5.3-4.3-9.7-9.7-9.7s-9.7,4.3-9.7,9.7c0,2.2,0.7,4.2,2,5.9
				c-1.3,1-2.5,2.3-3.5,3.8c0.4,0.8,0.9,1.5,1.8,1.9c0.5,0.3,1.1,0.5,1.7,0.7c2.3,0.9,5.2,2,4.2,6.1c-0.2,0.9-0.5,1.9-0.8,2.9
				c-1.1,3.7-2.4,8.2-1.5,13.5c1.8,0.3,3.7,0.4,5.8,0.4s4-0.1,5.8-0.4C190.7,67,189.3,62.5,188.3,58.8z"/>
			<path fill="#FFFFFF" d="M178.7,58.5c0.3-1,0.6-2,0.8-2.8c0.7-3.1-1.3-3.9-3.6-4.8c-0.6-0.2-1.3-0.5-1.8-0.8
				c-0.9-0.5-1.5-1.1-1.9-1.9c-0.1,0.2-0.3,0.5-0.4,0.7c0.2,0,0.3,0,0.5,0.1c0.6,0.4,0.4,1.3,0.3,2.1c-0.1,0.5-0.3,0.9-0.4,1.3
				c-0.7,1.8-1.4,3.9,0.7,8.5c0.3,0.1,0.7,0.3,1.1,0.7c0.9,0.9,1.6,2.3,1.8,3.7c0.2,1.6-0.1,3-1,3.9c-0.4,0.4-1,0.7-1.6,0.9
				c1.2,0.9,2.6,1.5,4.2,1.8C176.3,66.7,177.6,62.2,178.7,58.5z"/>
			<path fill="#FFFFFF" d="M174.5,65.6c-0.2-1.2-0.7-2.4-1.5-3.1c-0.4-0.4-0.6-0.4-0.7-0.4c-0.3,0-0.7,0.6-1.1,1.1
				c-0.4,0.5-0.8,1.1-1.3,1.6c-0.5,0.5-1.1,0.9-1.6,1.3c-0.5,0.4-1.1,0.8-1.1,1.1c0,0.2,0.1,0.4,0.4,0.7c0.9,0.9,2.5,1.5,3.9,1.5
				c0.7,0,1.6-0.1,2.2-0.8C174.4,67.9,174.7,66.8,174.5,65.6z"/>
			<path fill="#FFFFFF" d="M171.4,50.9c0.1-0.6,0.1-0.9,0.1-1l-0.2-0.3c-2.7,1.5-4.6,4.4-4.6,10c0,2.1,0.3,4.1,0.8,5.8
				c0.1-0.1,0.2-0.1,0.2-0.2c0.5-0.3,1-0.7,1.4-1.2c0.5-0.5,0.8-1,1.2-1.4c0.4-0.6,0.8-1.1,1.2-1.4c-2.1-4.9-1.3-7.2-0.6-9.1
				C171.2,51.7,171.3,51.3,171.4,50.9z"/>
		</g>
		<path fill="#FF003D" d="M193.4,33.2c-1.7-3.5-5.3-5.9-9.4-5.9c-4.1,0-7.7,2.4-9.4,5.8c0,0,0,0,0,0c-1.4,0-2.5,1.8-2.5,4
			c0,2.2,1.1,4,2.5,4s1.5-1.8,1.5-4c0-1.5-0.1-2.9-0.6-3.5c1.6-3.1,4.8-5.3,8.5-5.3c3.6,0,6.7,2,8.4,5c-0.8,0.5-0.9,2-0.9,3.9
			c0,2.2,0.1,4,1.5,4s2.5-1.8,2.5-4C195.4,35.2,194.6,33.6,193.4,33.2z"/>
	</g>
	<g>
		<g>
			<path fill="#FFFFFF" d="M277.9,250c-0.6,0.3-1.2,0.6-1.8,0.8c-2.3,0.9-4.3,1.7-3.6,4.8c0.2,0.9,0.5,1.8,0.8,2.8
				c1.1,3.7,2.4,8.2,1.6,13.6c1.6-0.4,3-1,4.2-1.8c-0.6-0.2-1.2-0.5-1.6-0.9c-0.9-0.9-1.3-2.3-1-3.9c0.2-1.4,0.9-2.8,1.8-3.7
				c0.4-0.4,0.7-0.6,1.1-0.7c2.1-4.7,1.3-6.7,0.7-8.5c-0.2-0.5-0.3-0.9-0.4-1.3c-0.2-0.8-0.3-1.7,0.3-2.1c0.2-0.1,0.3-0.1,0.5-0.1
				c-0.1-0.3-0.3-0.5-0.4-0.8C279.4,248.8,278.8,249.5,277.9,250z"/>
			<path fill="#FFFFFF" d="M279.6,262c-0.1,0-0.3,0.1-0.7,0.4c-0.7,0.7-1.3,1.9-1.5,3.1c-0.2,1.2,0.1,2.3,0.7,3
				c0.6,0.6,1.6,0.8,2.2,0.8c1.4,0,2.9-0.6,3.9-1.5c0.3-0.3,0.4-0.5,0.4-0.7c0-0.3-0.6-0.7-1.1-1.1c-0.5-0.4-1.1-0.8-1.6-1.3
				s-0.9-1.1-1.3-1.6C280.3,262.6,279.9,262,279.6,262z"/>
			<path fill="#FFFFFF" d="M281.6,262.6c0.3,0.5,0.7,1,1.2,1.4c0.5,0.5,1,0.8,1.4,1.2c0.1,0.1,0.2,0.1,0.2,0.2
				c0.5-1.8,0.8-3.7,0.8-5.8c0-5.5-1.9-8.5-4.6-9.9l-0.2,0.3c0,0.1,0,0.4,0.1,1c0.1,0.4,0.2,0.8,0.4,1.2c0.7,1.9,1.5,4.2-0.6,9.1
				C280.8,261.5,281.2,262,281.6,262.6z"/>
			<path fill="#FFFFFF" d="M272.3,258.8c-0.3-1-0.6-2-0.8-2.9c-0.9-4,1.9-5.2,4.2-6.1c0.6-0.2,1.2-0.5,1.7-0.7
				c0.9-0.5,1.4-1.2,1.8-2c-0.5-0.8-1.1-1.5-1.8-2.2c-1.8,2-4.4,3.3-7.3,3.3c-2,0-3.9-0.6-5.4-1.6c0.2,0.1,0.5,0.2,0.7,0.2
				c0,0,0.1,0,0.1,0c0.2,0.1,0.4,0.1,0.7,0.1c0.1,0,0.2,0,0.3,0c0.2,0,0.3,0.1,0.5,0.1c0.3,0,0.6,0,0.9,0c0.4,0,0.7,0,1.1-0.1
				c0.1,0,0.2,0,0.3,0c0.3,0,0.5-0.1,0.7-0.1c0.1,0,0.2-0.1,0.3-0.1c0.2-0.1,0.5-0.1,0.7-0.2c0.1,0,0.2-0.1,0.3-0.1
				c0.3-0.1,0.5-0.2,0.8-0.3c0.1,0,0.1-0.1,0.2-0.1c3.1-1.6,5.3-4.9,5.3-8.6c0-5.3-4.3-9.7-9.7-9.7c-5.3,0-9.7,4.3-9.7,9.7
				c0,2.2,0.7,4.2,2,5.9c-1.3,1-2.5,2.3-3.5,3.8c0.4,0.8,0.9,1.5,1.8,1.9c0.5,0.3,1.1,0.5,1.7,0.7c2.3,0.9,5.2,2,4.2,6.1
				c-0.2,0.9-0.5,1.9-0.8,2.9c-1.1,3.7-2.4,8.2-1.5,13.5c1.8,0.3,3.7,0.4,5.8,0.4c2.1,0,4-0.1,5.8-0.4
				C274.7,267,273.3,262.5,272.3,258.8z"/>
			<path fill="#FFFFFF" d="M262.7,258.5c0.3-1,0.6-2,0.8-2.8c0.7-3.1-1.3-3.9-3.6-4.8c-0.6-0.2-1.3-0.5-1.8-0.8
				c-0.9-0.5-1.5-1.1-1.9-1.9c-0.1,0.2-0.3,0.5-0.4,0.7c0.2,0,0.3,0,0.5,0.1c0.6,0.4,0.4,1.3,0.3,2.1c-0.1,0.5-0.3,0.9-0.4,1.3
				c-0.7,1.8-1.4,3.9,0.7,8.5c0.3,0.1,0.7,0.3,1.1,0.7c0.9,0.9,1.6,2.3,1.8,3.7c0.2,1.6-0.1,3-1,3.9c-0.4,0.4-1,0.7-1.6,0.9
				c1.2,0.9,2.6,1.5,4.2,1.8C260.3,266.7,261.6,262.2,262.7,258.5z"/>
			<path fill="#FFFFFF" d="M258.5,265.6c-0.2-1.2-0.7-2.4-1.5-3.1c-0.4-0.4-0.6-0.4-0.7-0.4c-0.3,0-0.7,0.6-1.1,1.1
				c-0.4,0.5-0.8,1.1-1.3,1.6c-0.5,0.5-1.1,0.9-1.6,1.3c-0.5,0.4-1.1,0.8-1.1,1.1c0,0.2,0.1,0.4,0.4,0.7c0.9,0.9,2.5,1.5,3.9,1.5
				c0.7,0,1.6-0.1,2.2-0.8C258.4,267.9,258.7,266.8,258.5,265.6z"/>
			<path fill="#FFFFFF" d="M255.4,250.9c0.1-0.6,0.1-0.9,0.1-1l-0.2-0.3c-2.7,1.5-4.6,4.4-4.6,10c0,2.1,0.3,4.1,0.8,5.8
				c0.1-0.1,0.2-0.1,0.2-0.2c0.5-0.3,1-0.7,1.4-1.2c0.5-0.5,0.8-1,1.2-1.4c0.4-0.6,0.8-1.1,1.2-1.4c-2.1-4.9-1.3-7.2-0.6-9.1
				C255.2,251.7,255.3,251.3,255.4,250.9z"/>
		</g>
		<path fill="#FF003D" d="M277.4,233.2c-1.7-3.5-5.3-5.9-9.4-5.9c-4.1,0-7.7,2.4-9.4,5.8c0,0,0,0,0,0c-1.4,0-2.5,1.8-2.5,4
			c0,2.2,1.1,4,2.5,4s1.5-1.8,1.5-4c0-1.5-0.1-2.9-0.6-3.5c1.6-3.1,4.8-5.3,8.5-5.3c3.6,0,6.7,2,8.4,5c-0.8,0.5-0.9,2-0.9,3.9
			c0,2.2,0.1,4,1.5,4s2.5-1.8,2.5-4C279.4,235.2,278.6,233.6,277.4,233.2z"/>
	</g>
	<g>
		<g>
			<path fill="#FFFFFF" d="M193.9,250c-0.6,0.3-1.2,0.6-1.8,0.8c-2.3,0.9-4.3,1.7-3.6,4.8c0.2,0.9,0.5,1.8,0.8,2.8
				c1.1,3.7,2.4,8.2,1.6,13.6c1.6-0.4,3-1,4.2-1.8c-0.6-0.2-1.2-0.5-1.6-0.9c-0.9-0.9-1.3-2.3-1-3.9c0.2-1.4,0.9-2.8,1.8-3.7
				c0.4-0.4,0.7-0.6,1.1-0.7c2.1-4.7,1.3-6.7,0.7-8.5c-0.2-0.5-0.3-0.9-0.4-1.3c-0.2-0.8-0.3-1.7,0.3-2.1c0.2-0.1,0.3-0.1,0.5-0.1
				c-0.1-0.3-0.3-0.5-0.4-0.8C195.4,248.8,194.8,249.5,193.9,250z"/>
			<path fill="#FFFFFF" d="M195.6,262c-0.1,0-0.3,0.1-0.7,0.4c-0.7,0.7-1.3,1.9-1.5,3.1c-0.2,1.2,0.1,2.3,0.7,3
				c0.6,0.6,1.6,0.8,2.2,0.8c1.4,0,2.9-0.6,3.9-1.5c0.3-0.3,0.4-0.5,0.4-0.7c0-0.3-0.6-0.7-1.1-1.1c-0.5-0.4-1.1-0.8-1.6-1.3
				c-0.5-0.5-0.9-1.1-1.3-1.6C196.3,262.6,195.9,262,195.6,262z"/>
			<path fill="#FFFFFF" d="M197.6,262.6c0.3,0.5,0.7,1,1.2,1.4c0.5,0.5,1,0.8,1.4,1.2c0.1,0.1,0.2,0.1,0.2,0.2
				c0.5-1.8,0.8-3.7,0.8-5.8c0-5.5-1.9-8.5-4.6-9.9l-0.2,0.3c0,0.1,0,0.4,0.1,1c0.1,0.4,0.2,0.8,0.4,1.2c0.7,1.9,1.5,4.2-0.6,9.1
				C196.8,261.5,197.2,262,197.6,262.6z"/>
			<path fill="#FFFFFF" d="M188.3,258.8c-0.3-1-0.6-2-0.8-2.9c-0.9-4,1.9-5.2,4.2-6.1c0.6-0.2,1.2-0.5,1.7-0.7
				c0.9-0.5,1.4-1.2,1.8-2c-0.5-0.8-1.1-1.5-1.8-2.2c-1.8,2-4.4,3.3-7.3,3.3c-2,0-3.9-0.6-5.4-1.6c0.2,0.1,0.5,0.2,0.7,0.2
				c0,0,0.1,0,0.1,0c0.2,0.1,0.4,0.1,0.7,0.1c0.1,0,0.2,0,0.3,0c0.2,0,0.3,0.1,0.5,0.1c0.3,0,0.6,0,0.9,0c0.4,0,0.7,0,1.1-0.1
				c0.1,0,0.2,0,0.3,0c0.3,0,0.5-0.1,0.7-0.1c0.1,0,0.2-0.1,0.3-0.1c0.2-0.1,0.5-0.1,0.7-0.2c0.1,0,0.2-0.1,0.3-0.1
				c0.3-0.1,0.5-0.2,0.8-0.3c0.1,0,0.1-0.1,0.2-0.1c3.1-1.6,5.3-4.9,5.3-8.6c0-5.3-4.3-9.7-9.7-9.7s-9.7,4.3-9.7,9.7
				c0,2.2,0.7,4.2,2,5.9c-1.3,1-2.5,2.3-3.5,3.8c0.4,0.8,0.9,1.5,1.8,1.9c0.5,0.3,1.1,0.5,1.7,0.7c2.3,0.9,5.2,2,4.2,6.1
				c-0.2,0.9-0.5,1.9-0.8,2.9c-1.1,3.7-2.4,8.2-1.5,13.5c1.8,0.3,3.7,0.4,5.8,0.4s4-0.1,5.8-0.4C190.7,267,189.3,262.5,188.3,258.8z
				"/>
			<path fill="#FFFFFF" d="M178.7,258.5c0.3-1,0.6-2,0.8-2.8c0.7-3.1-1.3-3.9-3.6-4.8c-0.6-0.2-1.3-0.5-1.8-0.8
				c-0.9-0.5-1.5-1.1-1.9-1.9c-0.1,0.2-0.3,0.5-0.4,0.7c0.2,0,0.3,0,0.5,0.1c0.6,0.4,0.4,1.3,0.3,2.1c-0.1,0.5-0.3,0.9-0.4,1.3
				c-0.7,1.8-1.4,3.9,0.7,8.5c0.3,0.1,0.7,0.3,1.1,0.7c0.9,0.9,1.6,2.3,1.8,3.7c0.2,1.6-0.1,3-1,3.9c-0.4,0.4-1,0.7-1.6,0.9
				c1.2,0.9,2.6,1.5,4.2,1.8C176.3,266.7,177.6,262.2,178.7,258.5z"/>
			<path fill="#FFFFFF" d="M174.5,265.6c-0.2-1.2-0.7-2.4-1.5-3.1c-0.4-0.4-0.6-0.4-0.7-0.4c-0.3,0-0.7,0.6-1.1,1.1
				c-0.4,0.5-0.8,1.1-1.3,1.6c-0.5,0.5-1.1,0.9-1.6,1.3c-0.5,0.4-1.1,0.8-1.1,1.1c0,0.2,0.1,0.4,0.4,0.7c0.9,0.9,2.5,1.5,3.9,1.5
				c0.7,0,1.6-0.1,2.2-0.8C174.4,267.9,174.7,266.8,174.5,265.6z"/>
			<path fill="#FFFFFF" d="M171.4,250.9c0.1-0.6,0.1-0.9,0.1-1l-0.2-0.3c-2.7,1.5-4.6,4.4-4.6,10c0,2.1,0.3,4.1,0.8,5.8
				c0.1-0.1,0.2-0.1,0.2-0.2c0.5-0.3,1-0.7,1.4-1.2c0.5-0.5,0.8-1,1.2-1.4c0.4-0.6,0.8-1.1,1.2-1.4c-2.1-4.9-1.3-7.2-0.6-9.1
				C171.2,251.7,171.3,251.3,171.4,250.9z"/>
		</g>
		<path fill="#FF003D" d="M193.4,233.2c-1.7-3.5-5.3-5.9-9.4-5.9c-4.1,0-7.7,2.4-9.4,5.8c0,0,0,0,0,0c-1.4,0-2.5,1.8-2.5,4
			c0,2.2,1.1,4,2.5,4s1.5-1.8,1.5-4c0-1.5-0.1-2.9-0.6-3.5c1.6-3.1,4.8-5.3,8.5-5.3c3.6,0,6.7,2,8.4,5c-0.8,0.5-0.9,2-0.9,3.9
			c0,2.2,0.1,4,1.5,4s2.5-1.8,2.5-4C195.4,235.2,194.6,233.6,193.4,233.2z"/>
	</g>
	<g>
		<g>
			<path fill="#FFFFFF" d="M134.9,192c-0.6,0.3-1.2,0.6-1.8,0.8c-2.3,0.9-4.3,1.7-3.6,4.8c0.2,0.9,0.5,1.8,0.8,2.8
				c1.1,3.7,2.4,8.2,1.6,13.6c1.6-0.4,3-1,4.2-1.8c-0.6-0.2-1.2-0.5-1.6-0.9c-0.9-0.9-1.3-2.3-1-3.9c0.2-1.4,0.9-2.8,1.8-3.7
				c0.4-0.4,0.7-0.6,1.1-0.7c2.1-4.7,1.3-6.7,0.7-8.5c-0.2-0.5-0.3-0.9-0.4-1.3c-0.2-0.8-0.3-1.7,0.3-2.1c0.2-0.1,0.3-0.1,0.5-0.1
				c-0.1-0.3-0.3-0.5-0.4-0.8C136.4,190.8,135.8,191.5,134.9,192z"/>
			<path fill="#FFFFFF" d="M136.6,204c-0.1,0-0.3,0.1-0.7,0.4c-0.7,0.7-1.3,1.9-1.5,3.1c-0.2,1.2,0.1,2.3,0.7,3
				c0.6,0.6,1.6,0.8,2.2,0.8c1.4,0,2.9-0.6,3.9-1.5c0.3-0.3,0.4-0.5,0.4-0.7c0-0.3-0.6-0.7-1.1-1.1c-0.5-0.4-1.1-0.8-1.6-1.3
				c-0.5-0.5-0.9-1.1-1.3-1.6C137.3,204.6,136.9,204,136.6,204z"/>
			<path fill="#FFFFFF" d="M138.6,204.6c0.3,0.5,0.7,1,1.2,1.4c0.5,0.5,1,0.8,1.4,1.2c0.1,0.1,0.2,0.1,0.2,0.2
				c0.5-1.8,0.8-3.7,0.8-5.8c0-5.5-1.9-8.5-4.6-9.9l-0.2,0.3c0,0.1,0,0.4,0.1,1c0.1,0.4,0.2,0.8,0.4,1.2c0.7,1.9,1.5,4.2-0.6,9.1
				C137.8,203.5,138.2,204,138.6,204.6z"/>
			<path fill="#FFFFFF" d="M129.3,200.8c-0.3-1-0.6-2-0.8-2.9c-0.9-4,1.9-5.2,4.2-6.1c0.6-0.2,1.2-0.5,1.7-0.7
				c0.9-0.5,1.4-1.2,1.8-2c-0.5-0.8-1.1-1.5-1.8-2.2c-1.8,2-4.4,3.3-7.3,3.3c-2,0-3.9-0.6-5.4-1.6c0.2,0.1,0.5,0.2,0.7,0.2
				c0,0,0.1,0,0.1,0c0.2,0.1,0.4,0.1,0.7,0.1c0.1,0,0.2,0,0.3,0c0.2,0,0.3,0.1,0.5,0.1c0.3,0,0.6,0,0.9,0c0.4,0,0.7,0,1.1-0.1
				c0.1,0,0.2,0,0.3,0c0.3,0,0.5-0.1,0.7-0.1c0.1,0,0.2-0.1,0.3-0.1c0.2-0.1,0.5-0.1,0.7-0.2c0.1,0,0.2-0.1,0.3-0.1
				c0.3-0.1,0.5-0.2,0.8-0.3c0.1,0,0.1-0.1,0.2-0.1c3.1-1.6,5.3-4.9,5.3-8.6c0-5.3-4.3-9.7-9.7-9.7s-9.7,4.3-9.7,9.7
				c0,2.2,0.7,4.2,2,5.9c-1.3,1-2.5,2.3-3.5,3.8c0.4,0.8,0.9,1.5,1.8,1.9c0.5,0.3,1.1,0.5,1.7,0.7c2.3,0.9,5.2,2,4.2,6.1
				c-0.2,0.9-0.5,1.9-0.8,2.9c-1.1,3.7-2.4,8.2-1.5,13.5c1.8,0.3,3.7,0.4,5.8,0.4s4-0.1,5.8-0.4C131.7,209,130.3,204.5,129.3,200.8z
				"/>
			<path fill="#FFFFFF" d="M119.7,200.5c0.3-1,0.6-2,0.8-2.8c0.7-3.1-1.3-3.9-3.6-4.8c-0.6-0.2-1.3-0.5-1.8-0.8
				c-0.9-0.5-1.5-1.1-1.9-1.9c-0.1,0.2-0.3,0.5-0.4,0.7c0.2,0,0.3,0,0.5,0.1c0.6,0.4,0.4,1.3,0.3,2.1c-0.1,0.5-0.3,0.9-0.4,1.3
				c-0.7,1.8-1.4,3.9,0.7,8.5c0.3,0.1,0.7,0.3,1.1,0.7c0.9,0.9,1.6,2.3,1.8,3.7c0.2,1.6-0.1,3-1,3.9c-0.4,0.4-1,0.7-1.6,0.9
				c1.2,0.9,2.6,1.5,4.2,1.8C117.3,208.7,118.6,204.2,119.7,200.5z"/>
			<path fill="#FFFFFF" d="M115.5,207.6c-0.2-1.2-0.7-2.4-1.5-3.1c-0.4-0.4-0.6-0.4-0.7-0.4c-0.3,0-0.7,0.6-1.1,1.1
				c-0.4,0.5-0.8,1.1-1.3,1.6c-0.5,0.5-1.1,0.9-1.6,1.3c-0.5,0.4-1.1,0.8-1.1,1.1c0,0.2,0.1,0.4,0.4,0.7c0.9,0.9,2.5,1.5,3.9,1.5
				c0.7,0,1.6-0.1,2.2-0.8C115.4,209.9,115.7,208.8,115.5,207.6z"/>
			<path fill="#FFFFFF" d="M112.4,192.9c0.1-0.6,0.1-0.9,0.1-1l-0.2-0.3c-2.7,1.5-4.6,4.4-4.6,10c0,2.1,0.3,4.1,0.8,5.8
				c0.1-0.1,0.2-0.1,0.2-0.2c0.5-0.3,1-0.7,1.4-1.2c0.5-0.5,0.8-1,1.2-1.4c0.4-0.6,0.8-1.1,1.2-1.4c-2.1-4.9-1.3-7.2-0.6-9.1
				C112.2,193.7,112.3,193.3,112.4,192.9z"/>
		</g>
		<path fill="#FF003D" d="M134.4,175.2c-1.7-3.5-5.3-5.9-9.4-5.9c-4.1,0-7.7,2.4-9.4,5.8c0,0,0,0,0,0c-1.4,0-2.5,1.8-2.5,4
			c0,2.2,1.1,4,2.5,4s1.5-1.8,1.5-4c0-1.5-0.1-2.9-0.6-3.5c1.6-3.1,4.8-5.3,8.5-5.3c3.6,0,6.7,2,8.4,5c-0.8,0.5-0.9,2-0.9,3.9
			c0,2.2,0.1,4,1.5,4s2.5-1.8,2.5-4C136.4,177.2,135.6,175.6,134.4,175.2z"/>
	</g>
	<g>
		<g>
			<path fill="#FFFFFF" d="M134.9,108c-0.6,0.3-1.2,0.6-1.8,0.8c-2.3,0.9-4.3,1.7-3.6,4.8c0.2,0.9,0.5,1.8,0.8,2.8
				c1.1,3.7,2.4,8.2,1.6,13.6c1.6-0.4,3-1,4.2-1.8c-0.6-0.2-1.2-0.5-1.6-0.9c-0.9-0.9-1.3-2.3-1-3.9c0.2-1.4,0.9-2.8,1.8-3.7
				c0.4-0.4,0.7-0.6,1.1-0.7c2.1-4.7,1.3-6.7,0.7-8.5c-0.2-0.5-0.3-0.9-0.4-1.3c-0.2-0.8-0.3-1.7,0.3-2.1c0.2-0.1,0.3-0.1,0.5-0.1
				c-0.1-0.3-0.3-0.5-0.4-0.8C136.4,106.8,135.8,107.5,134.9,108z"/>
			<path fill="#FFFFFF" d="M136.6,120c-0.1,0-0.3,0.1-0.7,0.4c-0.7,0.7-1.3,1.9-1.5,3.1c-0.2,1.2,0.1,2.3,0.7,3
				c0.6,0.6,1.6,0.8,2.2,0.8c1.4,0,2.9-0.6,3.9-1.5c0.3-0.3,0.4-0.5,0.4-0.7c0-0.3-0.6-0.7-1.1-1.1c-0.5-0.4-1.1-0.8-1.6-1.3
				c-0.5-0.5-0.9-1.1-1.3-1.6C137.3,120.6,136.9,120,136.6,120z"/>
			<path fill="#FFFFFF" d="M138.6,120.6c0.3,0.5,0.7,1,1.2,1.4c0.5,0.5,1,0.8,1.4,1.2c0.1,0.1,0.2,0.1,0.2,0.2
				c0.5-1.8,0.8-3.7,0.8-5.8c0-5.5-1.9-8.5-4.6-9.9l-0.2,0.3c0,0.1,0,0.4,0.1,1c0.1,0.4,0.2,0.8,0.4,1.2c0.7,1.9,1.5,4.2-0.6,9.1
				C137.8,119.5,138.2,120,138.6,120.6z"/>
			<path fill="#FFFFFF" d="M129.3,116.8c-0.3-1-0.6-2-0.8-2.9c-0.9-4,1.9-5.2,4.2-6.1c0.6-0.2,1.2-0.5,1.7-0.7
				c0.9-0.5,1.4-1.2,1.8-2c-0.5-0.8-1.1-1.5-1.8-2.2c-1.8,2-4.4,3.3-7.3,3.3c-2,0-3.9-0.6-5.4-1.6c0.2,0.1,0.5,0.2,0.7,0.2
				c0,0,0.1,0,0.1,0c0.2,0.1,0.4,0.1,0.7,0.1c0.1,0,0.2,0,0.3,0c0.2,0,0.3,0.1,0.5,0.1c0.3,0,0.6,0,0.9,0c0.4,0,0.7,0,1.1-0.1
				c0.1,0,0.2,0,0.3,0c0.3,0,0.5-0.1,0.7-0.1c0.1,0,0.2-0.1,0.3-0.1c0.2-0.1,0.5-0.1,0.7-0.2c0.1,0,0.2-0.1,0.3-0.1
				c0.3-0.1,0.5-0.2,0.8-0.3c0.1,0,0.1-0.1,0.2-0.1c3.1-1.6,5.3-4.9,5.3-8.6c0-5.3-4.3-9.7-9.7-9.7s-9.7,4.3-9.7,9.7
				c0,2.2,0.7,4.2,2,5.9c-1.3,1-2.5,2.3-3.5,3.8c0.4,0.8,0.9,1.5,1.8,1.9c0.5,0.3,1.1,0.5,1.7,0.7c2.3,0.9,5.2,2,4.2,6.1
				c-0.2,0.9-0.5,1.9-0.8,2.9c-1.1,3.7-2.4,8.2-1.5,13.5c1.8,0.3,3.7,0.4,5.8,0.4s4-0.1,5.8-0.4C131.7,125,130.3,120.5,129.3,116.8z
				"/>
			<path fill="#FFFFFF" d="M119.7,116.5c0.3-1,0.6-2,0.8-2.8c0.7-3.1-1.3-3.9-3.6-4.8c-0.6-0.2-1.3-0.5-1.8-0.8
				c-0.9-0.5-1.5-1.1-1.9-1.9c-0.1,0.2-0.3,0.5-0.4,0.7c0.2,0,0.3,0,0.5,0.1c0.6,0.4,0.4,1.3,0.3,2.1c-0.1,0.5-0.3,0.9-0.4,1.3
				c-0.7,1.8-1.4,3.9,0.7,8.5c0.3,0.1,0.7,0.3,1.1,0.7c0.9,0.9,1.6,2.3,1.8,3.7c0.2,1.6-0.1,3-1,3.9c-0.4,0.4-1,0.7-1.6,0.9
				c1.2,0.9,2.6,1.5,4.2,1.8C117.3,124.7,118.6,120.2,119.7,116.5z"/>
			<path fill="#FFFFFF" d="M115.5,123.6c-0.2-1.2-0.7-2.4-1.5-3.1c-0.4-0.4-0.6-0.4-0.7-0.4c-0.3,0-0.7,0.6-1.1,1.1
				c-0.4,0.5-0.8,1.1-1.3,1.6s-1.1,0.9-1.6,1.3c-0.5,0.4-1.1,0.8-1.1,1.1c0,0.2,0.1,0.4,0.4,0.7c0.9,0.9,2.5,1.5,3.9,1.5
				c0.7,0,1.6-0.1,2.2-0.8C115.4,125.9,115.7,124.8,115.5,123.6z"/>
			<path fill="#FFFFFF" d="M112.4,108.9c0.1-0.6,0.1-0.9,0.1-1l-0.2-0.3c-2.7,1.5-4.6,4.4-4.6,10c0,2.1,0.3,4.1,0.8,5.8
				c0.1-0.1,0.2-0.1,0.2-0.2c0.5-0.3,1-0.7,1.4-1.2c0.5-0.5,0.8-1,1.2-1.4c0.4-0.6,0.8-1.1,1.2-1.4c-2.1-4.9-1.3-7.2-0.6-9.1
				C112.2,109.7,112.3,109.3,112.4,108.9z"/>
		</g>
		<path fill="#FF003D" d="M134.4,91.2c-1.7-3.5-5.3-5.9-9.4-5.9c-4.1,0-7.7,2.4-9.4,5.8c0,0,0,0,0,0c-1.4,0-2.5,1.8-2.5,4
			c0,2.2,1.1,4,2.5,4s1.5-1.8,1.5-4c0-1.5-0.1-2.9-0.6-3.5c1.6-3.1,4.8-5.3,8.5-5.3c3.6,0,6.7,2,8.4,5c-0.8,0.5-0.9,2-0.9,3.9
			c0,2.2,0.1,4,1.5,4s2.5-1.8,2.5-4C136.4,93.2,135.6,91.6,134.4,91.2z"/>
	</g>
	<g>
		<g>
			<path fill="#FFFFFF" d="M334.9,192c-0.6,0.3-1.2,0.6-1.8,0.8c-2.3,0.9-4.3,1.7-3.6,4.8c0.2,0.9,0.5,1.8,0.8,2.8
				c1.1,3.7,2.4,8.2,1.6,13.6c1.6-0.4,3-1,4.2-1.8c-0.6-0.2-1.2-0.5-1.6-0.9c-0.9-0.9-1.3-2.3-1-3.9c0.2-1.4,0.9-2.8,1.8-3.7
				c0.4-0.4,0.7-0.6,1.1-0.7c2.1-4.7,1.3-6.7,0.7-8.5c-0.2-0.5-0.3-0.9-0.4-1.3c-0.2-0.8-0.3-1.7,0.3-2.1c0.2-0.1,0.3-0.1,0.5-0.1
				c-0.1-0.3-0.3-0.5-0.4-0.8C336.4,190.8,335.8,191.5,334.9,192z"/>
			<path fill="#FFFFFF" d="M336.6,204c-0.1,0-0.3,0.1-0.7,0.4c-0.7,0.7-1.3,1.9-1.5,3.1c-0.2,1.2,0.1,2.3,0.7,3
				c0.6,0.6,1.6,0.8,2.2,0.8c1.4,0,2.9-0.6,3.9-1.5c0.3-0.3,0.4-0.5,0.4-0.7c0-0.3-0.6-0.7-1.1-1.1c-0.5-0.4-1.1-0.8-1.6-1.3
				c-0.5-0.5-0.9-1.1-1.3-1.6C337.3,204.6,336.9,204,336.6,204z"/>
			<path fill="#FFFFFF" d="M338.6,204.6c0.3,0.5,0.7,1,1.2,1.4c0.5,0.5,1,0.8,1.4,1.2c0.1,0.1,0.2,0.1,0.2,0.2
				c0.5-1.8,0.8-3.7,0.8-5.8c0-5.5-1.9-8.5-4.6-9.9l-0.2,0.3c0,0.1,0,0.4,0.1,1c0.1,0.4,0.2,0.8,0.4,1.2c0.7,1.9,1.5,4.2-0.6,9.1
				C337.8,203.5,338.2,204,338.6,204.6z"/>
			<path fill="#FFFFFF" d="M329.3,200.8c-0.3-1-0.6-2-0.8-2.9c-0.9-4,1.9-5.2,4.2-6.1c0.6-0.2,1.2-0.5,1.7-0.7
				c0.9-0.5,1.4-1.2,1.8-2c-0.5-0.8-1.1-1.5-1.8-2.2c-1.8,2-4.4,3.3-7.3,3.3c-2,0-3.9-0.6-5.4-1.6c0.2,0.1,0.5,0.2,0.7,0.2
				c0,0,0.1,0,0.1,0c0.2,0.1,0.4,0.1,0.7,0.1c0.1,0,0.2,0,0.3,0c0.2,0,0.3,0.1,0.5,0.1c0.3,0,0.6,0,0.9,0c0.4,0,0.7,0,1.1-0.1
				c0.1,0,0.2,0,0.3,0c0.3,0,0.5-0.1,0.7-0.1c0.1,0,0.2-0.1,0.3-0.1c0.2-0.1,0.5-0.1,0.7-0.2c0.1,0,0.2-0.1,0.3-0.1
				c0.3-0.1,0.5-0.2,0.8-0.3c0.1,0,0.1-0.1,0.2-0.1c3.1-1.6,5.3-4.9,5.3-8.6c0-5.3-4.3-9.7-9.7-9.7c-5.3,0-9.7,4.3-9.7,9.7
				c0,2.2,0.7,4.2,2,5.9c-1.3,1-2.5,2.3-3.5,3.8c0.4,0.8,0.9,1.5,1.8,1.9c0.5,0.3,1.1,0.5,1.7,0.7c2.3,0.9,5.2,2,4.2,6.1
				c-0.2,0.9-0.5,1.9-0.8,2.9c-1.1,3.7-2.4,8.2-1.5,13.5c1.8,0.3,3.7,0.4,5.8,0.4c2.1,0,4-0.1,5.8-0.4
				C331.7,209,330.3,204.5,329.3,200.8z"/>
			<path fill="#FFFFFF" d="M319.7,200.5c0.3-1,0.6-2,0.8-2.8c0.7-3.1-1.3-3.9-3.6-4.8c-0.6-0.2-1.3-0.5-1.8-0.8
				c-0.9-0.5-1.5-1.1-1.9-1.9c-0.1,0.2-0.3,0.5-0.4,0.7c0.2,0,0.3,0,0.5,0.1c0.6,0.4,0.4,1.3,0.3,2.1c-0.1,0.5-0.3,0.9-0.4,1.3
				c-0.7,1.8-1.4,3.9,0.7,8.5c0.3,0.1,0.7,0.3,1.1,0.7c0.9,0.9,1.6,2.3,1.8,3.7c0.2,1.6-0.1,3-1,3.9c-0.4,0.4-1,0.7-1.6,0.9
				c1.2,0.9,2.6,1.5,4.2,1.8C317.3,208.7,318.6,204.2,319.7,200.5z"/>
			<path fill="#FFFFFF" d="M315.5,207.6c-0.2-1.2-0.7-2.4-1.5-3.1c-0.4-0.4-0.6-0.4-0.7-0.4c-0.3,0-0.7,0.6-1.1,1.1
				c-0.4,0.5-0.8,1.1-1.3,1.6c-0.5,0.5-1.1,0.9-1.6,1.3c-0.5,0.4-1.1,0.8-1.1,1.1c0,0.2,0.1,0.4,0.4,0.7c0.9,0.9,2.5,1.5,3.9,1.5
				c0.6,0,1.6-0.1,2.2-0.8C315.4,209.9,315.7,208.8,315.5,207.6z"/>
			<path fill="#FFFFFF" d="M312.4,192.9c0.1-0.6,0.1-0.9,0.1-1l-0.2-0.3c-2.7,1.5-4.6,4.4-4.6,10c0,2.1,0.3,4.1,0.8,5.8
				c0.1-0.1,0.2-0.1,0.2-0.2c0.5-0.3,1-0.7,1.4-1.2c0.5-0.5,0.8-1,1.2-1.4c0.4-0.6,0.8-1.1,1.2-1.4c-2.1-4.9-1.3-7.2-0.6-9.1
				C312.2,193.7,312.3,193.3,312.4,192.9z"/>
		</g>
		<path fill="#FF003D" d="M334.4,175.2c-1.7-3.5-5.3-5.9-9.4-5.9c-4.1,0-7.7,2.4-9.4,5.8c0,0,0,0,0,0c-1.4,0-2.5,1.8-2.5,4
			c0,2.2,1.1,4,2.5,4s1.5-1.8,1.5-4c0-1.5-0.1-2.9-0.6-3.5c1.6-3.1,4.8-5.3,8.5-5.3c3.6,0,6.7,2,8.4,5c-0.8,0.5-0.9,2-0.9,3.9
			c0,2.2,0.1,4,1.5,4s2.5-1.8,2.5-4C336.4,177.2,335.6,175.6,334.4,175.2z"/>
	</g>
	<g>
		<g>
			<path fill="#FFFFFF" d="M334.9,108c-0.6,0.3-1.2,0.6-1.8,0.8c-2.3,0.9-4.3,1.7-3.6,4.8c0.2,0.9,0.5,1.8,0.8,2.8
				c1.1,3.7,2.4,8.2,1.6,13.6c1.6-0.4,3-1,4.2-1.8c-0.6-0.2-1.2-0.5-1.6-0.9c-0.9-0.9-1.3-2.3-1-3.9c0.2-1.4,0.9-2.8,1.8-3.7
				c0.4-0.4,0.7-0.6,1.1-0.7c2.1-4.7,1.3-6.7,0.7-8.5c-0.2-0.5-0.3-0.9-0.4-1.3c-0.2-0.8-0.3-1.7,0.3-2.1c0.2-0.1,0.3-0.1,0.5-0.1
				c-0.1-0.3-0.3-0.5-0.4-0.8C336.4,106.8,335.8,107.5,334.9,108z"/>
			<path fill="#FFFFFF" d="M336.6,120c-0.1,0-0.3,0.1-0.7,0.4c-0.7,0.7-1.3,1.9-1.5,3.1c-0.2,1.2,0.1,2.3,0.7,3
				c0.6,0.6,1.6,0.8,2.2,0.8c1.4,0,2.9-0.6,3.9-1.5c0.3-0.3,0.4-0.5,0.4-0.7c0-0.3-0.6-0.7-1.1-1.1c-0.5-0.4-1.1-0.8-1.6-1.3
				s-0.9-1.1-1.3-1.6C337.3,120.6,336.9,120,336.6,120z"/>
			<path fill="#FFFFFF" d="M338.6,120.6c0.3,0.5,0.7,1,1.2,1.4c0.5,0.5,1,0.8,1.4,1.2c0.1,0.1,0.2,0.1,0.2,0.2
				c0.5-1.8,0.8-3.7,0.8-5.8c0-5.5-1.9-8.5-4.6-9.9l-0.2,0.3c0,0.1,0,0.4,0.1,1c0.1,0.4,0.2,0.8,0.4,1.2c0.7,1.9,1.5,4.2-0.6,9.1
				C337.8,119.5,338.2,120,338.6,120.6z"/>
			<path fill="#FFFFFF" d="M329.3,116.8c-0.3-1-0.6-2-0.8-2.9c-0.9-4,1.9-5.2,4.2-6.1c0.6-0.2,1.2-0.5,1.7-0.7
				c0.9-0.5,1.4-1.2,1.8-2c-0.5-0.8-1.1-1.5-1.8-2.2c-1.8,2-4.4,3.3-7.3,3.3c-2,0-3.9-0.6-5.4-1.6c0.2,0.1,0.5,0.2,0.7,0.2
				c0,0,0.1,0,0.1,0c0.2,0.1,0.4,0.1,0.7,0.1c0.1,0,0.2,0,0.3,0c0.2,0,0.3,0.1,0.5,0.1c0.3,0,0.6,0,0.9,0c0.4,0,0.7,0,1.1-0.1
				c0.1,0,0.2,0,0.3,0c0.3,0,0.5-0.1,0.7-0.1c0.1,0,0.2-0.1,0.3-0.1c0.2-0.1,0.5-0.1,0.7-0.2c0.1,0,0.2-0.1,0.3-0.1
				c0.3-0.1,0.5-0.2,0.8-0.3c0.1,0,0.1-0.1,0.2-0.1c3.1-1.6,5.3-4.9,5.3-8.6c0-5.3-4.3-9.7-9.7-9.7c-5.3,0-9.7,4.3-9.7,9.7
				c0,2.2,0.7,4.2,2,5.9c-1.3,1-2.5,2.3-3.5,3.8c0.4,0.8,0.9,1.5,1.8,1.9c0.5,0.3,1.1,0.5,1.7,0.7c2.3,0.9,5.2,2,4.2,6.1
				c-0.2,0.9-0.5,1.9-0.8,2.9c-1.1,3.7-2.4,8.2-1.5,13.5c1.8,0.3,3.7,0.4,5.8,0.4c2.1,0,4-0.1,5.8-0.4
				C331.7,125,330.3,120.5,329.3,116.8z"/>
			<path fill="#FFFFFF" d="M319.7,116.5c0.3-1,0.6-2,0.8-2.8c0.7-3.1-1.3-3.9-3.6-4.8c-0.6-0.2-1.3-0.5-1.8-0.8
				c-0.9-0.5-1.5-1.1-1.9-1.9c-0.1,0.2-0.3,0.5-0.4,0.7c0.2,0,0.3,0,0.5,0.1c0.6,0.4,0.4,1.3,0.3,2.1c-0.1,0.5-0.3,0.9-0.4,1.3
				c-0.7,1.8-1.4,3.9,0.7,8.5c0.3,0.1,0.7,0.3,1.1,0.7c0.9,0.9,1.6,2.3,1.8,3.7c0.2,1.6-0.1,3-1,3.9c-0.4,0.4-1,0.7-1.6,0.9
				c1.2,0.9,2.6,1.5,4.2,1.8C317.3,124.7,318.6,120.2,319.7,116.5z"/>
			<path fill="#FFFFFF" d="M315.5,123.6c-0.2-1.2-0.7-2.4-1.5-3.1c-0.4-0.4-0.6-0.4-0.7-0.4c-0.3,0-0.7,0.6-1.1,1.1
				c-0.4,0.5-0.8,1.1-1.3,1.6c-0.5,0.5-1.1,0.9-1.6,1.3c-0.5,0.4-1.1,0.8-1.1,1.1c0,0.2,0.1,0.4,0.4,0.7c0.9,0.9,2.5,1.5,3.9,1.5
				c0.6,0,1.6-0.1,2.2-0.8C315.4,125.9,315.7,124.8,315.5,123.6z"/>
			<path fill="#FFFFFF" d="M312.4,108.9c0.1-0.6,0.1-0.9,0.1-1l-0.2-0.3c-2.7,1.5-4.6,4.4-4.6,10c0,2.1,0.3,4.1,0.8,5.8
				c0.1-0.1,0.2-0.1,0.2-0.2c0.5-0.3,1-0.7,1.4-1.2c0.5-0.5,0.8-1,1.2-1.4c0.4-0.6,0.8-1.1,1.2-1.4c-2.1-4.9-1.3-7.2-0.6-9.1
				C312.2,109.7,312.3,109.3,312.4,108.9z"/>
		</g>
		<path fill="#FF003D" d="M334.4,91.2c-1.7-3.5-5.3-5.9-9.4-5.9c-4.1,0-7.7,2.4-9.4,5.8c0,0,0,0,0,0c-1.4,0-2.5,1.8-2.5,4
			c0,2.2,1.1,4,2.5,4s1.5-1.8,1.5-4c0-1.5-0.1-2.9-0.6-3.5c1.6-3.1,4.8-5.3,8.5-5.3c3.6,0,6.7,2,8.4,5c-0.8,0.5-0.9,2-0.9,3.9
			c0,2.2,0.1,4,1.5,4s2.5-1.8,2.5-4C336.4,93.2,335.6,91.6,334.4,91.2z"/>
	</g>
</g>
</svg>
