<?xml version="1.0" encoding="utf-8"?>
<!-- Generator: Adobe Illustrator 18.1.0, SVG Export Plug-In . SVG Version: 6.00 Build 0)  -->
<!DOCTYPE svg PUBLIC "-//W3C//DTD SVG 1.1//EN" "http://www.w3.org/Graphics/SVG/1.1/DTD/svg11.dtd">
<svg version="1.1" id="Layer_1" xmlns="http://www.w3.org/2000/svg" xmlns:xlink="http://www.w3.org/1999/xlink" x="0px" y="0px"
	 viewBox="0 0 450 300" enable-background="new 0 0 450 300" xml:space="preserve">
<circle opacity="0.5" fill="#FF003D" cx="256.4" cy="119.7" r="90"/>
<circle opacity="0.5" fill="#FF003D" cx="256.4" cy="119.7" r="40"/>
<circle opacity="0.5" fill="#FF003D" cx="256.4" cy="119.7" r="70"/>
<g>
	<g>
		<path fill="#FFFFFF" d="M77.9,60.1c-0.6,0.3-1.2,0.6-1.8,0.8c-2.3,0.9-4.3,1.7-3.6,4.8c0.2,0.9,0.5,1.8,0.8,2.8
			c1.1,3.7,2.4,8.2,1.6,13.6c1.6-0.4,3-1,4.2-1.8c-0.6-0.2-1.2-0.5-1.6-0.9c-0.9-0.9-1.3-2.3-1-3.9c0.2-1.4,0.9-2.8,1.8-3.7
			c0.4-0.4,0.7-0.6,1.1-0.7c2.1-4.7,1.3-6.7,0.7-8.5c-0.2-0.5-0.3-0.9-0.4-1.3c-0.2-0.8-0.3-1.7,0.3-2.1c0.2-0.1,0.3-0.1,0.5-0.1
			c-0.1-0.3-0.3-0.5-0.4-0.8C79.4,59,78.8,59.7,77.9,60.1z"/>
		<path fill="#FFFFFF" d="M79.6,72.2c-0.1,0-0.3,0.1-0.7,0.4c-0.7,0.7-1.3,1.9-1.5,3.1c-0.2,1.2,0.1,2.3,0.7,3
			c0.6,0.6,1.6,0.8,2.2,0.8c1.4,0,2.9-0.6,3.9-1.5c0.3-0.3,0.4-0.5,0.4-0.7c0-0.3-0.6-0.7-1.1-1.1c-0.5-0.4-1.1-0.8-1.6-1.3
			s-0.9-1.1-1.3-1.6C80.3,72.8,79.9,72.2,79.6,72.2z"/>
		<path fill="#FFFFFF" d="M81.6,72.7c0.3,0.5,0.7,1,1.2,1.4c0.5,0.5,1,0.8,1.4,1.2c0.1,0.1,0.2,0.1,0.2,0.2c0.5-1.8,0.8-3.7,0.8-5.8
			c0-5.5-1.9-8.5-4.6-9.9L80.4,60c0,0.1,0,0.4,0.1,1c0.1,0.4,0.2,0.8,0.4,1.2c0.7,1.9,1.5,4.2-0.6,9.1
			C80.8,71.6,81.2,72.1,81.6,72.7z"/>
		<path fill="#FFFFFF" d="M72.3,68.9c-0.3-1-0.6-2-0.8-2.9c-0.9-4,1.9-5.2,4.2-6.1c0.6-0.2,1.2-0.5,1.7-0.7c0.9-0.5,1.4-1.2,1.8-2
			c-0.5-0.8-1.1-1.5-1.8-2.2c-1.8,2-4.4,3.3-7.3,3.3c-2,0-3.9-0.6-5.4-1.6c0.2,0.1,0.5,0.2,0.7,0.2c0,0,0.1,0,0.1,0
			c0.2,0.1,0.4,0.1,0.7,0.1c0.1,0,0.2,0,0.3,0c0.2,0,0.3,0.1,0.5,0.1c0.3,0,0.6,0,0.9,0c0.4,0,0.7,0,1.1-0.1c0.1,0,0.2,0,0.3,0
			c0.3,0,0.5-0.1,0.7-0.1c0.1,0,0.2-0.1,0.3-0.1c0.2-0.1,0.5-0.1,0.7-0.2c0.1,0,0.2-0.1,0.3-0.1c0.3-0.1,0.5-0.2,0.8-0.3
			c0.1,0,0.1-0.1,0.2-0.1c3.1-1.6,5.3-4.9,5.3-8.6c0-5.3-4.3-9.7-9.7-9.7s-9.7,4.3-9.7,9.7c0,2.2,0.7,4.2,2,5.9
			c-1.3,1-2.5,2.3-3.5,3.8c0.4,0.8,0.9,1.5,1.8,1.9c0.5,0.3,1.1,0.5,1.7,0.7c2.3,0.9,5.2,2,4.2,6.1c-0.2,0.9-0.5,1.9-0.8,2.9
			c-1.1,3.7-2.4,8.2-1.5,13.5c1.8,0.3,3.7,0.4,5.8,0.4s4-0.1,5.8-0.4C74.7,77.1,73.3,72.6,72.3,68.9z"/>
		<path fill="#FFFFFF" d="M62.7,68.6c0.3-1,0.6-2,0.8-2.8c0.7-3.1-1.3-3.9-3.6-4.8c-0.6-0.2-1.3-0.5-1.8-0.8
			c-0.9-0.5-1.5-1.1-1.9-1.9c-0.1,0.2-0.3,0.5-0.4,0.7c0.2,0,0.3,0,0.5,0.1c0.6,0.4,0.4,1.3,0.3,2.1c-0.1,0.5-0.3,0.9-0.4,1.3
			c-0.7,1.8-1.4,3.9,0.7,8.5c0.3,0.1,0.7,0.3,1.1,0.7c0.9,0.9,1.6,2.3,1.8,3.7c0.2,1.6-0.1,3-1,3.9c-0.4,0.4-1,0.7-1.6,0.9
			c1.2,0.9,2.6,1.5,4.2,1.8C60.3,76.8,61.6,72.3,62.7,68.6z"/>
		<path fill="#FFFFFF" d="M58.5,75.7c-0.2-1.2-0.7-2.4-1.5-3.1c-0.4-0.4-0.6-0.4-0.7-0.4c-0.3,0-0.7,0.6-1.1,1.1
			c-0.4,0.5-0.8,1.1-1.3,1.6s-1.1,0.9-1.6,1.3c-0.5,0.4-1.1,0.8-1.1,1.1c0,0.2,0.1,0.4,0.4,0.7c0.9,0.9,2.5,1.5,3.9,1.5
			c0.7,0,1.6-0.1,2.2-0.8C58.4,78.1,58.7,77,58.5,75.7z"/>
		<path fill="#FFFFFF" d="M55.4,61c0.1-0.6,0.1-0.9,0.1-1l-0.2-0.3c-2.7,1.5-4.6,4.4-4.6,10c0,2.1,0.3,4.1,0.8,5.8
			c0.1-0.1,0.2-0.1,0.2-0.2c0.5-0.3,1-0.7,1.4-1.2c0.5-0.5,0.8-1,1.2-1.4c0.4-0.6,0.8-1.1,1.2-1.4c-2.1-4.9-1.3-7.2-0.6-9.1
			C55.2,61.8,55.3,61.4,55.4,61z"/>
	</g>
</g>
<g>
	<g>
		<path fill="#FFFFFF" d="M140.7,60.1c-0.6,0.3-1.2,0.6-1.8,0.8c-2.3,0.9-4.3,1.7-3.6,4.8c0.2,0.9,0.5,1.8,0.8,2.8
			c1.1,3.7,2.4,8.2,1.6,13.6c1.6-0.4,3-1,4.2-1.8c-0.6-0.2-1.2-0.5-1.6-0.9c-0.9-0.9-1.3-2.3-1-3.9c0.2-1.4,0.9-2.8,1.8-3.7
			c0.4-0.4,0.7-0.6,1.1-0.7c2.1-4.7,1.3-6.7,0.7-8.5c-0.2-0.5-0.3-0.9-0.4-1.3c-0.2-0.8-0.3-1.7,0.3-2.1c0.2-0.1,0.3-0.1,0.5-0.1
			c-0.1-0.3-0.3-0.5-0.4-0.8C142.2,59,141.6,59.7,140.7,60.1z"/>
		<path fill="#FFFFFF" d="M142.4,72.2c-0.1,0-0.3,0.1-0.7,0.4c-0.7,0.7-1.3,1.9-1.5,3.1c-0.2,1.2,0.1,2.3,0.7,3
			c0.6,0.6,1.6,0.8,2.2,0.8c1.4,0,2.9-0.6,3.9-1.5c0.3-0.3,0.4-0.5,0.4-0.7c0-0.3-0.6-0.7-1.1-1.1c-0.5-0.4-1.1-0.8-1.6-1.3
			c-0.5-0.5-0.9-1.1-1.3-1.6C143.1,72.8,142.7,72.2,142.4,72.2z"/>
		<path fill="#FFFFFF" d="M144.4,72.7c0.3,0.5,0.7,1,1.2,1.4c0.5,0.5,1,0.8,1.4,1.2c0.1,0.1,0.2,0.1,0.2,0.2
			c0.5-1.8,0.8-3.7,0.8-5.8c0-5.5-1.9-8.5-4.6-9.9l-0.2,0.3c0,0.1,0,0.4,0.1,1c0.1,0.4,0.2,0.8,0.4,1.2c0.7,1.9,1.5,4.2-0.6,9.1
			C143.6,71.6,144,72.1,144.4,72.7z"/>
		<path fill="#FFFFFF" d="M135.1,68.9c-0.3-1-0.6-2-0.8-2.9c-0.9-4,1.9-5.2,4.2-6.1c0.6-0.2,1.2-0.5,1.7-0.7c0.9-0.5,1.4-1.2,1.8-2
			c-0.5-0.8-1.1-1.5-1.8-2.2c-1.8,2-4.4,3.3-7.3,3.3c-2,0-3.9-0.6-5.4-1.6c0.2,0.1,0.5,0.2,0.7,0.2c0,0,0.1,0,0.1,0
			c0.2,0.1,0.4,0.1,0.7,0.1c0.1,0,0.2,0,0.3,0c0.2,0,0.3,0.1,0.5,0.1c0.3,0,0.6,0,0.9,0c0.4,0,0.7,0,1.1-0.1c0.1,0,0.2,0,0.3,0
			c0.3,0,0.5-0.1,0.7-0.1c0.1,0,0.2-0.1,0.3-0.1c0.2-0.1,0.5-0.1,0.7-0.2c0.1,0,0.2-0.1,0.3-0.1c0.3-0.1,0.5-0.2,0.8-0.3
			c0.1,0,0.1-0.1,0.2-0.1c3.1-1.6,5.3-4.9,5.3-8.6c0-5.3-4.3-9.7-9.7-9.7s-9.7,4.3-9.7,9.7c0,2.2,0.7,4.2,2,5.9
			c-1.3,1-2.5,2.3-3.5,3.8c0.4,0.8,0.9,1.5,1.8,1.9c0.5,0.3,1.1,0.5,1.7,0.7c2.3,0.9,5.2,2,4.2,6.1c-0.2,0.9-0.5,1.9-0.8,2.9
			c-1.1,3.7-2.4,8.2-1.5,13.5c1.8,0.3,3.7,0.4,5.8,0.4s4-0.1,5.8-0.4C137.5,77.1,136.1,72.6,135.1,68.9z"/>
		<path fill="#FFFFFF" d="M125.5,68.6c0.3-1,0.6-2,0.8-2.8c0.7-3.1-1.3-3.9-3.6-4.8c-0.6-0.2-1.3-0.5-1.8-0.8
			c-0.9-0.5-1.5-1.1-1.9-1.9c-0.1,0.2-0.3,0.5-0.4,0.7c0.2,0,0.3,0,0.5,0.1c0.6,0.4,0.4,1.3,0.3,2.1c-0.1,0.5-0.3,0.9-0.4,1.3
			c-0.7,1.8-1.4,3.9,0.7,8.5c0.3,0.1,0.7,0.3,1.1,0.7c0.9,0.9,1.6,2.3,1.8,3.7c0.2,1.6-0.1,3-1,3.9c-0.4,0.4-1,0.7-1.6,0.9
			c1.2,0.9,2.6,1.5,4.2,1.8C123.1,76.8,124.4,72.3,125.5,68.6z"/>
		<path fill="#FFFFFF" d="M121.3,75.7c-0.2-1.2-0.7-2.4-1.5-3.1c-0.4-0.4-0.6-0.4-0.7-0.4c-0.3,0-0.7,0.6-1.1,1.1
			c-0.4,0.5-0.8,1.1-1.3,1.6s-1.1,0.9-1.6,1.3c-0.5,0.4-1.1,0.8-1.1,1.1c0,0.2,0.1,0.4,0.4,0.7c0.9,0.9,2.5,1.5,3.9,1.5
			c0.7,0,1.6-0.1,2.2-0.8C121.2,78.1,121.5,77,121.3,75.7z"/>
		<path fill="#FFFFFF" d="M118.2,61c0.1-0.6,0.1-0.9,0.1-1l-0.2-0.3c-2.7,1.5-4.6,4.4-4.6,10c0,2.1,0.3,4.1,0.8,5.8
			c0.1-0.1,0.2-0.1,0.2-0.2c0.5-0.3,1-0.7,1.4-1.2c0.5-0.5,0.8-1,1.2-1.4c0.4-0.6,0.8-1.1,1.2-1.4c-2.1-4.9-1.3-7.2-0.6-9.1
			C118,61.8,118.1,61.4,118.2,61z"/>
	</g>
</g>
<g>
	<g>
		<path fill="#FFFFFF" d="M203.5,60.1c-0.6,0.3-1.2,0.6-1.8,0.8c-2.3,0.9-4.3,1.7-3.6,4.8c0.2,0.9,0.5,1.8,0.8,2.8
			c1.1,3.7,2.4,8.2,1.6,13.6c1.6-0.4,3-1,4.2-1.8c-0.6-0.2-1.2-0.5-1.6-0.9c-0.9-0.9-1.3-2.3-1-3.9c0.2-1.4,0.9-2.8,1.8-3.7
			c0.4-0.4,0.7-0.6,1.1-0.7c2.1-4.7,1.3-6.7,0.7-8.5c-0.2-0.5-0.3-0.9-0.4-1.3c-0.2-0.8-0.3-1.7,0.3-2.1c0.2-0.1,0.3-0.1,0.5-0.1
			c-0.1-0.3-0.3-0.5-0.4-0.8C205,59,204.4,59.7,203.5,60.1z"/>
		<path fill="#FFFFFF" d="M205.2,72.2c-0.1,0-0.3,0.1-0.7,0.4c-0.7,0.7-1.3,1.9-1.5,3.1c-0.2,1.2,0.1,2.3,0.7,3
			c0.6,0.6,1.6,0.8,2.2,0.8c1.4,0,2.9-0.6,3.9-1.5c0.3-0.3,0.4-0.5,0.4-0.7c0-0.3-0.6-0.7-1.1-1.1c-0.5-0.4-1.1-0.8-1.6-1.3
			c-0.5-0.5-0.9-1.1-1.3-1.6C205.9,72.8,205.5,72.2,205.2,72.2z"/>
		<path fill="#FFFFFF" d="M207.2,72.7c0.3,0.5,0.7,1,1.2,1.4c0.5,0.5,1,0.8,1.4,1.2c0.1,0.1,0.2,0.1,0.2,0.2
			c0.5-1.8,0.8-3.7,0.8-5.8c0-5.5-1.9-8.5-4.6-9.9L206,60c0,0.1,0,0.4,0.1,1c0.1,0.4,0.2,0.8,0.4,1.2c0.7,1.9,1.5,4.2-0.6,9.1
			C206.4,71.6,206.8,72.1,207.2,72.7z"/>
		<path fill="#FFFFFF" d="M197.9,68.9c-0.3-1-0.6-2-0.8-2.9c-0.9-4,1.9-5.2,4.2-6.1c0.6-0.2,1.2-0.5,1.7-0.7c0.9-0.5,1.4-1.2,1.8-2
			c-0.5-0.8-1.1-1.5-1.8-2.2c-1.8,2-4.4,3.3-7.3,3.3c-2,0-3.9-0.6-5.4-1.6c0.2,0.1,0.5,0.2,0.7,0.2c0,0,0.1,0,0.1,0
			c0.2,0.1,0.4,0.1,0.7,0.1c0.1,0,0.2,0,0.3,0c0.2,0,0.3,0.1,0.5,0.1c0.3,0,0.6,0,0.9,0c0.4,0,0.7,0,1.1-0.1c0.1,0,0.2,0,0.3,0
			c0.3,0,0.5-0.1,0.7-0.1c0.1,0,0.2-0.1,0.3-0.1c0.2-0.1,0.5-0.1,0.7-0.2c0.1,0,0.2-0.1,0.3-0.1c0.3-0.1,0.5-0.2,0.8-0.3
			c0.1,0,0.1-0.1,0.2-0.1c3.1-1.6,5.3-4.9,5.3-8.6c0-5.3-4.3-9.7-9.7-9.7c-5.3,0-9.7,4.3-9.7,9.7c0,2.2,0.7,4.2,2,5.9
			c-1.3,1-2.5,2.3-3.5,3.8c0.4,0.8,0.9,1.5,1.8,1.9c0.5,0.3,1.1,0.5,1.7,0.7c2.3,0.9,5.2,2,4.2,6.1c-0.2,0.9-0.5,1.9-0.8,2.9
			c-1.1,3.7-2.4,8.2-1.5,13.5c1.8,0.3,3.7,0.4,5.8,0.4c2.1,0,4-0.1,5.8-0.4C200.3,77.1,198.9,72.6,197.9,68.9z"/>
		<path fill="#FFFFFF" d="M188.3,68.6c0.3-1,0.6-2,0.8-2.8c0.7-3.1-1.3-3.9-3.6-4.8c-0.6-0.2-1.3-0.5-1.8-0.8
			c-0.9-0.5-1.5-1.1-1.9-1.9c-0.1,0.2-0.3,0.5-0.4,0.7c0.2,0,0.3,0,0.5,0.1c0.6,0.4,0.4,1.3,0.3,2.1c-0.1,0.5-0.3,0.9-0.4,1.3
			c-0.7,1.8-1.4,3.9,0.7,8.5c0.3,0.1,0.7,0.3,1.1,0.7c0.9,0.9,1.6,2.3,1.8,3.7c0.2,1.6-0.1,3-1,3.9c-0.4,0.4-1,0.7-1.6,0.9
			c1.2,0.9,2.6,1.5,4.2,1.8C185.9,76.8,187.2,72.3,188.3,68.6z"/>
		<path fill="#FFFFFF" d="M184.1,75.7c-0.2-1.2-0.7-2.4-1.5-3.1c-0.4-0.4-0.6-0.4-0.7-0.4c-0.3,0-0.7,0.6-1.1,1.1
			c-0.4,0.5-0.8,1.1-1.3,1.6c-0.5,0.5-1.1,0.9-1.6,1.3c-0.5,0.4-1.1,0.8-1.1,1.1c0,0.2,0.1,0.4,0.4,0.7c0.9,0.9,2.5,1.5,3.9,1.5
			c0.7,0,1.6-0.1,2.2-0.8C184,78.1,184.3,77,184.1,75.7z"/>
		<path fill="#FFFFFF" d="M181,61c0.1-0.6,0.1-0.9,0.1-1l-0.2-0.3c-2.7,1.5-4.6,4.4-4.6,10c0,2.1,0.3,4.1,0.8,5.8
			c0.1-0.1,0.2-0.1,0.2-0.2c0.5-0.3,1-0.7,1.4-1.2c0.5-0.5,0.8-1,1.2-1.4c0.4-0.6,0.8-1.1,1.2-1.4c-2.1-4.9-1.3-7.2-0.6-9.1
			C180.8,61.8,180.9,61.4,181,61z"/>
	</g>
</g>
<g>
	<g>
		<path fill="#FFFFFF" d="M266.3,60.1c-0.6,0.3-1.2,0.6-1.8,0.8c-2.3,0.9-4.3,1.7-3.6,4.8c0.2,0.9,0.5,1.8,0.8,2.8
			c1.1,3.7,2.4,8.2,1.6,13.6c1.6-0.4,3-1,4.2-1.8c-0.6-0.2-1.2-0.5-1.6-0.9c-0.9-0.9-1.3-2.3-1-3.9c0.2-1.4,0.9-2.8,1.8-3.7
			c0.4-0.4,0.7-0.6,1.1-0.7c2.1-4.7,1.3-6.7,0.7-8.5c-0.2-0.5-0.3-0.9-0.4-1.3c-0.2-0.8-0.3-1.7,0.3-2.1c0.2-0.1,0.3-0.1,0.5-0.1
			c-0.1-0.3-0.3-0.5-0.4-0.8C267.8,59,267.2,59.7,266.3,60.1z"/>
		<path fill="#FFFFFF" d="M268,72.2c-0.1,0-0.3,0.1-0.7,0.4c-0.7,0.7-1.3,1.9-1.5,3.1c-0.2,1.2,0.1,2.3,0.7,3
			c0.6,0.6,1.6,0.8,2.2,0.8c1.4,0,2.9-0.6,3.9-1.5c0.3-0.3,0.4-0.5,0.4-0.7c0-0.3-0.6-0.7-1.1-1.1c-0.5-0.4-1.1-0.8-1.6-1.3
			c-0.5-0.5-0.9-1.1-1.3-1.6C268.7,72.8,268.3,72.2,268,72.2z"/>
		<path fill="#FFFFFF" d="M270,72.7c0.3,0.5,0.7,1,1.2,1.4c0.5,0.5,1,0.8,1.4,1.2c0.1,0.1,0.2,0.1,0.2,0.2c0.5-1.8,0.8-3.7,0.8-5.8
			c0-5.5-1.9-8.5-4.6-9.9l-0.2,0.3c0,0.1,0,0.4,0.1,1c0.1,0.4,0.2,0.8,0.4,1.2c0.7,1.9,1.5,4.2-0.6,9.1
			C269.2,71.6,269.6,72.1,270,72.7z"/>
		<path fill="#FFFFFF" d="M260.7,68.9c-0.3-1-0.6-2-0.8-2.9c-0.9-4,1.9-5.2,4.2-6.1c0.6-0.2,1.2-0.5,1.7-0.7c0.9-0.5,1.4-1.2,1.8-2
			c-0.5-0.8-1.1-1.5-1.8-2.2c-1.8,2-4.4,3.3-7.3,3.3c-2,0-3.9-0.6-5.4-1.6c0.2,0.1,0.5,0.2,0.7,0.2c0,0,0.1,0,0.1,0
			c0.2,0.1,0.4,0.1,0.7,0.1c0.1,0,0.2,0,0.3,0c0.2,0,0.3,0.1,0.5,0.1c0.3,0,0.6,0,0.9,0c0.4,0,0.7,0,1.1-0.1c0.1,0,0.2,0,0.3,0
			c0.3,0,0.5-0.1,0.7-0.1c0.1,0,0.2-0.1,0.3-0.1c0.2-0.1,0.5-0.1,0.7-0.2c0.1,0,0.2-0.1,0.3-0.1c0.3-0.1,0.5-0.2,0.8-0.3
			c0.1,0,0.1-0.1,0.2-0.1c3.1-1.6,5.3-4.9,5.3-8.6c0-5.3-4.3-9.7-9.7-9.7c-5.3,0-9.7,4.3-9.7,9.7c0,2.2,0.7,4.2,2,5.9
			c-1.3,1-2.5,2.3-3.5,3.8c0.4,0.8,0.9,1.5,1.8,1.9c0.5,0.3,1.1,0.5,1.7,0.7c2.3,0.9,5.2,2,4.2,6.1c-0.2,0.9-0.5,1.9-0.8,2.9
			c-1.1,3.7-2.4,8.2-1.5,13.5c1.8,0.3,3.7,0.4,5.8,0.4c2.1,0,4-0.1,5.8-0.4C263.1,77.1,261.7,72.6,260.7,68.9z"/>
		<path fill="#FFFFFF" d="M251.1,68.6c0.3-1,0.6-2,0.8-2.8c0.7-3.1-1.3-3.9-3.6-4.8c-0.6-0.2-1.3-0.5-1.8-0.8
			c-0.9-0.5-1.5-1.1-1.9-1.9c-0.1,0.2-0.3,0.5-0.4,0.7c0.2,0,0.3,0,0.5,0.1c0.6,0.4,0.4,1.3,0.3,2.1c-0.1,0.5-0.3,0.9-0.4,1.3
			c-0.7,1.8-1.4,3.9,0.7,8.5c0.3,0.1,0.7,0.3,1.1,0.7c0.9,0.9,1.6,2.3,1.8,3.7c0.2,1.6-0.1,3-1,3.9c-0.4,0.4-1,0.7-1.6,0.9
			c1.2,0.9,2.6,1.5,4.2,1.8C248.7,76.8,250,72.3,251.1,68.6z"/>
		<path fill="#FFFFFF" d="M246.9,75.7c-0.2-1.2-0.7-2.4-1.5-3.1c-0.4-0.4-0.6-0.4-0.7-0.4c-0.3,0-0.7,0.6-1.1,1.1
			c-0.4,0.5-0.8,1.1-1.3,1.6c-0.5,0.5-1.1,0.9-1.6,1.3c-0.5,0.4-1.1,0.8-1.1,1.1c0,0.2,0.1,0.4,0.4,0.7c0.9,0.9,2.5,1.5,3.9,1.5
			c0.7,0,1.6-0.1,2.2-0.8C246.8,78.1,247.1,77,246.9,75.7z"/>
		<path fill="#FFFFFF" d="M243.8,61c0.1-0.6,0.1-0.9,0.1-1l-0.2-0.3c-2.7,1.5-4.6,4.4-4.6,10c0,2.1,0.3,4.1,0.8,5.8
			c0.1-0.1,0.2-0.1,0.2-0.2c0.5-0.3,1-0.7,1.4-1.2c0.5-0.5,0.8-1,1.2-1.4c0.4-0.6,0.8-1.1,1.2-1.4c-2.1-4.9-1.3-7.2-0.6-9.1
			C243.6,61.8,243.7,61.4,243.8,61z"/>
	</g>
</g>
<g>
	<g>
		<path fill="#FFFFFF" d="M329.1,60.1c-0.6,0.3-1.2,0.6-1.8,0.8c-2.3,0.9-4.3,1.7-3.6,4.8c0.2,0.9,0.5,1.8,0.8,2.8
			c1.1,3.7,2.4,8.2,1.6,13.6c1.6-0.4,3-1,4.2-1.8c-0.6-0.2-1.2-0.5-1.6-0.9c-0.9-0.9-1.3-2.3-1-3.9c0.2-1.4,0.9-2.8,1.8-3.7
			c0.4-0.4,0.7-0.6,1.1-0.7c2.1-4.7,1.3-6.7,0.7-8.5c-0.2-0.5-0.3-0.9-0.4-1.3c-0.2-0.8-0.3-1.7,0.3-2.1c0.2-0.1,0.3-0.1,0.5-0.1
			c-0.1-0.3-0.3-0.5-0.4-0.8C330.6,59,330,59.7,329.1,60.1z"/>
		<path fill="#FFFFFF" d="M330.8,72.2c-0.1,0-0.3,0.1-0.7,0.4c-0.7,0.7-1.3,1.9-1.5,3.1c-0.2,1.2,0.1,2.3,0.7,3
			c0.6,0.6,1.6,0.8,2.2,0.8c1.4,0,2.9-0.6,3.9-1.5c0.3-0.3,0.4-0.5,0.4-0.7c0-0.3-0.6-0.7-1.1-1.1c-0.5-0.4-1.1-0.8-1.6-1.3
			s-0.9-1.1-1.3-1.6C331.5,72.8,331.1,72.2,330.8,72.2z"/>
		<path fill="#FFFFFF" d="M332.8,72.7c0.3,0.5,0.7,1,1.2,1.4c0.5,0.5,1,0.8,1.4,1.2c0.1,0.1,0.2,0.1,0.2,0.2
			c0.5-1.8,0.8-3.7,0.8-5.8c0-5.5-1.9-8.5-4.6-9.9l-0.2,0.3c0,0.1,0,0.4,0.1,1c0.1,0.4,0.2,0.8,0.4,1.2c0.7,1.9,1.5,4.2-0.6,9.1
			C332,71.6,332.4,72.1,332.8,72.7z"/>
		<path fill="#FFFFFF" d="M323.5,68.9c-0.3-1-0.6-2-0.8-2.9c-0.9-4,1.9-5.2,4.2-6.1c0.6-0.2,1.2-0.5,1.7-0.7c0.9-0.5,1.4-1.2,1.8-2
			c-0.5-0.8-1.1-1.5-1.8-2.2c-1.8,2-4.4,3.3-7.3,3.3c-2,0-3.9-0.6-5.4-1.6c0.2,0.1,0.5,0.2,0.7,0.2c0,0,0.1,0,0.1,0
			c0.2,0.1,0.4,0.1,0.7,0.1c0.1,0,0.2,0,0.3,0c0.2,0,0.3,0.1,0.5,0.1c0.3,0,0.6,0,0.9,0c0.4,0,0.7,0,1.1-0.1c0.1,0,0.2,0,0.3,0
			c0.3,0,0.5-0.1,0.7-0.1c0.1,0,0.2-0.1,0.3-0.1c0.2-0.1,0.5-0.1,0.7-0.2c0.1,0,0.2-0.1,0.3-0.1c0.3-0.1,0.5-0.2,0.8-0.3
			c0.1,0,0.1-0.1,0.2-0.1c3.1-1.6,5.3-4.9,5.3-8.6c0-5.3-4.3-9.7-9.7-9.7c-5.3,0-9.7,4.3-9.7,9.7c0,2.2,0.7,4.2,2,5.9
			c-1.3,1-2.5,2.3-3.5,3.8c0.4,0.8,0.9,1.5,1.8,1.9c0.5,0.3,1.1,0.5,1.7,0.7c2.3,0.9,5.2,2,4.2,6.1c-0.2,0.9-0.5,1.9-0.8,2.9
			c-1.1,3.7-2.4,8.2-1.5,13.5c1.8,0.3,3.7,0.4,5.8,0.4c2.1,0,4-0.1,5.8-0.4C325.9,77.1,324.5,72.6,323.5,68.9z"/>
		<path fill="#FFFFFF" d="M313.9,68.6c0.3-1,0.6-2,0.8-2.8c0.7-3.1-1.3-3.9-3.6-4.8c-0.6-0.2-1.3-0.5-1.8-0.8
			c-0.9-0.5-1.5-1.1-1.9-1.9c-0.1,0.2-0.3,0.5-0.4,0.7c0.2,0,0.3,0,0.5,0.1c0.6,0.4,0.4,1.3,0.3,2.1c-0.1,0.5-0.3,0.9-0.4,1.3
			c-0.7,1.8-1.4,3.9,0.7,8.5c0.3,0.1,0.7,0.3,1.1,0.7c0.9,0.9,1.6,2.3,1.8,3.7c0.2,1.6-0.1,3-1,3.9c-0.4,0.4-1,0.7-1.6,0.9
			c1.2,0.9,2.6,1.5,4.2,1.8C311.5,76.8,312.8,72.3,313.9,68.6z"/>
		<path fill="#FFFFFF" d="M309.7,75.7c-0.2-1.2-0.7-2.4-1.5-3.1c-0.4-0.4-0.6-0.4-0.7-0.4c-0.3,0-0.7,0.6-1.1,1.1
			c-0.4,0.5-0.8,1.1-1.3,1.6c-0.5,0.5-1.1,0.9-1.6,1.3c-0.5,0.4-1.1,0.8-1.1,1.1c0,0.2,0.1,0.4,0.4,0.7c0.9,0.9,2.5,1.5,3.9,1.5
			c0.7,0,1.6-0.1,2.2-0.8C309.6,78.1,309.9,77,309.7,75.7z"/>
		<path fill="#FFFFFF" d="M306.6,61c0.1-0.6,0.1-0.9,0.1-1l-0.2-0.3c-2.7,1.5-4.6,4.4-4.6,10c0,2.1,0.3,4.1,0.8,5.8
			c0.1-0.1,0.2-0.1,0.2-0.2c0.5-0.3,1-0.7,1.4-1.2c0.5-0.5,0.8-1,1.2-1.4c0.4-0.6,0.8-1.1,1.2-1.4c-2.1-4.9-1.3-7.2-0.6-9.1
			C306.4,61.8,306.5,61.4,306.6,61z"/>
	</g>
</g>
<g>
	<g>
		<path fill="#FFFFFF" d="M77.9,239.8c-0.6,0.3-1.2,0.6-1.8,0.8c-2.3,0.9-4.3,1.7-3.6,4.8c0.2,0.9,0.5,1.8,0.8,2.8
			c1.1,3.7,2.4,8.2,1.6,13.6c1.6-0.4,3-1,4.2-1.8c-0.6-0.2-1.2-0.5-1.6-0.9c-0.9-0.9-1.3-2.3-1-3.9c0.2-1.4,0.9-2.8,1.8-3.7
			c0.4-0.4,0.7-0.6,1.1-0.7c2.1-4.7,1.3-6.7,0.7-8.5c-0.2-0.5-0.3-0.9-0.4-1.3c-0.2-0.8-0.3-1.7,0.3-2.1c0.2-0.1,0.3-0.1,0.5-0.1
			c-0.1-0.3-0.3-0.5-0.4-0.8C79.4,238.6,78.8,239.3,77.9,239.8z"/>
		<path fill="#FFFFFF" d="M79.6,251.8c-0.1,0-0.3,0.1-0.7,0.4c-0.7,0.7-1.3,1.9-1.5,3.1c-0.2,1.2,0.1,2.3,0.7,3
			c0.6,0.6,1.6,0.8,2.2,0.8c1.4,0,2.9-0.6,3.9-1.5c0.3-0.3,0.4-0.5,0.4-0.7c0-0.3-0.6-0.7-1.1-1.1c-0.5-0.4-1.1-0.8-1.6-1.3
			c-0.5-0.5-0.9-1.1-1.3-1.6C80.3,252.4,79.9,251.8,79.6,251.8z"/>
		<path fill="#FFFFFF" d="M81.6,252.3c0.3,0.5,0.7,1,1.2,1.4c0.5,0.5,1,0.8,1.4,1.2c0.1,0.1,0.2,0.1,0.2,0.2
			c0.5-1.8,0.8-3.7,0.8-5.8c0-5.5-1.9-8.5-4.6-9.9l-0.2,0.3c0,0.1,0,0.4,0.1,1c0.1,0.4,0.2,0.8,0.4,1.2c0.7,1.9,1.5,4.2-0.6,9.1
			C80.8,251.2,81.2,251.7,81.6,252.3z"/>
		<path fill="#FFFFFF" d="M72.3,248.5c-0.3-1-0.6-2-0.8-2.9c-0.9-4,1.9-5.2,4.2-6.1c0.6-0.2,1.2-0.5,1.7-0.7c0.9-0.5,1.4-1.2,1.8-2
			c-0.5-0.8-1.1-1.5-1.8-2.2c-1.8,2-4.4,3.3-7.3,3.3c-2,0-3.9-0.6-5.4-1.6c0.2,0.1,0.5,0.2,0.7,0.2c0,0,0.1,0,0.1,0
			c0.2,0.1,0.4,0.1,0.7,0.1c0.1,0,0.2,0,0.3,0c0.2,0,0.3,0.1,0.5,0.1c0.3,0,0.6,0,0.9,0c0.4,0,0.7,0,1.1-0.1c0.1,0,0.2,0,0.3,0
			c0.3,0,0.5-0.1,0.7-0.1c0.1,0,0.2-0.1,0.3-0.1c0.2-0.1,0.5-0.1,0.7-0.2c0.1,0,0.2-0.1,0.3-0.1c0.3-0.1,0.5-0.2,0.8-0.3
			c0.1,0,0.1-0.1,0.2-0.1c3.1-1.6,5.3-4.9,5.3-8.6c0-5.3-4.3-9.7-9.7-9.7s-9.7,4.3-9.7,9.7c0,2.2,0.7,4.2,2,5.9
			c-1.3,1-2.5,2.3-3.5,3.8c0.4,0.8,0.9,1.5,1.8,1.9c0.5,0.3,1.1,0.5,1.7,0.7c2.3,0.9,5.2,2,4.2,6.1c-0.2,0.9-0.5,1.9-0.8,2.9
			c-1.1,3.7-2.4,8.2-1.5,13.5c1.8,0.3,3.7,0.4,5.8,0.4s4-0.1,5.8-0.4C74.7,256.7,73.3,252.2,72.3,248.5z"/>
		<path fill="#FFFFFF" d="M62.7,248.2c0.3-1,0.6-2,0.8-2.8c0.7-3.1-1.3-3.9-3.6-4.8c-0.6-0.2-1.3-0.5-1.8-0.8
			c-0.9-0.5-1.5-1.1-1.9-1.9c-0.1,0.2-0.3,0.5-0.4,0.7c0.2,0,0.3,0,0.5,0.1c0.6,0.4,0.4,1.3,0.3,2.1c-0.1,0.5-0.3,0.9-0.4,1.3
			c-0.7,1.8-1.4,3.9,0.7,8.5c0.3,0.1,0.7,0.3,1.1,0.7c0.9,0.9,1.6,2.3,1.8,3.7c0.2,1.6-0.1,3-1,3.9c-0.4,0.4-1,0.7-1.6,0.9
			c1.2,0.9,2.6,1.5,4.2,1.8C60.3,256.5,61.6,251.9,62.7,248.2z"/>
		<path fill="#FFFFFF" d="M58.5,255.4c-0.2-1.2-0.7-2.4-1.5-3.1c-0.4-0.4-0.6-0.4-0.7-0.4c-0.3,0-0.7,0.6-1.1,1.1
			c-0.4,0.5-0.8,1.1-1.3,1.6c-0.5,0.5-1.1,0.9-1.6,1.3c-0.5,0.4-1.1,0.8-1.1,1.1c0,0.2,0.1,0.4,0.4,0.7c0.9,0.9,2.5,1.5,3.9,1.5
			c0.7,0,1.6-0.1,2.2-0.8C58.4,257.7,58.7,256.6,58.5,255.4z"/>
		<path fill="#FFFFFF" d="M55.4,240.7c0.1-0.6,0.1-0.9,0.1-1l-0.2-0.3c-2.7,1.5-4.6,4.4-4.6,10c0,2.1,0.3,4.1,0.8,5.8
			c0.1-0.1,0.2-0.1,0.2-0.2c0.5-0.3,1-0.7,1.4-1.2c0.5-0.5,0.8-1,1.2-1.4c0.4-0.6,0.8-1.1,1.2-1.4c-2.1-4.9-1.3-7.2-0.6-9.1
			C55.2,241.5,55.3,241.1,55.4,240.7z"/>
	</g>
</g>
<g>
	<g>
		<path fill="#FFFFFF" d="M391.9,239.8c-0.6,0.3-1.2,0.6-1.8,0.8c-2.3,0.9-4.3,1.7-3.6,4.8c0.2,0.9,0.5,1.8,0.8,2.8
			c1.1,3.7,2.4,8.2,1.6,13.6c1.6-0.4,3-1,4.2-1.8c-0.6-0.2-1.2-0.5-1.6-0.9c-0.9-0.9-1.3-2.3-1-3.9c0.2-1.4,0.9-2.8,1.8-3.7
			c0.4-0.4,0.7-0.6,1.1-0.7c2.1-4.7,1.3-6.7,0.7-8.5c-0.2-0.5-0.3-0.9-0.4-1.3c-0.2-0.8-0.3-1.7,0.3-2.1c0.2-0.1,0.3-0.1,0.5-0.1
			c-0.1-0.3-0.3-0.5-0.4-0.8C393.4,238.6,392.8,239.3,391.9,239.8z"/>
		<path fill="#FFFFFF" d="M393.6,251.8c-0.1,0-0.3,0.1-0.7,0.4c-0.7,0.7-1.3,1.9-1.5,3.1c-0.2,1.2,0.1,2.3,0.7,3
			c0.6,0.6,1.6,0.8,2.2,0.8c1.4,0,2.9-0.6,3.9-1.5c0.3-0.3,0.4-0.5,0.4-0.7c0-0.3-0.6-0.7-1.1-1.1c-0.5-0.4-1.1-0.8-1.6-1.3
			c-0.5-0.5-0.9-1.1-1.3-1.6C394.3,252.4,393.9,251.8,393.6,251.8z"/>
		<path fill="#FFFFFF" d="M395.6,252.3c0.3,0.5,0.7,1,1.2,1.4c0.5,0.5,1,0.8,1.4,1.2c0.1,0.1,0.2,0.1,0.2,0.2
			c0.5-1.8,0.8-3.7,0.8-5.8c0-5.5-1.9-8.5-4.6-9.9l-0.2,0.3c0,0.1,0,0.4,0.1,1c0.1,0.4,0.2,0.8,0.4,1.2c0.7,1.9,1.5,4.2-0.6,9.1
			C394.8,251.2,395.2,251.7,395.6,252.3z"/>
		<path fill="#FFFFFF" d="M386.3,248.5c-0.3-1-0.6-2-0.8-2.9c-0.9-4,1.9-5.2,4.2-6.1c0.6-0.2,1.2-0.5,1.7-0.7c0.9-0.5,1.4-1.2,1.8-2
			c-0.5-0.8-1.1-1.5-1.8-2.2c-1.8,2-4.4,3.3-7.3,3.3c-2,0-3.9-0.6-5.4-1.6c0.2,0.1,0.5,0.2,0.7,0.2c0,0,0.1,0,0.1,0
			c0.2,0.1,0.4,0.1,0.7,0.1c0.1,0,0.2,0,0.3,0c0.2,0,0.3,0.1,0.5,0.1c0.3,0,0.6,0,0.9,0c0.4,0,0.7,0,1.1-0.1c0.1,0,0.2,0,0.3,0
			c0.3,0,0.5-0.1,0.7-0.1c0.1,0,0.2-0.1,0.3-0.1c0.2-0.1,0.5-0.1,0.7-0.2c0.1,0,0.2-0.1,0.3-0.1c0.3-0.1,0.5-0.2,0.8-0.3
			c0.1,0,0.1-0.1,0.2-0.1c3.1-1.6,5.3-4.9,5.3-8.6c0-5.3-4.3-9.7-9.7-9.7s-9.7,4.3-9.7,9.7c0,2.2,0.7,4.2,2,5.9
			c-1.3,1-2.5,2.3-3.5,3.8c0.4,0.8,0.9,1.5,1.8,1.9c0.5,0.3,1.1,0.5,1.7,0.7c2.3,0.9,5.2,2,4.2,6.1c-0.2,0.9-0.5,1.9-0.8,2.9
			c-1.1,3.7-2.4,8.2-1.5,13.5c1.8,0.3,3.7,0.4,5.8,0.4s4-0.1,5.8-0.4C388.7,256.7,387.3,252.2,386.3,248.5z"/>
		<path fill="#FFFFFF" d="M376.7,248.2c0.3-1,0.6-2,0.8-2.8c0.7-3.1-1.3-3.9-3.6-4.8c-0.6-0.2-1.3-0.5-1.8-0.8
			c-0.9-0.5-1.5-1.1-1.9-1.9c-0.1,0.2-0.3,0.5-0.4,0.7c0.2,0,0.3,0,0.5,0.1c0.6,0.4,0.4,1.3,0.3,2.1c-0.1,0.5-0.3,0.9-0.4,1.3
			c-0.7,1.8-1.4,3.9,0.7,8.5c0.3,0.1,0.7,0.3,1.1,0.7c0.9,0.9,1.6,2.3,1.8,3.7c0.2,1.6-0.1,3-1,3.9c-0.4,0.4-1,0.7-1.6,0.9
			c1.2,0.9,2.6,1.5,4.2,1.8C374.3,256.5,375.6,251.9,376.7,248.2z"/>
		<path fill="#FFFFFF" d="M372.5,255.4c-0.2-1.2-0.7-2.4-1.5-3.1c-0.4-0.4-0.6-0.4-0.7-0.4c-0.3,0-0.7,0.6-1.1,1.1
			c-0.4,0.5-0.8,1.1-1.3,1.6c-0.5,0.5-1.1,0.9-1.6,1.3c-0.5,0.4-1.1,0.8-1.1,1.1c0,0.2,0.1,0.4,0.4,0.7c0.9,0.9,2.5,1.5,3.9,1.5
			c0.6,0,1.6-0.1,2.2-0.8C372.4,257.7,372.7,256.6,372.5,255.4z"/>
		<path fill="#FFFFFF" d="M369.4,240.7c0.1-0.6,0.1-0.9,0.1-1l-0.2-0.3c-2.7,1.5-4.6,4.4-4.6,10c0,2.1,0.3,4.1,0.8,5.8
			c0.1-0.1,0.2-0.1,0.2-0.2c0.5-0.3,1-0.7,1.4-1.2c0.5-0.5,0.8-1,1.2-1.4c0.4-0.6,0.8-1.1,1.2-1.4c-2.1-4.9-1.3-7.2-0.6-9.1
			C369.2,241.5,369.3,241.1,369.4,240.7z"/>
	</g>
</g>
<g>
	<g>
		<path fill="#FFFFFF" d="M391.9,59.4c-0.6,0.3-1.2,0.6-1.8,0.8c-2.3,0.9-4.3,1.7-3.6,4.8c0.2,0.9,0.5,1.8,0.8,2.8
			c1.1,3.7,2.4,8.2,1.6,13.6c1.6-0.4,3-1,4.2-1.8c-0.6-0.2-1.2-0.5-1.6-0.9c-0.9-0.9-1.3-2.3-1-3.9c0.2-1.4,0.9-2.8,1.8-3.7
			c0.4-0.4,0.7-0.6,1.1-0.7c2.1-4.7,1.3-6.7,0.7-8.5c-0.2-0.5-0.3-0.9-0.4-1.3c-0.2-0.8-0.3-1.7,0.3-2.1c0.2-0.1,0.3-0.1,0.5-0.1
			c-0.1-0.3-0.3-0.5-0.4-0.8C393.4,58.2,392.8,58.9,391.9,59.4z"/>
		<path fill="#FFFFFF" d="M393.6,71.4c-0.1,0-0.3,0.1-0.7,0.4c-0.7,0.7-1.3,1.9-1.5,3.1c-0.2,1.2,0.1,2.3,0.7,3
			c0.6,0.6,1.6,0.8,2.2,0.8c1.4,0,2.9-0.6,3.9-1.5c0.3-0.3,0.4-0.5,0.4-0.7c0-0.3-0.6-0.7-1.1-1.1c-0.5-0.4-1.1-0.8-1.6-1.3
			s-0.9-1.1-1.3-1.6C394.3,72,393.9,71.4,393.6,71.4z"/>
		<path fill="#FFFFFF" d="M395.6,71.9c0.3,0.5,0.7,1,1.2,1.4c0.5,0.5,1,0.8,1.4,1.2c0.1,0.1,0.2,0.1,0.2,0.2
			c0.5-1.8,0.8-3.7,0.8-5.8c0-5.5-1.9-8.5-4.6-9.9l-0.2,0.3c0,0.1,0,0.4,0.1,1c0.1,0.4,0.2,0.8,0.4,1.2c0.7,1.9,1.5,4.2-0.6,9.1
			C394.8,70.9,395.2,71.4,395.6,71.9z"/>
		<path fill="#FFFFFF" d="M386.3,68.1c-0.3-1-0.6-2-0.8-2.9c-0.9-4,1.9-5.2,4.2-6.1c0.6-0.2,1.2-0.5,1.7-0.7c0.9-0.5,1.4-1.2,1.8-2
			c-0.5-0.8-1.1-1.5-1.8-2.2c-1.8,2-4.4,3.3-7.3,3.3c-2,0-3.9-0.6-5.4-1.6c0.2,0.1,0.5,0.2,0.7,0.2c0,0,0.1,0,0.1,0
			c0.2,0.1,0.4,0.1,0.7,0.1c0.1,0,0.2,0,0.3,0c0.2,0,0.3,0.1,0.5,0.1c0.3,0,0.6,0,0.9,0c0.4,0,0.7,0,1.1-0.1c0.1,0,0.2,0,0.3,0
			c0.3,0,0.5-0.1,0.7-0.1c0.1,0,0.2-0.1,0.3-0.1c0.2-0.1,0.5-0.1,0.7-0.2c0.1,0,0.2-0.1,0.3-0.1c0.3-0.1,0.5-0.2,0.8-0.3
			c0.1,0,0.1-0.1,0.2-0.1c3.1-1.6,5.3-4.9,5.3-8.6c0-5.3-4.3-9.7-9.7-9.7s-9.7,4.3-9.7,9.7c0,2.2,0.7,4.2,2,5.9
			c-1.3,1-2.5,2.3-3.5,3.8c0.4,0.8,0.9,1.5,1.8,1.9c0.5,0.3,1.1,0.5,1.7,0.7c2.3,0.9,5.2,2,4.2,6.1c-0.2,0.9-0.5,1.9-0.8,2.9
			c-1.1,3.7-2.4,8.2-1.5,13.5c1.8,0.3,3.7,0.4,5.8,0.4s4-0.1,5.8-0.4C388.7,76.4,387.3,71.8,386.3,68.1z"/>
		<path fill="#FFFFFF" d="M376.7,67.8c0.3-1,0.6-2,0.8-2.8c0.7-3.1-1.3-3.9-3.6-4.8c-0.6-0.2-1.3-0.5-1.8-0.8
			c-0.9-0.5-1.5-1.1-1.9-1.9c-0.1,0.2-0.3,0.5-0.4,0.7c0.2,0,0.3,0,0.5,0.1c0.6,0.4,0.4,1.3,0.3,2.1c-0.1,0.5-0.3,0.9-0.4,1.3
			c-0.7,1.8-1.4,3.9,0.7,8.5c0.3,0.1,0.7,0.3,1.1,0.7c0.9,0.9,1.6,2.3,1.8,3.7c0.2,1.6-0.1,3-1,3.9c-0.4,0.4-1,0.7-1.6,0.9
			c1.2,0.9,2.6,1.5,4.2,1.8C374.3,76.1,375.6,71.6,376.7,67.8z"/>
		<path fill="#FFFFFF" d="M372.5,75c-0.2-1.2-0.7-2.4-1.5-3.1c-0.4-0.4-0.6-0.4-0.7-0.4c-0.3,0-0.7,0.6-1.1,1.1
			c-0.4,0.5-0.8,1.1-1.3,1.6s-1.1,0.9-1.6,1.3c-0.5,0.4-1.1,0.8-1.1,1.1c0,0.2,0.1,0.4,0.4,0.7c0.9,0.9,2.5,1.5,3.9,1.5
			c0.6,0,1.6-0.1,2.2-0.8C372.4,77.3,372.7,76.2,372.5,75z"/>
		<path fill="#FFFFFF" d="M369.4,60.3c0.1-0.6,0.1-0.9,0.1-1l-0.2-0.3c-2.7,1.5-4.6,4.4-4.6,10c0,2.1,0.3,4.1,0.8,5.8
			c0.1-0.1,0.2-0.1,0.2-0.2c0.5-0.3,1-0.7,1.4-1.2c0.5-0.5,0.8-1,1.2-1.4c0.4-0.6,0.8-1.1,1.2-1.4c-2.1-4.9-1.3-7.2-0.6-9.1
			C369.2,61.1,369.3,60.7,369.4,60.3z"/>
	</g>
</g>
<g>
	<g>
		<path fill="#FFFFFF" d="M77.9,120c-0.6,0.3-1.2,0.6-1.8,0.8c-2.3,0.9-4.3,1.7-3.6,4.8c0.2,0.9,0.5,1.8,0.8,2.8
			c1.1,3.7,2.4,8.2,1.6,13.6c1.6-0.4,3-1,4.2-1.8c-0.6-0.2-1.2-0.5-1.6-0.9c-0.9-0.9-1.3-2.3-1-3.9c0.2-1.4,0.9-2.8,1.8-3.7
			c0.4-0.4,0.7-0.6,1.1-0.7c2.1-4.7,1.3-6.7,0.7-8.5c-0.2-0.5-0.3-0.9-0.4-1.3c-0.2-0.8-0.3-1.7,0.3-2.1c0.2-0.1,0.3-0.1,0.5-0.1
			c-0.1-0.3-0.3-0.5-0.4-0.8C79.4,118.9,78.8,119.5,77.9,120z"/>
		<path fill="#FFFFFF" d="M79.6,132.1c-0.1,0-0.3,0.1-0.7,0.4c-0.7,0.7-1.3,1.9-1.5,3.1c-0.2,1.2,0.1,2.3,0.7,3
			c0.6,0.6,1.6,0.8,2.2,0.8c1.4,0,2.9-0.6,3.9-1.5c0.3-0.3,0.4-0.5,0.4-0.7c0-0.3-0.6-0.7-1.1-1.1c-0.5-0.4-1.1-0.8-1.6-1.3
			c-0.5-0.5-0.9-1.1-1.3-1.6C80.3,132.6,79.9,132.1,79.6,132.1z"/>
		<path fill="#FFFFFF" d="M81.6,132.6c0.3,0.5,0.7,1,1.2,1.4c0.5,0.5,1,0.8,1.4,1.2c0.1,0.1,0.2,0.1,0.2,0.2
			c0.5-1.8,0.8-3.7,0.8-5.8c0-5.5-1.9-8.5-4.6-9.9l-0.2,0.3c0,0.1,0,0.4,0.1,1c0.1,0.4,0.2,0.8,0.4,1.2c0.7,1.9,1.5,4.2-0.6,9.1
			C80.8,131.5,81.2,132,81.6,132.6z"/>
		<path fill="#FFFFFF" d="M72.3,128.8c-0.3-1-0.6-2-0.8-2.9c-0.9-4,1.9-5.2,4.2-6.1c0.6-0.2,1.2-0.5,1.7-0.7c0.9-0.5,1.4-1.2,1.8-2
			c-0.5-0.8-1.1-1.5-1.8-2.2c-1.8,2-4.4,3.3-7.3,3.3c-2,0-3.9-0.6-5.4-1.6c0.2,0.1,0.5,0.2,0.7,0.2c0,0,0.1,0,0.1,0
			c0.2,0.1,0.4,0.1,0.7,0.1c0.1,0,0.2,0,0.3,0c0.2,0,0.3,0.1,0.5,0.1c0.3,0,0.6,0,0.9,0c0.4,0,0.7,0,1.1-0.1c0.1,0,0.2,0,0.3,0
			c0.3,0,0.5-0.1,0.7-0.1c0.1,0,0.2-0.1,0.3-0.1c0.2-0.1,0.5-0.1,0.7-0.2c0.1,0,0.2-0.1,0.3-0.1c0.3-0.1,0.5-0.2,0.8-0.3
			c0.1,0,0.1-0.1,0.2-0.1c3.1-1.6,5.3-4.9,5.3-8.6c0-5.3-4.3-9.7-9.7-9.7s-9.7,4.3-9.7,9.7c0,2.2,0.7,4.2,2,5.9
			c-1.3,1-2.5,2.3-3.5,3.8c0.4,0.8,0.9,1.5,1.8,1.9c0.5,0.3,1.1,0.5,1.7,0.7c2.3,0.9,5.2,2,4.2,6.1c-0.2,0.9-0.5,1.9-0.8,2.9
			c-1.1,3.7-2.4,8.2-1.5,13.5c1.8,0.3,3.7,0.4,5.8,0.4s4-0.1,5.8-0.4C74.7,137,73.3,132.5,72.3,128.8z"/>
		<path fill="#FFFFFF" d="M62.7,128.5c0.3-1,0.6-2,0.8-2.8c0.7-3.1-1.3-3.9-3.6-4.8c-0.6-0.2-1.3-0.5-1.8-0.8
			c-0.9-0.5-1.5-1.1-1.9-1.9c-0.1,0.2-0.3,0.5-0.4,0.7c0.2,0,0.3,0,0.5,0.1c0.6,0.4,0.4,1.3,0.3,2.1c-0.1,0.5-0.3,0.9-0.4,1.3
			c-0.7,1.8-1.4,3.9,0.7,8.5c0.3,0.1,0.7,0.3,1.1,0.7c0.9,0.9,1.6,2.3,1.8,3.7c0.2,1.6-0.1,3-1,3.9c-0.4,0.4-1,0.7-1.6,0.9
			c1.2,0.9,2.6,1.5,4.2,1.8C60.3,136.7,61.6,132.2,62.7,128.5z"/>
		<path fill="#FFFFFF" d="M58.5,135.6c-0.2-1.2-0.7-2.4-1.5-3.1c-0.4-0.4-0.6-0.4-0.7-0.4c-0.3,0-0.7,0.6-1.1,1.1
			c-0.4,0.5-0.8,1.1-1.3,1.6c-0.5,0.5-1.1,0.9-1.6,1.3c-0.5,0.4-1.1,0.8-1.1,1.1c0,0.2,0.1,0.4,0.4,0.7c0.9,0.9,2.5,1.5,3.9,1.5
			c0.7,0,1.6-0.1,2.2-0.8C58.4,137.9,58.7,136.8,58.5,135.6z"/>
		<path fill="#FFFFFF" d="M55.4,120.9c0.1-0.6,0.1-0.9,0.1-1l-0.2-0.3c-2.7,1.5-4.6,4.4-4.6,10c0,2.1,0.3,4.1,0.8,5.8
			c0.1-0.1,0.2-0.1,0.2-0.2c0.5-0.3,1-0.7,1.4-1.2c0.5-0.5,0.8-1,1.2-1.4c0.4-0.6,0.8-1.1,1.2-1.4c-2.1-4.9-1.3-7.2-0.6-9.1
			C55.2,121.7,55.3,121.3,55.4,120.9z"/>
	</g>
</g>
<g>
	<g>
		<path fill="#FFFFFF" d="M140.7,120c-0.6,0.3-1.2,0.6-1.8,0.8c-2.3,0.9-4.3,1.7-3.6,4.8c0.2,0.9,0.5,1.8,0.8,2.8
			c1.1,3.7,2.4,8.2,1.6,13.6c1.6-0.4,3-1,4.2-1.8c-0.6-0.2-1.2-0.5-1.6-0.9c-0.9-0.9-1.3-2.3-1-3.9c0.2-1.4,0.9-2.8,1.8-3.7
			c0.4-0.4,0.7-0.6,1.1-0.7c2.1-4.7,1.3-6.7,0.7-8.5c-0.2-0.5-0.3-0.9-0.4-1.3c-0.2-0.8-0.3-1.7,0.3-2.1c0.2-0.1,0.3-0.1,0.5-0.1
			c-0.1-0.3-0.3-0.5-0.4-0.8C142.2,118.9,141.6,119.5,140.7,120z"/>
		<path fill="#FFFFFF" d="M142.4,132.1c-0.1,0-0.3,0.1-0.7,0.4c-0.7,0.7-1.3,1.9-1.5,3.1c-0.2,1.2,0.1,2.3,0.7,3
			c0.6,0.6,1.6,0.8,2.2,0.8c1.4,0,2.9-0.6,3.9-1.5c0.3-0.3,0.4-0.5,0.4-0.7c0-0.3-0.6-0.7-1.1-1.1c-0.5-0.4-1.1-0.8-1.6-1.3
			c-0.5-0.5-0.9-1.1-1.3-1.6C143.1,132.6,142.7,132.1,142.4,132.1z"/>
		<path fill="#FFFFFF" d="M144.4,132.6c0.3,0.5,0.7,1,1.2,1.4c0.5,0.5,1,0.8,1.4,1.2c0.1,0.1,0.2,0.1,0.2,0.2
			c0.5-1.8,0.8-3.7,0.8-5.8c0-5.5-1.9-8.5-4.6-9.9l-0.2,0.3c0,0.1,0,0.4,0.1,1c0.1,0.4,0.2,0.8,0.4,1.2c0.7,1.9,1.5,4.2-0.6,9.1
			C143.6,131.5,144,132,144.4,132.6z"/>
		<path fill="#FFFFFF" d="M135.1,128.8c-0.3-1-0.6-2-0.8-2.9c-0.9-4,1.9-5.2,4.2-6.1c0.6-0.2,1.2-0.5,1.7-0.7c0.9-0.5,1.4-1.2,1.8-2
			c-0.5-0.8-1.1-1.5-1.8-2.2c-1.8,2-4.4,3.3-7.3,3.3c-2,0-3.9-0.6-5.4-1.6c0.2,0.1,0.5,0.2,0.7,0.2c0,0,0.1,0,0.1,0
			c0.2,0.1,0.4,0.1,0.7,0.1c0.1,0,0.2,0,0.3,0c0.2,0,0.3,0.1,0.5,0.1c0.3,0,0.6,0,0.9,0c0.4,0,0.7,0,1.1-0.1c0.1,0,0.2,0,0.3,0
			c0.3,0,0.5-0.1,0.7-0.1c0.1,0,0.2-0.1,0.3-0.1c0.2-0.1,0.5-0.1,0.7-0.2c0.1,0,0.2-0.1,0.3-0.1c0.3-0.1,0.5-0.2,0.8-0.3
			c0.1,0,0.1-0.1,0.2-0.1c3.1-1.6,5.3-4.9,5.3-8.6c0-5.3-4.3-9.7-9.7-9.7s-9.7,4.3-9.7,9.7c0,2.2,0.7,4.2,2,5.9
			c-1.3,1-2.5,2.3-3.5,3.8c0.4,0.8,0.9,1.5,1.8,1.9c0.5,0.3,1.1,0.5,1.7,0.7c2.3,0.9,5.2,2,4.2,6.1c-0.2,0.9-0.5,1.9-0.8,2.9
			c-1.1,3.7-2.4,8.2-1.5,13.5c1.8,0.3,3.7,0.4,5.8,0.4s4-0.1,5.8-0.4C137.5,137,136.1,132.5,135.1,128.8z"/>
		<path fill="#FFFFFF" d="M125.5,128.5c0.3-1,0.6-2,0.8-2.8c0.7-3.1-1.3-3.9-3.6-4.8c-0.6-0.2-1.3-0.5-1.8-0.8
			c-0.9-0.5-1.5-1.1-1.9-1.9c-0.1,0.2-0.3,0.5-0.4,0.7c0.2,0,0.3,0,0.5,0.1c0.6,0.4,0.4,1.3,0.3,2.1c-0.1,0.5-0.3,0.9-0.4,1.3
			c-0.7,1.8-1.4,3.9,0.7,8.5c0.3,0.1,0.7,0.3,1.1,0.7c0.9,0.9,1.6,2.3,1.8,3.7c0.2,1.6-0.1,3-1,3.9c-0.4,0.4-1,0.7-1.6,0.9
			c1.2,0.9,2.6,1.5,4.2,1.8C123.1,136.7,124.4,132.2,125.5,128.5z"/>
		<path fill="#FFFFFF" d="M121.3,135.6c-0.2-1.2-0.7-2.4-1.5-3.1c-0.4-0.4-0.6-0.4-0.7-0.4c-0.3,0-0.7,0.6-1.1,1.1
			c-0.4,0.5-0.8,1.1-1.3,1.6c-0.5,0.5-1.1,0.9-1.6,1.3c-0.5,0.4-1.1,0.8-1.1,1.1c0,0.2,0.1,0.4,0.4,0.7c0.9,0.9,2.5,1.5,3.9,1.5
			c0.7,0,1.6-0.1,2.2-0.8C121.2,137.9,121.5,136.8,121.3,135.6z"/>
		<path fill="#FFFFFF" d="M118.2,120.9c0.1-0.6,0.1-0.9,0.1-1l-0.2-0.3c-2.7,1.5-4.6,4.4-4.6,10c0,2.1,0.3,4.1,0.8,5.8
			c0.1-0.1,0.2-0.1,0.2-0.2c0.5-0.3,1-0.7,1.4-1.2c0.5-0.5,0.8-1,1.2-1.4c0.4-0.6,0.8-1.1,1.2-1.4c-2.1-4.9-1.3-7.2-0.6-9.1
			C118,121.7,118.1,121.3,118.2,120.9z"/>
	</g>
</g>
<g>
	<g>
		<path fill="#FFFFFF" d="M203.5,120c-0.6,0.3-1.2,0.6-1.8,0.8c-2.3,0.9-4.3,1.7-3.6,4.8c0.2,0.9,0.5,1.8,0.8,2.8
			c1.1,3.7,2.4,8.2,1.6,13.6c1.6-0.4,3-1,4.2-1.8c-0.6-0.2-1.2-0.5-1.6-0.9c-0.9-0.9-1.3-2.3-1-3.9c0.2-1.4,0.9-2.8,1.8-3.7
			c0.4-0.4,0.7-0.6,1.1-0.7c2.1-4.7,1.3-6.7,0.7-8.5c-0.2-0.5-0.3-0.9-0.4-1.3c-0.2-0.8-0.3-1.7,0.3-2.1c0.2-0.1,0.3-0.1,0.5-0.1
			c-0.1-0.3-0.3-0.5-0.4-0.8C205,118.9,204.4,119.5,203.5,120z"/>
		<path fill="#FFFFFF" d="M205.2,132.1c-0.1,0-0.3,0.1-0.7,0.4c-0.7,0.7-1.3,1.9-1.5,3.1c-0.2,1.2,0.1,2.3,0.7,3
			c0.6,0.6,1.6,0.8,2.2,0.8c1.4,0,2.9-0.6,3.9-1.5c0.3-0.3,0.4-0.5,0.4-0.7c0-0.3-0.6-0.7-1.1-1.1c-0.5-0.4-1.1-0.8-1.6-1.3
			c-0.5-0.5-0.9-1.1-1.3-1.6C205.9,132.6,205.5,132.1,205.2,132.1z"/>
		<path fill="#FFFFFF" d="M207.2,132.6c0.3,0.5,0.7,1,1.2,1.4c0.5,0.5,1,0.8,1.4,1.2c0.1,0.1,0.2,0.1,0.2,0.2
			c0.5-1.8,0.8-3.7,0.8-5.8c0-5.5-1.9-8.5-4.6-9.9l-0.2,0.3c0,0.1,0,0.4,0.1,1c0.1,0.4,0.2,0.8,0.4,1.2c0.7,1.9,1.5,4.2-0.6,9.1
			C206.4,131.5,206.8,132,207.2,132.6z"/>
		<path fill="#FFFFFF" d="M197.9,128.8c-0.3-1-0.6-2-0.8-2.9c-0.9-4,1.9-5.2,4.2-6.1c0.6-0.2,1.2-0.5,1.7-0.7c0.9-0.5,1.4-1.2,1.8-2
			c-0.5-0.8-1.1-1.5-1.8-2.2c-1.8,2-4.4,3.3-7.3,3.3c-2,0-3.9-0.6-5.4-1.6c0.2,0.1,0.5,0.2,0.7,0.2c0,0,0.1,0,0.1,0
			c0.2,0.1,0.4,0.1,0.7,0.1c0.1,0,0.2,0,0.3,0c0.2,0,0.3,0.1,0.5,0.1c0.3,0,0.6,0,0.9,0c0.4,0,0.7,0,1.1-0.1c0.1,0,0.2,0,0.3,0
			c0.3,0,0.5-0.1,0.7-0.1c0.1,0,0.2-0.1,0.3-0.1c0.2-0.1,0.5-0.1,0.7-0.2c0.1,0,0.2-0.1,0.3-0.1c0.3-0.1,0.5-0.2,0.8-0.3
			c0.1,0,0.1-0.1,0.2-0.1c3.1-1.6,5.3-4.9,5.3-8.6c0-5.3-4.3-9.7-9.7-9.7c-5.3,0-9.7,4.3-9.7,9.7c0,2.2,0.7,4.2,2,5.9
			c-1.3,1-2.5,2.3-3.5,3.8c0.4,0.8,0.9,1.5,1.8,1.9c0.5,0.3,1.1,0.5,1.7,0.7c2.3,0.9,5.2,2,4.2,6.1c-0.2,0.9-0.5,1.9-0.8,2.9
			c-1.1,3.7-2.4,8.2-1.5,13.5c1.8,0.3,3.7,0.4,5.8,0.4c2.1,0,4-0.1,5.8-0.4C200.3,137,198.9,132.5,197.9,128.8z"/>
		<path fill="#FFFFFF" d="M188.3,128.5c0.3-1,0.6-2,0.8-2.8c0.7-3.1-1.3-3.9-3.6-4.8c-0.6-0.2-1.3-0.5-1.8-0.8
			c-0.9-0.5-1.5-1.1-1.9-1.9c-0.1,0.2-0.3,0.5-0.4,0.7c0.2,0,0.3,0,0.5,0.1c0.6,0.4,0.4,1.3,0.3,2.1c-0.1,0.5-0.3,0.9-0.4,1.3
			c-0.7,1.8-1.4,3.9,0.7,8.5c0.3,0.1,0.7,0.3,1.1,0.7c0.9,0.9,1.6,2.3,1.8,3.7c0.2,1.6-0.1,3-1,3.9c-0.4,0.4-1,0.7-1.6,0.9
			c1.2,0.9,2.6,1.5,4.2,1.8C185.9,136.7,187.2,132.2,188.3,128.5z"/>
		<path fill="#FFFFFF" d="M184.1,135.6c-0.2-1.2-0.7-2.4-1.5-3.1c-0.4-0.4-0.6-0.4-0.7-0.4c-0.3,0-0.7,0.6-1.1,1.1
			c-0.4,0.5-0.8,1.1-1.3,1.6c-0.5,0.5-1.1,0.9-1.6,1.3c-0.5,0.4-1.1,0.8-1.1,1.1c0,0.2,0.1,0.4,0.4,0.7c0.9,0.9,2.5,1.5,3.9,1.5
			c0.7,0,1.6-0.1,2.2-0.8C184,137.9,184.3,136.8,184.1,135.6z"/>
		<path fill="#FFFFFF" d="M181,120.9c0.1-0.6,0.1-0.9,0.1-1l-0.2-0.3c-2.7,1.5-4.6,4.4-4.6,10c0,2.1,0.3,4.1,0.8,5.8
			c0.1-0.1,0.2-0.1,0.2-0.2c0.5-0.3,1-0.7,1.4-1.2c0.5-0.5,0.8-1,1.2-1.4c0.4-0.6,0.8-1.1,1.2-1.4c-2.1-4.9-1.3-7.2-0.6-9.1
			C180.8,121.7,180.9,121.3,181,120.9z"/>
	</g>
</g>
<g>
	<g>
		<path fill="#FFFFFF" d="M329.1,120c-0.6,0.3-1.2,0.6-1.8,0.8c-2.3,0.9-4.3,1.7-3.6,4.8c0.2,0.9,0.5,1.8,0.8,2.8
			c1.1,3.7,2.4,8.2,1.6,13.6c1.6-0.4,3-1,4.2-1.8c-0.6-0.2-1.2-0.5-1.6-0.9c-0.9-0.9-1.3-2.3-1-3.9c0.2-1.4,0.9-2.8,1.8-3.7
			c0.4-0.4,0.7-0.6,1.1-0.7c2.1-4.7,1.3-6.7,0.7-8.5c-0.2-0.5-0.3-0.9-0.4-1.3c-0.2-0.8-0.3-1.7,0.3-2.1c0.2-0.1,0.3-0.1,0.5-0.1
			c-0.1-0.3-0.3-0.5-0.4-0.8C330.6,118.9,330,119.5,329.1,120z"/>
		<path fill="#FFFFFF" d="M330.8,132.1c-0.1,0-0.3,0.1-0.7,0.4c-0.7,0.7-1.3,1.9-1.5,3.1c-0.2,1.2,0.1,2.3,0.7,3
			c0.6,0.6,1.6,0.8,2.2,0.8c1.4,0,2.9-0.6,3.9-1.5c0.3-0.3,0.4-0.5,0.4-0.7c0-0.3-0.6-0.7-1.1-1.1c-0.5-0.4-1.1-0.8-1.6-1.3
			c-0.5-0.5-0.9-1.1-1.3-1.6C331.5,132.6,331.1,132.1,330.8,132.1z"/>
		<path fill="#FFFFFF" d="M332.8,132.6c0.3,0.5,0.7,1,1.2,1.4c0.5,0.5,1,0.8,1.4,1.2c0.1,0.1,0.2,0.1,0.2,0.2
			c0.5-1.8,0.8-3.7,0.8-5.8c0-5.5-1.9-8.5-4.6-9.9l-0.2,0.3c0,0.1,0,0.4,0.1,1c0.1,0.4,0.2,0.8,0.4,1.2c0.7,1.9,1.5,4.2-0.6,9.1
			C332,131.5,332.4,132,332.8,132.6z"/>
		<path fill="#FFFFFF" d="M323.5,128.8c-0.3-1-0.6-2-0.8-2.9c-0.9-4,1.9-5.2,4.2-6.1c0.6-0.2,1.2-0.5,1.7-0.7c0.9-0.5,1.4-1.2,1.8-2
			c-0.5-0.8-1.1-1.5-1.8-2.2c-1.8,2-4.4,3.3-7.3,3.3c-2,0-3.9-0.6-5.4-1.6c0.2,0.1,0.5,0.2,0.7,0.2c0,0,0.1,0,0.1,0
			c0.2,0.1,0.4,0.1,0.7,0.1c0.1,0,0.2,0,0.3,0c0.2,0,0.3,0.1,0.5,0.1c0.3,0,0.6,0,0.9,0c0.4,0,0.7,0,1.1-0.1c0.1,0,0.2,0,0.3,0
			c0.3,0,0.5-0.1,0.7-0.1c0.1,0,0.2-0.1,0.3-0.1c0.2-0.1,0.5-0.1,0.7-0.2c0.1,0,0.2-0.1,0.3-0.1c0.3-0.1,0.5-0.2,0.8-0.3
			c0.1,0,0.1-0.1,0.2-0.1c3.1-1.6,5.3-4.9,5.3-8.6c0-5.3-4.3-9.7-9.7-9.7c-5.3,0-9.7,4.3-9.7,9.7c0,2.2,0.7,4.2,2,5.9
			c-1.3,1-2.5,2.3-3.5,3.8c0.4,0.8,0.9,1.5,1.8,1.9c0.5,0.3,1.1,0.5,1.7,0.7c2.3,0.9,5.2,2,4.2,6.1c-0.2,0.9-0.5,1.9-0.8,2.9
			c-1.1,3.7-2.4,8.2-1.5,13.5c1.8,0.3,3.7,0.4,5.8,0.4c2.1,0,4-0.1,5.8-0.4C325.9,137,324.5,132.5,323.5,128.8z"/>
		<path fill="#FFFFFF" d="M313.9,128.5c0.3-1,0.6-2,0.8-2.8c0.7-3.1-1.3-3.9-3.6-4.8c-0.6-0.2-1.3-0.5-1.8-0.8
			c-0.9-0.5-1.5-1.1-1.9-1.9c-0.1,0.2-0.3,0.5-0.4,0.7c0.2,0,0.3,0,0.5,0.1c0.6,0.4,0.4,1.3,0.3,2.1c-0.1,0.5-0.3,0.9-0.4,1.3
			c-0.7,1.8-1.4,3.9,0.7,8.5c0.3,0.1,0.7,0.3,1.1,0.7c0.9,0.9,1.6,2.3,1.8,3.7c0.2,1.6-0.1,3-1,3.9c-0.4,0.4-1,0.7-1.6,0.9
			c1.2,0.9,2.6,1.5,4.2,1.8C311.5,136.7,312.8,132.2,313.9,128.5z"/>
		<path fill="#FFFFFF" d="M309.7,135.6c-0.2-1.2-0.7-2.4-1.5-3.1c-0.4-0.4-0.6-0.4-0.7-0.4c-0.3,0-0.7,0.6-1.1,1.1
			c-0.4,0.5-0.8,1.1-1.3,1.6c-0.5,0.5-1.1,0.9-1.6,1.3c-0.5,0.4-1.1,0.8-1.1,1.1c0,0.2,0.1,0.4,0.4,0.7c0.9,0.9,2.5,1.5,3.9,1.5
			c0.7,0,1.6-0.1,2.2-0.8C309.6,137.9,309.9,136.8,309.7,135.6z"/>
		<path fill="#FFFFFF" d="M306.6,120.9c0.1-0.6,0.1-0.9,0.1-1l-0.2-0.3c-2.7,1.5-4.6,4.4-4.6,10c0,2.1,0.3,4.1,0.8,5.8
			c0.1-0.1,0.2-0.1,0.2-0.2c0.5-0.3,1-0.7,1.4-1.2c0.5-0.5,0.8-1,1.2-1.4c0.4-0.6,0.8-1.1,1.2-1.4c-2.1-4.9-1.3-7.2-0.6-9.1
			C306.4,121.7,306.5,121.3,306.6,120.9z"/>
	</g>
</g>
<g>
	<g>
		<path fill="#FFFFFF" d="M391.9,119.5c-0.6,0.3-1.2,0.6-1.8,0.8c-2.3,0.9-4.3,1.7-3.6,4.8c0.2,0.9,0.5,1.8,0.8,2.8
			c1.1,3.7,2.4,8.2,1.6,13.6c1.6-0.4,3-1,4.2-1.8c-0.6-0.2-1.2-0.5-1.6-0.9c-0.9-0.9-1.3-2.3-1-3.9c0.2-1.4,0.9-2.8,1.8-3.7
			c0.4-0.4,0.7-0.6,1.1-0.7c2.1-4.7,1.3-6.7,0.7-8.5c-0.2-0.5-0.3-0.9-0.4-1.3c-0.2-0.8-0.3-1.7,0.3-2.1c0.2-0.1,0.3-0.1,0.5-0.1
			c-0.1-0.3-0.3-0.5-0.4-0.8C393.4,118.4,392.8,119,391.9,119.5z"/>
		<path fill="#FFFFFF" d="M393.6,131.6c-0.1,0-0.3,0.1-0.7,0.4c-0.7,0.7-1.3,1.9-1.5,3.1c-0.2,1.2,0.1,2.3,0.7,3
			c0.6,0.6,1.6,0.8,2.2,0.8c1.4,0,2.9-0.6,3.9-1.5c0.3-0.3,0.4-0.5,0.4-0.7c0-0.3-0.6-0.7-1.1-1.1c-0.5-0.4-1.1-0.8-1.6-1.3
			c-0.5-0.5-0.9-1.1-1.3-1.6C394.3,132.1,393.9,131.6,393.6,131.6z"/>
		<path fill="#FFFFFF" d="M395.6,132.1c0.3,0.5,0.7,1,1.2,1.4c0.5,0.5,1,0.8,1.4,1.2c0.1,0.1,0.2,0.1,0.2,0.2
			c0.5-1.8,0.8-3.7,0.8-5.8c0-5.5-1.9-8.5-4.6-9.9l-0.2,0.3c0,0.1,0,0.4,0.1,1c0.1,0.4,0.2,0.8,0.4,1.2c0.7,1.9,1.5,4.2-0.6,9.1
			C394.8,131,395.2,131.5,395.6,132.1z"/>
		<path fill="#FFFFFF" d="M386.3,128.3c-0.3-1-0.6-2-0.8-2.9c-0.9-4,1.9-5.2,4.2-6.1c0.6-0.2,1.2-0.5,1.7-0.7c0.9-0.5,1.4-1.2,1.8-2
			c-0.5-0.8-1.1-1.5-1.8-2.2c-1.8,2-4.4,3.3-7.3,3.3c-2,0-3.9-0.6-5.4-1.6c0.2,0.1,0.5,0.2,0.7,0.2c0,0,0.1,0,0.1,0
			c0.2,0.1,0.4,0.1,0.7,0.1c0.1,0,0.2,0,0.3,0c0.2,0,0.3,0.1,0.5,0.1c0.3,0,0.6,0,0.9,0c0.4,0,0.7,0,1.1-0.1c0.1,0,0.2,0,0.3,0
			c0.3,0,0.5-0.1,0.7-0.1c0.1,0,0.2-0.1,0.3-0.1c0.2-0.1,0.5-0.1,0.7-0.2c0.1,0,0.2-0.1,0.3-0.1c0.3-0.1,0.5-0.2,0.8-0.3
			c0.1,0,0.1-0.1,0.2-0.1c3.1-1.6,5.3-4.9,5.3-8.6c0-5.3-4.3-9.7-9.7-9.7s-9.7,4.3-9.7,9.7c0,2.2,0.7,4.2,2,5.9
			c-1.3,1-2.5,2.3-3.5,3.8c0.4,0.8,0.9,1.5,1.8,1.9c0.5,0.3,1.1,0.5,1.7,0.7c2.3,0.9,5.2,2,4.2,6.1c-0.2,0.9-0.5,1.9-0.8,2.9
			c-1.1,3.7-2.4,8.2-1.5,13.5c1.8,0.3,3.7,0.4,5.8,0.4s4-0.1,5.8-0.4C388.7,136.5,387.3,132,386.3,128.3z"/>
		<path fill="#FFFFFF" d="M376.7,128c0.3-1,0.6-2,0.8-2.8c0.7-3.1-1.3-3.9-3.6-4.8c-0.6-0.2-1.3-0.5-1.8-0.8
			c-0.9-0.5-1.5-1.1-1.9-1.9c-0.1,0.2-0.3,0.5-0.4,0.7c0.2,0,0.3,0,0.5,0.1c0.6,0.4,0.4,1.3,0.3,2.1c-0.1,0.5-0.3,0.9-0.4,1.3
			c-0.7,1.8-1.4,3.9,0.7,8.5c0.3,0.1,0.7,0.3,1.1,0.7c0.9,0.9,1.6,2.3,1.8,3.7c0.2,1.6-0.1,3-1,3.9c-0.4,0.4-1,0.7-1.6,0.9
			c1.2,0.9,2.6,1.5,4.2,1.8C374.3,136.2,375.6,131.7,376.7,128z"/>
		<path fill="#FFFFFF" d="M372.5,135.1c-0.2-1.2-0.7-2.4-1.5-3.1c-0.4-0.4-0.6-0.4-0.7-0.4c-0.3,0-0.7,0.6-1.1,1.1
			c-0.4,0.5-0.8,1.1-1.3,1.6c-0.5,0.5-1.1,0.9-1.6,1.3c-0.5,0.4-1.1,0.8-1.1,1.1c0,0.2,0.1,0.4,0.4,0.7c0.9,0.9,2.5,1.5,3.9,1.5
			c0.6,0,1.6-0.1,2.2-0.8C372.4,137.4,372.7,136.3,372.5,135.1z"/>
		<path fill="#FFFFFF" d="M369.4,120.4c0.1-0.6,0.1-0.9,0.1-1l-0.2-0.3c-2.7,1.5-4.6,4.4-4.6,10c0,2.1,0.3,4.1,0.8,5.8
			c0.1-0.1,0.2-0.1,0.2-0.2c0.5-0.3,1-0.7,1.4-1.2c0.5-0.5,0.8-1,1.2-1.4c0.4-0.6,0.8-1.1,1.2-1.4c-2.1-4.9-1.3-7.2-0.6-9.1
			C369.2,121.2,369.3,120.8,369.4,120.4z"/>
	</g>
</g>
<g>
	<g>
		<path fill="#FFFFFF" d="M77.9,179.9c-0.6,0.3-1.2,0.6-1.8,0.8c-2.3,0.9-4.3,1.7-3.6,4.8c0.2,0.9,0.5,1.8,0.8,2.8
			c1.1,3.7,2.4,8.2,1.6,13.6c1.6-0.4,3-1,4.2-1.8c-0.6-0.2-1.2-0.5-1.6-0.9c-0.9-0.9-1.3-2.3-1-3.9c0.2-1.4,0.9-2.8,1.8-3.7
			c0.4-0.4,0.7-0.6,1.1-0.7c2.1-4.7,1.3-6.7,0.7-8.5c-0.2-0.5-0.3-0.9-0.4-1.3c-0.2-0.8-0.3-1.7,0.3-2.1c0.2-0.1,0.3-0.1,0.5-0.1
			c-0.1-0.3-0.3-0.5-0.4-0.8C79.4,178.7,78.8,179.4,77.9,179.9z"/>
		<path fill="#FFFFFF" d="M79.6,191.9c-0.1,0-0.3,0.1-0.7,0.4c-0.7,0.7-1.3,1.9-1.5,3.1c-0.2,1.2,0.1,2.3,0.7,3
			c0.6,0.6,1.6,0.8,2.2,0.8c1.4,0,2.9-0.6,3.9-1.5c0.3-0.3,0.4-0.5,0.4-0.7c0-0.3-0.6-0.7-1.1-1.1c-0.5-0.4-1.1-0.8-1.6-1.3
			c-0.5-0.5-0.9-1.1-1.3-1.6C80.3,192.5,79.9,191.9,79.6,191.9z"/>
		<path fill="#FFFFFF" d="M81.6,192.4c0.3,0.5,0.7,1,1.2,1.4c0.5,0.5,1,0.8,1.4,1.2c0.1,0.1,0.2,0.1,0.2,0.2
			c0.5-1.8,0.8-3.7,0.8-5.8c0-5.5-1.9-8.5-4.6-9.9l-0.2,0.3c0,0.1,0,0.4,0.1,1c0.1,0.4,0.2,0.8,0.4,1.2c0.7,1.9,1.5,4.2-0.6,9.1
			C80.8,191.4,81.2,191.9,81.6,192.4z"/>
		<path fill="#FFFFFF" d="M72.3,188.6c-0.3-1-0.6-2-0.8-2.9c-0.9-4,1.9-5.2,4.2-6.1c0.6-0.2,1.2-0.5,1.7-0.7c0.9-0.5,1.4-1.2,1.8-2
			c-0.5-0.8-1.1-1.5-1.8-2.2c-1.8,2-4.4,3.3-7.3,3.3c-2,0-3.9-0.6-5.4-1.6c0.2,0.1,0.5,0.2,0.7,0.2c0,0,0.1,0,0.1,0
			c0.2,0.1,0.4,0.1,0.7,0.1c0.1,0,0.2,0,0.3,0c0.2,0,0.3,0.1,0.5,0.1c0.3,0,0.6,0,0.9,0c0.4,0,0.7,0,1.1-0.1c0.1,0,0.2,0,0.3,0
			c0.3,0,0.5-0.1,0.7-0.1c0.1,0,0.2-0.1,0.3-0.1c0.2-0.1,0.5-0.1,0.7-0.2c0.1,0,0.2-0.1,0.3-0.1c0.3-0.1,0.5-0.2,0.8-0.3
			c0.1,0,0.1-0.1,0.2-0.1c3.1-1.6,5.3-4.9,5.3-8.6c0-5.3-4.3-9.7-9.7-9.7s-9.7,4.3-9.7,9.7c0,2.2,0.7,4.2,2,5.9
			c-1.3,1-2.5,2.3-3.5,3.8c0.4,0.8,0.9,1.5,1.8,1.9c0.5,0.3,1.1,0.5,1.7,0.7c2.3,0.9,5.2,2,4.2,6.1c-0.2,0.9-0.5,1.9-0.8,2.9
			c-1.1,3.7-2.4,8.2-1.5,13.5c1.8,0.3,3.7,0.4,5.8,0.4s4-0.1,5.8-0.4C74.7,196.9,73.3,192.3,72.3,188.6z"/>
		<path fill="#FFFFFF" d="M62.7,188.3c0.3-1,0.6-2,0.8-2.8c0.7-3.1-1.3-3.9-3.6-4.8c-0.6-0.2-1.3-0.5-1.8-0.8
			c-0.9-0.5-1.5-1.1-1.9-1.9c-0.1,0.2-0.3,0.5-0.4,0.7c0.2,0,0.3,0,0.5,0.1c0.6,0.4,0.4,1.3,0.3,2.1c-0.1,0.5-0.3,0.9-0.4,1.3
			c-0.7,1.8-1.4,3.9,0.7,8.5c0.3,0.1,0.7,0.3,1.1,0.7c0.9,0.9,1.6,2.3,1.8,3.7c0.2,1.6-0.1,3-1,3.9c-0.4,0.4-1,0.7-1.6,0.9
			c1.2,0.9,2.6,1.5,4.2,1.8C60.3,196.6,61.6,192.1,62.7,188.3z"/>
		<path fill="#FFFFFF" d="M58.5,195.5c-0.2-1.2-0.7-2.4-1.5-3.1c-0.4-0.4-0.6-0.4-0.7-0.4c-0.3,0-0.7,0.6-1.1,1.1
			c-0.4,0.5-0.8,1.1-1.3,1.6c-0.5,0.5-1.1,0.9-1.6,1.3c-0.5,0.4-1.1,0.8-1.1,1.1c0,0.2,0.1,0.4,0.4,0.7c0.9,0.9,2.5,1.5,3.9,1.5
			c0.7,0,1.6-0.1,2.2-0.8C58.4,197.8,58.7,196.7,58.5,195.5z"/>
		<path fill="#FFFFFF" d="M55.4,180.8c0.1-0.6,0.1-0.9,0.1-1l-0.2-0.3c-2.7,1.5-4.6,4.4-4.6,10c0,2.1,0.3,4.1,0.8,5.8
			c0.1-0.1,0.2-0.1,0.2-0.2c0.5-0.3,1-0.7,1.4-1.2c0.5-0.5,0.8-1,1.2-1.4c0.4-0.6,0.8-1.1,1.2-1.4c-2.1-4.9-1.3-7.2-0.6-9.1
			C55.2,181.6,55.3,181.2,55.4,180.8z"/>
	</g>
</g>
<g>
	<g>
		<path fill="#FFFFFF" d="M140.7,179.9c-0.6,0.3-1.2,0.6-1.8,0.8c-2.3,0.9-4.3,1.7-3.6,4.8c0.2,0.9,0.5,1.8,0.8,2.8
			c1.1,3.7,2.4,8.2,1.6,13.6c1.6-0.4,3-1,4.2-1.8c-0.6-0.2-1.2-0.5-1.6-0.9c-0.9-0.9-1.3-2.3-1-3.9c0.2-1.4,0.9-2.8,1.8-3.7
			c0.4-0.4,0.7-0.6,1.1-0.7c2.1-4.7,1.3-6.7,0.7-8.5c-0.2-0.5-0.3-0.9-0.4-1.3c-0.2-0.8-0.3-1.7,0.3-2.1c0.2-0.1,0.3-0.1,0.5-0.1
			c-0.1-0.3-0.3-0.5-0.4-0.8C142.2,178.7,141.6,179.4,140.7,179.9z"/>
		<path fill="#FFFFFF" d="M142.4,191.9c-0.1,0-0.3,0.1-0.7,0.4c-0.7,0.7-1.3,1.9-1.5,3.1c-0.2,1.2,0.1,2.3,0.7,3
			c0.6,0.6,1.6,0.8,2.2,0.8c1.4,0,2.9-0.6,3.9-1.5c0.3-0.3,0.4-0.5,0.4-0.7c0-0.3-0.6-0.7-1.1-1.1c-0.5-0.4-1.1-0.8-1.6-1.3
			c-0.5-0.5-0.9-1.1-1.3-1.6C143.1,192.5,142.7,191.9,142.4,191.9z"/>
		<path fill="#FFFFFF" d="M144.4,192.4c0.3,0.5,0.7,1,1.2,1.4c0.5,0.5,1,0.8,1.4,1.2c0.1,0.1,0.2,0.1,0.2,0.2
			c0.5-1.8,0.8-3.7,0.8-5.8c0-5.5-1.9-8.5-4.6-9.9l-0.2,0.3c0,0.1,0,0.4,0.1,1c0.1,0.4,0.2,0.8,0.4,1.2c0.7,1.9,1.5,4.2-0.6,9.1
			C143.6,191.4,144,191.9,144.4,192.4z"/>
		<path fill="#FFFFFF" d="M135.1,188.6c-0.3-1-0.6-2-0.8-2.9c-0.9-4,1.9-5.2,4.2-6.1c0.6-0.2,1.2-0.5,1.7-0.7c0.9-0.5,1.4-1.2,1.8-2
			c-0.5-0.8-1.1-1.5-1.8-2.2c-1.8,2-4.4,3.3-7.3,3.3c-2,0-3.9-0.6-5.4-1.6c0.2,0.1,0.5,0.2,0.7,0.2c0,0,0.1,0,0.1,0
			c0.2,0.1,0.4,0.1,0.7,0.1c0.1,0,0.2,0,0.3,0c0.2,0,0.3,0.1,0.5,0.1c0.3,0,0.6,0,0.9,0c0.4,0,0.7,0,1.1-0.1c0.1,0,0.2,0,0.3,0
			c0.3,0,0.5-0.1,0.7-0.1c0.1,0,0.2-0.1,0.3-0.1c0.2-0.1,0.5-0.1,0.7-0.2c0.1,0,0.2-0.1,0.3-0.1c0.3-0.1,0.5-0.2,0.8-0.3
			c0.1,0,0.1-0.1,0.2-0.1c3.1-1.6,5.3-4.9,5.3-8.6c0-5.3-4.3-9.7-9.7-9.7s-9.7,4.3-9.7,9.7c0,2.2,0.7,4.2,2,5.9
			c-1.3,1-2.5,2.3-3.5,3.8c0.4,0.8,0.9,1.5,1.8,1.9c0.5,0.3,1.1,0.5,1.7,0.7c2.3,0.9,5.2,2,4.2,6.1c-0.2,0.9-0.5,1.9-0.8,2.9
			c-1.1,3.7-2.4,8.2-1.5,13.5c1.8,0.3,3.7,0.4,5.8,0.4s4-0.1,5.8-0.4C137.5,196.9,136.1,192.3,135.1,188.6z"/>
		<path fill="#FFFFFF" d="M125.5,188.3c0.3-1,0.6-2,0.8-2.8c0.7-3.1-1.3-3.9-3.6-4.8c-0.6-0.2-1.3-0.5-1.8-0.8
			c-0.9-0.5-1.5-1.1-1.9-1.9c-0.1,0.2-0.3,0.5-0.4,0.7c0.2,0,0.3,0,0.5,0.1c0.6,0.4,0.4,1.3,0.3,2.1c-0.1,0.5-0.3,0.9-0.4,1.3
			c-0.7,1.8-1.4,3.9,0.7,8.5c0.3,0.1,0.7,0.3,1.1,0.7c0.9,0.9,1.6,2.3,1.8,3.7c0.2,1.6-0.1,3-1,3.9c-0.4,0.4-1,0.7-1.6,0.9
			c1.2,0.9,2.6,1.5,4.2,1.8C123.1,196.6,124.4,192.1,125.5,188.3z"/>
		<path fill="#FFFFFF" d="M121.3,195.5c-0.2-1.2-0.7-2.4-1.5-3.1c-0.4-0.4-0.6-0.4-0.7-0.4c-0.3,0-0.7,0.6-1.1,1.1
			c-0.4,0.5-0.8,1.1-1.3,1.6c-0.5,0.5-1.1,0.9-1.6,1.3c-0.5,0.4-1.1,0.8-1.1,1.1c0,0.2,0.1,0.4,0.4,0.7c0.9,0.9,2.5,1.5,3.9,1.5
			c0.7,0,1.6-0.1,2.2-0.8C121.2,197.8,121.5,196.7,121.3,195.5z"/>
		<path fill="#FFFFFF" d="M118.2,180.8c0.1-0.6,0.1-0.9,0.1-1l-0.2-0.3c-2.7,1.5-4.6,4.4-4.6,10c0,2.1,0.3,4.1,0.8,5.8
			c0.1-0.1,0.2-0.1,0.2-0.2c0.5-0.3,1-0.7,1.4-1.2c0.5-0.5,0.8-1,1.2-1.4c0.4-0.6,0.8-1.1,1.2-1.4c-2.1-4.9-1.3-7.2-0.6-9.1
			C118,181.6,118.1,181.2,118.2,180.8z"/>
	</g>
</g>
<g>
	<g>
		<path fill="#FFFFFF" d="M203.5,179.9c-0.6,0.3-1.2,0.6-1.8,0.8c-2.3,0.9-4.3,1.7-3.6,4.8c0.2,0.9,0.5,1.8,0.8,2.8
			c1.1,3.7,2.4,8.2,1.6,13.6c1.6-0.4,3-1,4.2-1.8c-0.6-0.2-1.2-0.5-1.6-0.9c-0.9-0.9-1.3-2.3-1-3.9c0.2-1.4,0.9-2.8,1.8-3.7
			c0.4-0.4,0.7-0.6,1.1-0.7c2.1-4.7,1.3-6.7,0.7-8.5c-0.2-0.5-0.3-0.9-0.4-1.3c-0.2-0.8-0.3-1.7,0.3-2.1c0.2-0.1,0.3-0.1,0.5-0.1
			c-0.1-0.3-0.3-0.5-0.4-0.8C205,178.7,204.4,179.4,203.5,179.9z"/>
		<path fill="#FFFFFF" d="M205.2,191.9c-0.1,0-0.3,0.1-0.7,0.4c-0.7,0.7-1.3,1.9-1.5,3.1c-0.2,1.2,0.1,2.3,0.7,3
			c0.6,0.6,1.6,0.8,2.2,0.8c1.4,0,2.9-0.6,3.9-1.5c0.3-0.3,0.4-0.5,0.4-0.7c0-0.3-0.6-0.7-1.1-1.1c-0.5-0.4-1.1-0.8-1.6-1.3
			c-0.5-0.5-0.9-1.1-1.3-1.6C205.9,192.5,205.5,191.9,205.2,191.9z"/>
		<path fill="#FFFFFF" d="M207.2,192.4c0.3,0.5,0.7,1,1.2,1.4c0.5,0.5,1,0.8,1.4,1.2c0.1,0.1,0.2,0.1,0.2,0.2
			c0.5-1.8,0.8-3.7,0.8-5.8c0-5.5-1.9-8.5-4.6-9.9l-0.2,0.3c0,0.1,0,0.4,0.1,1c0.1,0.4,0.2,0.8,0.4,1.2c0.7,1.9,1.5,4.2-0.6,9.1
			C206.4,191.4,206.8,191.9,207.2,192.4z"/>
		<path fill="#FFFFFF" d="M197.9,188.6c-0.3-1-0.6-2-0.8-2.9c-0.9-4,1.9-5.2,4.2-6.1c0.6-0.2,1.2-0.5,1.7-0.7c0.9-0.5,1.4-1.2,1.8-2
			c-0.5-0.8-1.1-1.5-1.8-2.2c-1.8,2-4.4,3.3-7.3,3.3c-2,0-3.9-0.6-5.4-1.6c0.2,0.1,0.5,0.2,0.7,0.2c0,0,0.1,0,0.1,0
			c0.2,0.1,0.4,0.1,0.7,0.1c0.1,0,0.2,0,0.3,0c0.2,0,0.3,0.1,0.5,0.1c0.3,0,0.6,0,0.9,0c0.4,0,0.7,0,1.1-0.1c0.1,0,0.2,0,0.3,0
			c0.3,0,0.5-0.1,0.7-0.1c0.1,0,0.2-0.1,0.3-0.1c0.2-0.1,0.5-0.1,0.7-0.2c0.1,0,0.2-0.1,0.3-0.1c0.3-0.1,0.5-0.2,0.8-0.3
			c0.1,0,0.1-0.1,0.2-0.1c3.1-1.6,5.3-4.9,5.3-8.6c0-5.3-4.3-9.7-9.7-9.7c-5.3,0-9.7,4.3-9.7,9.7c0,2.2,0.7,4.2,2,5.9
			c-1.3,1-2.5,2.3-3.5,3.8c0.4,0.8,0.9,1.5,1.8,1.9c0.5,0.3,1.1,0.5,1.7,0.7c2.3,0.9,5.2,2,4.2,6.1c-0.2,0.9-0.5,1.9-0.8,2.9
			c-1.1,3.7-2.4,8.2-1.5,13.5c1.8,0.3,3.7,0.4,5.8,0.4c2.1,0,4-0.1,5.8-0.4C200.3,196.9,198.9,192.3,197.9,188.6z"/>
		<path fill="#FFFFFF" d="M188.3,188.3c0.3-1,0.6-2,0.8-2.8c0.7-3.1-1.3-3.9-3.6-4.8c-0.6-0.2-1.3-0.5-1.8-0.8
			c-0.9-0.5-1.5-1.1-1.9-1.9c-0.1,0.2-0.3,0.5-0.4,0.7c0.2,0,0.3,0,0.5,0.1c0.6,0.4,0.4,1.3,0.3,2.1c-0.1,0.5-0.3,0.9-0.4,1.3
			c-0.7,1.8-1.4,3.9,0.7,8.5c0.3,0.1,0.7,0.3,1.1,0.7c0.9,0.9,1.6,2.3,1.8,3.7c0.2,1.6-0.1,3-1,3.9c-0.4,0.4-1,0.7-1.6,0.9
			c1.2,0.9,2.6,1.5,4.2,1.8C185.9,196.6,187.2,192.1,188.3,188.3z"/>
		<path fill="#FFFFFF" d="M184.1,195.5c-0.2-1.2-0.7-2.4-1.5-3.1c-0.4-0.4-0.6-0.4-0.7-0.4c-0.3,0-0.7,0.6-1.1,1.1
			c-0.4,0.5-0.8,1.1-1.3,1.6c-0.5,0.5-1.1,0.9-1.6,1.3c-0.5,0.4-1.1,0.8-1.1,1.1c0,0.2,0.1,0.4,0.4,0.7c0.9,0.9,2.5,1.5,3.9,1.5
			c0.7,0,1.6-0.1,2.2-0.8C184,197.8,184.3,196.7,184.1,195.5z"/>
		<path fill="#FFFFFF" d="M181,180.8c0.1-0.6,0.1-0.9,0.1-1l-0.2-0.3c-2.7,1.5-4.6,4.4-4.6,10c0,2.1,0.3,4.1,0.8,5.8
			c0.1-0.1,0.2-0.1,0.2-0.2c0.5-0.3,1-0.7,1.4-1.2c0.5-0.5,0.8-1,1.2-1.4c0.4-0.6,0.8-1.1,1.2-1.4c-2.1-4.9-1.3-7.2-0.6-9.1
			C180.8,181.6,180.9,181.2,181,180.8z"/>
	</g>
</g>
<g>
	<g>
		<path fill="#FFFFFF" d="M266.3,179.9c-0.6,0.3-1.2,0.6-1.8,0.8c-2.3,0.9-4.3,1.7-3.6,4.8c0.2,0.9,0.5,1.8,0.8,2.8
			c1.1,3.7,2.4,8.2,1.6,13.6c1.6-0.4,3-1,4.2-1.8c-0.6-0.2-1.2-0.5-1.6-0.9c-0.9-0.9-1.3-2.3-1-3.9c0.2-1.4,0.9-2.8,1.8-3.7
			c0.4-0.4,0.7-0.6,1.1-0.7c2.1-4.7,1.3-6.7,0.7-8.5c-0.2-0.5-0.3-0.9-0.4-1.3c-0.2-0.8-0.3-1.7,0.3-2.1c0.2-0.1,0.3-0.1,0.5-0.1
			c-0.1-0.3-0.3-0.5-0.4-0.8C267.8,178.7,267.2,179.4,266.3,179.9z"/>
		<path fill="#FFFFFF" d="M268,191.9c-0.1,0-0.3,0.1-0.7,0.4c-0.7,0.7-1.3,1.9-1.5,3.1c-0.2,1.2,0.1,2.3,0.7,3
			c0.6,0.6,1.6,0.8,2.2,0.8c1.4,0,2.9-0.6,3.9-1.5c0.3-0.3,0.4-0.5,0.4-0.7c0-0.3-0.6-0.7-1.1-1.1c-0.5-0.4-1.1-0.8-1.6-1.3
			c-0.5-0.5-0.9-1.1-1.3-1.6C268.7,192.5,268.3,191.9,268,191.9z"/>
		<path fill="#FFFFFF" d="M270,192.4c0.3,0.5,0.7,1,1.2,1.4c0.5,0.5,1,0.8,1.4,1.2c0.1,0.1,0.2,0.1,0.2,0.2c0.5-1.8,0.8-3.7,0.8-5.8
			c0-5.5-1.9-8.5-4.6-9.9l-0.2,0.3c0,0.1,0,0.4,0.1,1c0.1,0.4,0.2,0.8,0.4,1.2c0.7,1.9,1.5,4.2-0.6,9.1
			C269.2,191.4,269.6,191.9,270,192.4z"/>
		<path fill="#FFFFFF" d="M260.7,188.6c-0.3-1-0.6-2-0.8-2.9c-0.9-4,1.9-5.2,4.2-6.1c0.6-0.2,1.2-0.5,1.7-0.7c0.9-0.5,1.4-1.2,1.8-2
			c-0.5-0.8-1.1-1.5-1.8-2.2c-1.8,2-4.4,3.3-7.3,3.3c-2,0-3.9-0.6-5.4-1.6c0.2,0.1,0.5,0.2,0.7,0.2c0,0,0.1,0,0.1,0
			c0.2,0.1,0.4,0.1,0.7,0.1c0.1,0,0.2,0,0.3,0c0.2,0,0.3,0.1,0.5,0.1c0.3,0,0.6,0,0.9,0c0.4,0,0.7,0,1.1-0.1c0.1,0,0.2,0,0.3,0
			c0.3,0,0.5-0.1,0.7-0.1c0.1,0,0.2-0.1,0.3-0.1c0.2-0.1,0.5-0.1,0.7-0.2c0.1,0,0.2-0.1,0.3-0.1c0.3-0.1,0.5-0.2,0.8-0.3
			c0.1,0,0.1-0.1,0.2-0.1c3.1-1.6,5.3-4.9,5.3-8.6c0-5.3-4.3-9.7-9.7-9.7c-5.3,0-9.7,4.3-9.7,9.7c0,2.2,0.7,4.2,2,5.9
			c-1.3,1-2.5,2.3-3.5,3.8c0.4,0.8,0.9,1.5,1.8,1.9c0.5,0.3,1.1,0.5,1.7,0.7c2.3,0.9,5.2,2,4.2,6.1c-0.2,0.9-0.5,1.9-0.8,2.9
			c-1.1,3.7-2.4,8.2-1.5,13.5c1.8,0.3,3.7,0.4,5.8,0.4c2.1,0,4-0.1,5.8-0.4C263.1,196.9,261.7,192.3,260.7,188.6z"/>
		<path fill="#FFFFFF" d="M251.1,188.3c0.3-1,0.6-2,0.8-2.8c0.7-3.1-1.3-3.9-3.6-4.8c-0.6-0.2-1.3-0.5-1.8-0.8
			c-0.9-0.5-1.5-1.1-1.9-1.9c-0.1,0.2-0.3,0.5-0.4,0.7c0.2,0,0.3,0,0.5,0.1c0.6,0.4,0.4,1.3,0.3,2.1c-0.1,0.5-0.3,0.9-0.4,1.3
			c-0.7,1.8-1.4,3.9,0.7,8.5c0.3,0.1,0.7,0.3,1.1,0.7c0.9,0.9,1.6,2.3,1.8,3.7c0.2,1.6-0.1,3-1,3.9c-0.4,0.4-1,0.7-1.6,0.9
			c1.2,0.9,2.6,1.5,4.2,1.8C248.7,196.6,250,192.1,251.1,188.3z"/>
		<path fill="#FFFFFF" d="M246.9,195.5c-0.2-1.2-0.7-2.4-1.5-3.1c-0.4-0.4-0.6-0.4-0.7-0.4c-0.3,0-0.7,0.6-1.1,1.1
			c-0.4,0.5-0.8,1.1-1.3,1.6c-0.5,0.5-1.1,0.9-1.6,1.3c-0.5,0.4-1.1,0.8-1.1,1.1c0,0.2,0.1,0.4,0.4,0.7c0.9,0.9,2.5,1.5,3.9,1.5
			c0.7,0,1.6-0.1,2.2-0.8C246.8,197.8,247.1,196.7,246.9,195.5z"/>
		<path fill="#FFFFFF" d="M243.8,180.8c0.1-0.6,0.1-0.9,0.1-1l-0.2-0.3c-2.7,1.5-4.6,4.4-4.6,10c0,2.1,0.3,4.1,0.8,5.8
			c0.1-0.1,0.2-0.1,0.2-0.2c0.5-0.3,1-0.7,1.4-1.2c0.5-0.5,0.8-1,1.2-1.4c0.4-0.6,0.8-1.1,1.2-1.4c-2.1-4.9-1.3-7.2-0.6-9.1
			C243.6,181.6,243.7,181.2,243.8,180.8z"/>
	</g>
</g>
<g>
	<g>
		<path fill="#FFFFFF" d="M329.1,179.9c-0.6,0.3-1.2,0.6-1.8,0.8c-2.3,0.9-4.3,1.7-3.6,4.8c0.2,0.9,0.5,1.8,0.8,2.8
			c1.1,3.7,2.4,8.2,1.6,13.6c1.6-0.4,3-1,4.2-1.8c-0.6-0.2-1.2-0.5-1.6-0.9c-0.9-0.9-1.3-2.3-1-3.9c0.2-1.4,0.9-2.8,1.8-3.7
			c0.4-0.4,0.7-0.6,1.1-0.7c2.1-4.7,1.3-6.7,0.7-8.5c-0.2-0.5-0.3-0.9-0.4-1.3c-0.2-0.8-0.3-1.7,0.3-2.1c0.2-0.1,0.3-0.1,0.5-0.1
			c-0.1-0.3-0.3-0.5-0.4-0.8C330.6,178.7,330,179.4,329.1,179.9z"/>
		<path fill="#FFFFFF" d="M330.8,191.9c-0.1,0-0.3,0.1-0.7,0.4c-0.7,0.7-1.3,1.9-1.5,3.1c-0.2,1.2,0.1,2.3,0.7,3
			c0.6,0.6,1.6,0.8,2.2,0.8c1.4,0,2.9-0.6,3.9-1.5c0.3-0.3,0.4-0.5,0.4-0.7c0-0.3-0.6-0.7-1.1-1.1c-0.5-0.4-1.1-0.8-1.6-1.3
			c-0.5-0.5-0.9-1.1-1.3-1.6C331.5,192.5,331.1,191.9,330.8,191.9z"/>
		<path fill="#FFFFFF" d="M332.8,192.4c0.3,0.5,0.7,1,1.2,1.4c0.5,0.5,1,0.8,1.4,1.2c0.1,0.1,0.2,0.1,0.2,0.2
			c0.5-1.8,0.8-3.7,0.8-5.8c0-5.5-1.9-8.5-4.6-9.9l-0.2,0.3c0,0.1,0,0.4,0.1,1c0.1,0.4,0.2,0.8,0.4,1.2c0.7,1.9,1.5,4.2-0.6,9.1
			C332,191.4,332.4,191.9,332.8,192.4z"/>
		<path fill="#FFFFFF" d="M323.5,188.6c-0.3-1-0.6-2-0.8-2.9c-0.9-4,1.9-5.2,4.2-6.1c0.6-0.2,1.2-0.5,1.7-0.7c0.9-0.5,1.4-1.2,1.8-2
			c-0.5-0.8-1.1-1.5-1.8-2.2c-1.8,2-4.4,3.3-7.3,3.3c-2,0-3.9-0.6-5.4-1.6c0.2,0.1,0.5,0.2,0.7,0.2c0,0,0.1,0,0.1,0
			c0.2,0.1,0.4,0.1,0.7,0.1c0.1,0,0.2,0,0.3,0c0.2,0,0.3,0.1,0.5,0.1c0.3,0,0.6,0,0.9,0c0.4,0,0.7,0,1.1-0.1c0.1,0,0.2,0,0.3,0
			c0.3,0,0.5-0.1,0.7-0.1c0.1,0,0.2-0.1,0.3-0.1c0.2-0.1,0.5-0.1,0.7-0.2c0.1,0,0.2-0.1,0.3-0.1c0.3-0.1,0.5-0.2,0.8-0.3
			c0.1,0,0.1-0.1,0.2-0.1c3.1-1.6,5.3-4.9,5.3-8.6c0-5.3-4.3-9.7-9.7-9.7c-5.3,0-9.7,4.3-9.7,9.7c0,2.2,0.7,4.2,2,5.9
			c-1.3,1-2.5,2.3-3.5,3.8c0.4,0.8,0.9,1.5,1.8,1.9c0.5,0.3,1.1,0.5,1.7,0.7c2.3,0.9,5.2,2,4.2,6.1c-0.2,0.9-0.5,1.9-0.8,2.9
			c-1.1,3.7-2.4,8.2-1.5,13.5c1.8,0.3,3.7,0.4,5.8,0.4c2.1,0,4-0.1,5.8-0.4C325.9,196.9,324.5,192.3,323.5,188.6z"/>
		<path fill="#FFFFFF" d="M313.9,188.3c0.3-1,0.6-2,0.8-2.8c0.7-3.1-1.3-3.9-3.6-4.8c-0.6-0.2-1.3-0.5-1.8-0.8
			c-0.9-0.5-1.5-1.1-1.9-1.9c-0.1,0.2-0.3,0.5-0.4,0.7c0.2,0,0.3,0,0.5,0.1c0.6,0.4,0.4,1.3,0.3,2.1c-0.1,0.5-0.3,0.9-0.4,1.3
			c-0.7,1.8-1.4,3.9,0.7,8.5c0.3,0.1,0.7,0.3,1.1,0.7c0.9,0.9,1.6,2.3,1.8,3.7c0.2,1.6-0.1,3-1,3.9c-0.4,0.4-1,0.7-1.6,0.9
			c1.2,0.9,2.6,1.5,4.2,1.8C311.5,196.6,312.8,192.1,313.9,188.3z"/>
		<path fill="#FFFFFF" d="M309.7,195.5c-0.2-1.2-0.7-2.4-1.5-3.1c-0.4-0.4-0.6-0.4-0.7-0.4c-0.3,0-0.7,0.6-1.1,1.1
			c-0.4,0.5-0.8,1.1-1.3,1.6c-0.5,0.5-1.1,0.9-1.6,1.3c-0.5,0.4-1.1,0.8-1.1,1.1c0,0.2,0.1,0.4,0.4,0.7c0.9,0.9,2.5,1.5,3.9,1.5
			c0.7,0,1.6-0.1,2.2-0.8C309.6,197.8,309.9,196.7,309.7,195.5z"/>
		<path fill="#FFFFFF" d="M306.6,180.8c0.1-0.6,0.1-0.9,0.1-1l-0.2-0.3c-2.7,1.5-4.6,4.4-4.6,10c0,2.1,0.3,4.1,0.8,5.8
			c0.1-0.1,0.2-0.1,0.2-0.2c0.5-0.3,1-0.7,1.4-1.2c0.5-0.5,0.8-1,1.2-1.4c0.4-0.6,0.8-1.1,1.2-1.4c-2.1-4.9-1.3-7.2-0.6-9.1
			C306.4,181.6,306.5,181.2,306.6,180.8z"/>
	</g>
</g>
<g>
	<g>
		<path fill="#FFFFFF" d="M140.7,239.8c-0.6,0.3-1.2,0.6-1.8,0.8c-2.3,0.9-4.3,1.7-3.6,4.8c0.2,0.9,0.5,1.8,0.8,2.8
			c1.1,3.7,2.4,8.2,1.6,13.6c1.6-0.4,3-1,4.2-1.8c-0.6-0.2-1.2-0.5-1.6-0.9c-0.9-0.9-1.3-2.3-1-3.9c0.2-1.4,0.9-2.8,1.8-3.7
			c0.4-0.4,0.7-0.6,1.1-0.7c2.1-4.7,1.3-6.7,0.7-8.5c-0.2-0.5-0.3-0.9-0.4-1.3c-0.2-0.8-0.3-1.7,0.3-2.1c0.2-0.1,0.3-0.1,0.5-0.1
			c-0.1-0.3-0.3-0.5-0.4-0.8C142.2,238.6,141.6,239.3,140.7,239.8z"/>
		<path fill="#FFFFFF" d="M142.4,251.8c-0.1,0-0.3,0.1-0.7,0.4c-0.7,0.7-1.3,1.9-1.5,3.1c-0.2,1.2,0.1,2.3,0.7,3
			c0.6,0.6,1.6,0.8,2.2,0.8c1.4,0,2.9-0.6,3.9-1.5c0.3-0.3,0.4-0.5,0.4-0.7c0-0.3-0.6-0.7-1.1-1.1c-0.5-0.4-1.1-0.8-1.6-1.3
			c-0.5-0.5-0.9-1.1-1.3-1.6C143.1,252.4,142.7,251.8,142.4,251.8z"/>
		<path fill="#FFFFFF" d="M144.4,252.3c0.3,0.5,0.7,1,1.2,1.4c0.5,0.5,1,0.8,1.4,1.2c0.1,0.1,0.2,0.1,0.2,0.2
			c0.5-1.8,0.8-3.7,0.8-5.8c0-5.5-1.9-8.5-4.6-9.9l-0.2,0.3c0,0.1,0,0.4,0.1,1c0.1,0.4,0.2,0.8,0.4,1.2c0.7,1.9,1.5,4.2-0.6,9.1
			C143.6,251.2,144,251.7,144.4,252.3z"/>
		<path fill="#FFFFFF" d="M135.1,248.5c-0.3-1-0.6-2-0.8-2.9c-0.9-4,1.9-5.2,4.2-6.1c0.6-0.2,1.2-0.5,1.7-0.7c0.9-0.5,1.4-1.2,1.8-2
			c-0.5-0.8-1.1-1.5-1.8-2.2c-1.8,2-4.4,3.3-7.3,3.3c-2,0-3.9-0.6-5.4-1.6c0.2,0.1,0.5,0.2,0.7,0.2c0,0,0.1,0,0.1,0
			c0.2,0.1,0.4,0.1,0.7,0.1c0.1,0,0.2,0,0.3,0c0.2,0,0.3,0.1,0.5,0.1c0.3,0,0.6,0,0.9,0c0.4,0,0.7,0,1.1-0.1c0.1,0,0.2,0,0.3,0
			c0.3,0,0.5-0.1,0.7-0.1c0.1,0,0.2-0.1,0.3-0.1c0.2-0.1,0.5-0.1,0.7-0.2c0.1,0,0.2-0.1,0.3-0.1c0.3-0.1,0.5-0.2,0.8-0.3
			c0.1,0,0.1-0.1,0.2-0.1c3.1-1.6,5.3-4.9,5.3-8.6c0-5.3-4.3-9.7-9.7-9.7s-9.7,4.3-9.7,9.7c0,2.2,0.7,4.2,2,5.9
			c-1.3,1-2.5,2.3-3.5,3.8c0.4,0.8,0.9,1.5,1.8,1.9c0.5,0.3,1.1,0.5,1.7,0.7c2.3,0.9,5.2,2,4.2,6.1c-0.2,0.9-0.5,1.9-0.8,2.9
			c-1.1,3.7-2.4,8.2-1.5,13.5c1.8,0.3,3.7,0.4,5.8,0.4s4-0.1,5.8-0.4C137.5,256.7,136.1,252.2,135.1,248.5z"/>
		<path fill="#FFFFFF" d="M125.5,248.2c0.3-1,0.6-2,0.8-2.8c0.7-3.1-1.3-3.9-3.6-4.8c-0.6-0.2-1.3-0.5-1.8-0.8
			c-0.9-0.5-1.5-1.1-1.9-1.9c-0.1,0.2-0.3,0.5-0.4,0.7c0.2,0,0.3,0,0.5,0.1c0.6,0.4,0.4,1.3,0.3,2.1c-0.1,0.5-0.3,0.9-0.4,1.3
			c-0.7,1.8-1.4,3.9,0.7,8.5c0.3,0.1,0.7,0.3,1.1,0.7c0.9,0.9,1.6,2.3,1.8,3.7c0.2,1.6-0.1,3-1,3.9c-0.4,0.4-1,0.7-1.6,0.9
			c1.2,0.9,2.6,1.5,4.2,1.8C123.1,256.5,124.4,251.9,125.5,248.2z"/>
		<path fill="#FFFFFF" d="M121.3,255.4c-0.2-1.2-0.7-2.4-1.5-3.1c-0.4-0.4-0.6-0.4-0.7-0.4c-0.3,0-0.7,0.6-1.1,1.1
			c-0.4,0.5-0.8,1.1-1.3,1.6c-0.5,0.5-1.1,0.9-1.6,1.3c-0.5,0.4-1.1,0.8-1.1,1.1c0,0.2,0.1,0.4,0.4,0.7c0.9,0.9,2.5,1.5,3.9,1.5
			c0.7,0,1.6-0.1,2.2-0.8C121.2,257.7,121.5,256.6,121.3,255.4z"/>
		<path fill="#FFFFFF" d="M118.2,240.7c0.1-0.6,0.1-0.9,0.1-1l-0.2-0.3c-2.7,1.5-4.6,4.4-4.6,10c0,2.1,0.3,4.1,0.8,5.8
			c0.1-0.1,0.2-0.1,0.2-0.2c0.5-0.3,1-0.7,1.4-1.2c0.5-0.5,0.8-1,1.2-1.4c0.4-0.6,0.8-1.1,1.2-1.4c-2.1-4.9-1.3-7.2-0.6-9.1
			C118,241.5,118.1,241.1,118.2,240.7z"/>
	</g>
</g>
<g>
	<g>
		<path fill="#FFFFFF" d="M203.5,239.8c-0.6,0.3-1.2,0.6-1.8,0.8c-2.3,0.9-4.3,1.7-3.6,4.8c0.2,0.9,0.5,1.8,0.8,2.8
			c1.1,3.7,2.4,8.2,1.6,13.6c1.6-0.4,3-1,4.2-1.8c-0.6-0.2-1.2-0.5-1.6-0.9c-0.9-0.9-1.3-2.3-1-3.9c0.2-1.4,0.9-2.8,1.8-3.7
			c0.4-0.4,0.7-0.6,1.1-0.7c2.1-4.7,1.3-6.7,0.7-8.5c-0.2-0.5-0.3-0.9-0.4-1.3c-0.2-0.8-0.3-1.7,0.3-2.1c0.2-0.1,0.3-0.1,0.5-0.1
			c-0.1-0.3-0.3-0.5-0.4-0.8C205,238.6,204.4,239.3,203.5,239.8z"/>
		<path fill="#FFFFFF" d="M205.2,251.8c-0.1,0-0.3,0.1-0.7,0.4c-0.7,0.7-1.3,1.9-1.5,3.1c-0.2,1.2,0.1,2.3,0.7,3
			c0.6,0.6,1.6,0.8,2.2,0.8c1.4,0,2.9-0.6,3.9-1.5c0.3-0.3,0.4-0.5,0.4-0.7c0-0.3-0.6-0.7-1.1-1.1c-0.5-0.4-1.1-0.8-1.6-1.3
			c-0.5-0.5-0.9-1.1-1.3-1.6C205.9,252.4,205.5,251.8,205.2,251.8z"/>
		<path fill="#FFFFFF" d="M207.2,252.3c0.3,0.5,0.7,1,1.2,1.4c0.5,0.5,1,0.8,1.4,1.2c0.1,0.1,0.2,0.1,0.2,0.2
			c0.5-1.8,0.8-3.7,0.8-5.8c0-5.5-1.9-8.5-4.6-9.9l-0.2,0.3c0,0.1,0,0.4,0.1,1c0.1,0.4,0.2,0.8,0.4,1.2c0.7,1.9,1.5,4.2-0.6,9.1
			C206.4,251.2,206.8,251.7,207.2,252.3z"/>
		<path fill="#FFFFFF" d="M197.9,248.5c-0.3-1-0.6-2-0.8-2.9c-0.9-4,1.9-5.2,4.2-6.1c0.6-0.2,1.2-0.5,1.7-0.7c0.9-0.5,1.4-1.2,1.8-2
			c-0.5-0.8-1.1-1.5-1.8-2.2c-1.8,2-4.4,3.3-7.3,3.3c-2,0-3.9-0.6-5.4-1.6c0.2,0.1,0.5,0.2,0.7,0.2c0,0,0.1,0,0.1,0
			c0.2,0.1,0.4,0.1,0.7,0.1c0.1,0,0.2,0,0.3,0c0.2,0,0.3,0.1,0.5,0.1c0.3,0,0.6,0,0.9,0c0.4,0,0.7,0,1.1-0.1c0.1,0,0.2,0,0.3,0
			c0.3,0,0.5-0.1,0.7-0.1c0.1,0,0.2-0.1,0.3-0.1c0.2-0.1,0.5-0.1,0.7-0.2c0.1,0,0.2-0.1,0.3-0.1c0.3-0.1,0.5-0.2,0.8-0.3
			c0.1,0,0.1-0.1,0.2-0.1c3.1-1.6,5.3-4.9,5.3-8.6c0-5.3-4.3-9.7-9.7-9.7c-5.3,0-9.7,4.3-9.7,9.7c0,2.2,0.7,4.2,2,5.9
			c-1.3,1-2.5,2.3-3.5,3.8c0.4,0.8,0.9,1.5,1.8,1.9c0.5,0.3,1.1,0.5,1.7,0.7c2.3,0.9,5.2,2,4.2,6.1c-0.2,0.9-0.5,1.9-0.8,2.9
			c-1.1,3.7-2.4,8.2-1.5,13.5c1.8,0.3,3.7,0.4,5.8,0.4c2.1,0,4-0.1,5.8-0.4C200.3,256.7,198.9,252.2,197.9,248.5z"/>
		<path fill="#FFFFFF" d="M188.3,248.2c0.3-1,0.6-2,0.8-2.8c0.7-3.1-1.3-3.9-3.6-4.8c-0.6-0.2-1.3-0.5-1.8-0.8
			c-0.9-0.5-1.5-1.1-1.9-1.9c-0.1,0.2-0.3,0.5-0.4,0.7c0.2,0,0.3,0,0.5,0.1c0.6,0.4,0.4,1.3,0.3,2.1c-0.1,0.5-0.3,0.9-0.4,1.3
			c-0.7,1.8-1.4,3.9,0.7,8.5c0.3,0.1,0.7,0.3,1.1,0.7c0.9,0.9,1.6,2.3,1.8,3.7c0.2,1.6-0.1,3-1,3.9c-0.4,0.4-1,0.7-1.6,0.9
			c1.2,0.9,2.6,1.5,4.2,1.8C185.9,256.5,187.2,251.9,188.3,248.2z"/>
		<path fill="#FFFFFF" d="M184.1,255.4c-0.2-1.2-0.7-2.4-1.5-3.1c-0.4-0.4-0.6-0.4-0.7-0.4c-0.3,0-0.7,0.6-1.1,1.1
			c-0.4,0.5-0.8,1.1-1.3,1.6c-0.5,0.5-1.1,0.9-1.6,1.3c-0.5,0.4-1.1,0.8-1.1,1.1c0,0.2,0.1,0.4,0.4,0.7c0.9,0.9,2.5,1.5,3.9,1.5
			c0.7,0,1.6-0.1,2.2-0.8C184,257.7,184.3,256.6,184.1,255.4z"/>
		<path fill="#FFFFFF" d="M181,240.7c0.1-0.6,0.1-0.9,0.1-1l-0.2-0.3c-2.7,1.5-4.6,4.4-4.6,10c0,2.1,0.3,4.1,0.8,5.8
			c0.1-0.1,0.2-0.1,0.2-0.2c0.5-0.3,1-0.7,1.4-1.2c0.5-0.5,0.8-1,1.2-1.4c0.4-0.6,0.8-1.1,1.2-1.4c-2.1-4.9-1.3-7.2-0.6-9.1
			C180.8,241.5,180.9,241.1,181,240.7z"/>
	</g>
</g>
<g>
	<g>
		<path fill="#FFFFFF" d="M266.3,239.8c-0.6,0.3-1.2,0.6-1.8,0.8c-2.3,0.9-4.3,1.7-3.6,4.8c0.2,0.9,0.5,1.8,0.8,2.8
			c1.1,3.7,2.4,8.2,1.6,13.6c1.6-0.4,3-1,4.2-1.8c-0.6-0.2-1.2-0.5-1.6-0.9c-0.9-0.9-1.3-2.3-1-3.9c0.2-1.4,0.9-2.8,1.8-3.7
			c0.4-0.4,0.7-0.6,1.1-0.7c2.1-4.7,1.3-6.7,0.7-8.5c-0.2-0.5-0.3-0.9-0.4-1.3c-0.2-0.8-0.3-1.7,0.3-2.1c0.2-0.1,0.3-0.1,0.5-0.1
			c-0.1-0.3-0.3-0.5-0.4-0.8C267.8,238.6,267.2,239.3,266.3,239.8z"/>
		<path fill="#FFFFFF" d="M268,251.8c-0.1,0-0.3,0.1-0.7,0.4c-0.7,0.7-1.3,1.9-1.5,3.1c-0.2,1.2,0.1,2.3,0.7,3
			c0.6,0.6,1.6,0.8,2.2,0.8c1.4,0,2.9-0.6,3.9-1.5c0.3-0.3,0.4-0.5,0.4-0.7c0-0.3-0.6-0.7-1.1-1.1c-0.5-0.4-1.1-0.8-1.6-1.3
			c-0.5-0.5-0.9-1.1-1.3-1.6C268.7,252.4,268.3,251.8,268,251.8z"/>
		<path fill="#FFFFFF" d="M270,252.3c0.3,0.5,0.7,1,1.2,1.4c0.5,0.5,1,0.8,1.4,1.2c0.1,0.1,0.2,0.1,0.2,0.2c0.5-1.8,0.8-3.7,0.8-5.8
			c0-5.5-1.9-8.5-4.6-9.9l-0.2,0.3c0,0.1,0,0.4,0.1,1c0.1,0.4,0.2,0.8,0.4,1.2c0.7,1.9,1.5,4.2-0.6,9.1
			C269.2,251.2,269.6,251.7,270,252.3z"/>
		<path fill="#FFFFFF" d="M260.7,248.5c-0.3-1-0.6-2-0.8-2.9c-0.9-4,1.9-5.2,4.2-6.1c0.6-0.2,1.2-0.5,1.7-0.7c0.9-0.5,1.4-1.2,1.8-2
			c-0.5-0.8-1.1-1.5-1.8-2.2c-1.8,2-4.4,3.3-7.3,3.3c-2,0-3.9-0.6-5.4-1.6c0.2,0.1,0.5,0.2,0.7,0.2c0,0,0.1,0,0.1,0
			c0.2,0.1,0.4,0.1,0.7,0.1c0.1,0,0.2,0,0.3,0c0.2,0,0.3,0.1,0.5,0.1c0.3,0,0.6,0,0.9,0c0.4,0,0.7,0,1.1-0.1c0.1,0,0.2,0,0.3,0
			c0.3,0,0.5-0.1,0.7-0.1c0.1,0,0.2-0.1,0.3-0.1c0.2-0.1,0.5-0.1,0.7-0.2c0.1,0,0.2-0.1,0.3-0.1c0.3-0.1,0.5-0.2,0.8-0.3
			c0.1,0,0.1-0.1,0.2-0.1c3.1-1.6,5.3-4.9,5.3-8.6c0-5.3-4.3-9.7-9.7-9.7c-5.3,0-9.7,4.3-9.7,9.7c0,2.2,0.7,4.2,2,5.9
			c-1.3,1-2.5,2.3-3.5,3.8c0.4,0.8,0.9,1.5,1.8,1.9c0.5,0.3,1.1,0.5,1.7,0.7c2.3,0.9,5.2,2,4.2,6.1c-0.2,0.9-0.5,1.9-0.8,2.9
			c-1.1,3.7-2.4,8.2-1.5,13.5c1.8,0.3,3.7,0.4,5.8,0.4c2.1,0,4-0.1,5.8-0.4C263.1,256.7,261.7,252.2,260.7,248.5z"/>
		<path fill="#FFFFFF" d="M251.1,248.2c0.3-1,0.6-2,0.8-2.8c0.7-3.1-1.3-3.9-3.6-4.8c-0.6-0.2-1.3-0.5-1.8-0.8
			c-0.9-0.5-1.5-1.1-1.9-1.9c-0.1,0.2-0.3,0.5-0.4,0.7c0.2,0,0.3,0,0.5,0.1c0.6,0.4,0.4,1.3,0.3,2.1c-0.1,0.5-0.3,0.9-0.4,1.3
			c-0.7,1.8-1.4,3.9,0.7,8.5c0.3,0.1,0.7,0.3,1.1,0.7c0.9,0.9,1.6,2.3,1.8,3.7c0.2,1.6-0.1,3-1,3.9c-0.4,0.4-1,0.7-1.6,0.9
			c1.2,0.9,2.6,1.5,4.2,1.8C248.7,256.5,250,251.9,251.1,248.2z"/>
		<path fill="#FFFFFF" d="M246.9,255.4c-0.2-1.2-0.7-2.4-1.5-3.1c-0.4-0.4-0.6-0.4-0.7-0.4c-0.3,0-0.7,0.6-1.1,1.1
			c-0.4,0.5-0.8,1.1-1.3,1.6c-0.5,0.5-1.1,0.9-1.6,1.3c-0.5,0.4-1.1,0.8-1.1,1.1c0,0.2,0.1,0.4,0.4,0.7c0.9,0.9,2.5,1.5,3.9,1.5
			c0.7,0,1.6-0.1,2.2-0.8C246.8,257.7,247.1,256.6,246.9,255.4z"/>
		<path fill="#FFFFFF" d="M243.8,240.7c0.1-0.6,0.1-0.9,0.1-1l-0.2-0.3c-2.7,1.5-4.6,4.4-4.6,10c0,2.1,0.3,4.1,0.8,5.8
			c0.1-0.1,0.2-0.1,0.2-0.2c0.5-0.3,1-0.7,1.4-1.2c0.5-0.5,0.8-1,1.2-1.4c0.4-0.6,0.8-1.1,1.2-1.4c-2.1-4.9-1.3-7.2-0.6-9.1
			C243.6,241.5,243.7,241.1,243.8,240.7z"/>
	</g>
</g>
<g>
	<g>
		<path fill="#FFFFFF" d="M329.1,239.8c-0.6,0.3-1.2,0.6-1.8,0.8c-2.3,0.9-4.3,1.7-3.6,4.8c0.2,0.9,0.5,1.8,0.8,2.8
			c1.1,3.7,2.4,8.2,1.6,13.6c1.6-0.4,3-1,4.2-1.8c-0.6-0.2-1.2-0.5-1.6-0.9c-0.9-0.9-1.3-2.3-1-3.9c0.2-1.4,0.9-2.8,1.8-3.7
			c0.4-0.4,0.7-0.6,1.1-0.7c2.1-4.7,1.3-6.7,0.7-8.5c-0.2-0.5-0.3-0.9-0.4-1.3c-0.2-0.8-0.3-1.7,0.3-2.1c0.2-0.1,0.3-0.1,0.5-0.1
			c-0.1-0.3-0.3-0.5-0.4-0.8C330.6,238.6,330,239.3,329.1,239.8z"/>
		<path fill="#FFFFFF" d="M330.8,251.8c-0.1,0-0.3,0.1-0.7,0.4c-0.7,0.7-1.3,1.9-1.5,3.1c-0.2,1.2,0.1,2.3,0.7,3
			c0.6,0.6,1.6,0.8,2.2,0.8c1.4,0,2.9-0.6,3.9-1.5c0.3-0.3,0.4-0.5,0.4-0.7c0-0.3-0.6-0.7-1.1-1.1c-0.5-0.4-1.1-0.8-1.6-1.3
			c-0.5-0.5-0.9-1.1-1.3-1.6C331.5,252.4,331.1,251.8,330.8,251.8z"/>
		<path fill="#FFFFFF" d="M332.8,252.3c0.3,0.5,0.7,1,1.2,1.4c0.5,0.5,1,0.8,1.4,1.2c0.1,0.1,0.2,0.1,0.2,0.2
			c0.5-1.8,0.8-3.7,0.8-5.8c0-5.5-1.9-8.5-4.6-9.9l-0.2,0.3c0,0.1,0,0.4,0.1,1c0.1,0.4,0.2,0.8,0.4,1.2c0.7,1.9,1.5,4.2-0.6,9.1
			C332,251.2,332.4,251.7,332.8,252.3z"/>
		<path fill="#FFFFFF" d="M323.5,248.5c-0.3-1-0.6-2-0.8-2.9c-0.9-4,1.9-5.2,4.2-6.1c0.6-0.2,1.2-0.5,1.7-0.7c0.9-0.5,1.4-1.2,1.8-2
			c-0.5-0.8-1.1-1.5-1.8-2.2c-1.8,2-4.4,3.3-7.3,3.3c-2,0-3.9-0.6-5.4-1.6c0.2,0.1,0.5,0.2,0.7,0.2c0,0,0.1,0,0.1,0
			c0.2,0.1,0.4,0.1,0.7,0.1c0.1,0,0.2,0,0.3,0c0.2,0,0.3,0.1,0.5,0.1c0.3,0,0.6,0,0.9,0c0.4,0,0.7,0,1.1-0.1c0.1,0,0.2,0,0.3,0
			c0.3,0,0.5-0.1,0.7-0.1c0.1,0,0.2-0.1,0.3-0.1c0.2-0.1,0.5-0.1,0.7-0.2c0.1,0,0.2-0.1,0.3-0.1c0.3-0.1,0.5-0.2,0.8-0.3
			c0.1,0,0.1-0.1,0.2-0.1c3.1-1.6,5.3-4.9,5.3-8.6c0-5.3-4.3-9.7-9.7-9.7c-5.3,0-9.7,4.3-9.7,9.7c0,2.2,0.7,4.2,2,5.9
			c-1.3,1-2.5,2.3-3.5,3.8c0.4,0.8,0.9,1.5,1.8,1.9c0.5,0.3,1.1,0.5,1.7,0.7c2.3,0.9,5.2,2,4.2,6.1c-0.2,0.9-0.5,1.9-0.8,2.9
			c-1.1,3.7-2.4,8.2-1.5,13.5c1.8,0.3,3.7,0.4,5.8,0.4c2.1,0,4-0.1,5.8-0.4C325.9,256.7,324.5,252.2,323.5,248.5z"/>
		<path fill="#FFFFFF" d="M313.9,248.2c0.3-1,0.6-2,0.8-2.8c0.7-3.1-1.3-3.9-3.6-4.8c-0.6-0.2-1.3-0.5-1.8-0.8
			c-0.9-0.5-1.5-1.1-1.9-1.9c-0.1,0.2-0.3,0.5-0.4,0.7c0.2,0,0.3,0,0.5,0.1c0.6,0.4,0.4,1.3,0.3,2.1c-0.1,0.5-0.3,0.9-0.4,1.3
			c-0.7,1.8-1.4,3.9,0.7,8.5c0.3,0.1,0.7,0.3,1.1,0.7c0.9,0.9,1.6,2.3,1.8,3.7c0.2,1.6-0.1,3-1,3.9c-0.4,0.4-1,0.7-1.6,0.9
			c1.2,0.9,2.6,1.5,4.2,1.8C311.5,256.5,312.8,251.9,313.9,248.2z"/>
		<path fill="#FFFFFF" d="M309.7,255.4c-0.2-1.2-0.7-2.4-1.5-3.1c-0.4-0.4-0.6-0.4-0.7-0.4c-0.3,0-0.7,0.6-1.1,1.1
			c-0.4,0.5-0.8,1.1-1.3,1.6c-0.5,0.5-1.1,0.9-1.6,1.3c-0.5,0.4-1.1,0.8-1.1,1.1c0,0.2,0.1,0.4,0.4,0.7c0.9,0.9,2.5,1.5,3.9,1.5
			c0.7,0,1.6-0.1,2.2-0.8C309.6,257.7,309.9,256.6,309.7,255.4z"/>
		<path fill="#FFFFFF" d="M306.6,240.7c0.1-0.6,0.1-0.9,0.1-1l-0.2-0.3c-2.7,1.5-4.6,4.4-4.6,10c0,2.1,0.3,4.1,0.8,5.8
			c0.1-0.1,0.2-0.1,0.2-0.2c0.5-0.3,1-0.7,1.4-1.2c0.5-0.5,0.8-1,1.2-1.4c0.4-0.6,0.8-1.1,1.2-1.4c-2.1-4.9-1.3-7.2-0.6-9.1
			C306.4,241.5,306.5,241.1,306.6,240.7z"/>
	</g>
</g>
<g>
	<g>
		<path fill="#FFFFFF" d="M391.9,179.6c-0.6,0.3-1.2,0.6-1.8,0.8c-2.3,0.9-4.3,1.7-3.6,4.8c0.2,0.9,0.5,1.8,0.8,2.8
			c1.1,3.7,2.4,8.2,1.6,13.6c1.6-0.4,3-1,4.2-1.8c-0.6-0.2-1.2-0.5-1.6-0.9c-0.9-0.9-1.3-2.3-1-3.9c0.2-1.4,0.9-2.8,1.8-3.7
			c0.4-0.4,0.7-0.6,1.1-0.7c2.1-4.7,1.3-6.7,0.7-8.5c-0.2-0.5-0.3-0.9-0.4-1.3c-0.2-0.8-0.3-1.7,0.3-2.1c0.2-0.1,0.3-0.1,0.5-0.1
			c-0.1-0.3-0.3-0.5-0.4-0.8C393.4,178.5,392.8,179.2,391.9,179.6z"/>
		<path fill="#FFFFFF" d="M393.6,191.7c-0.1,0-0.3,0.1-0.7,0.4c-0.7,0.7-1.3,1.9-1.5,3.1c-0.2,1.2,0.1,2.3,0.7,3
			c0.6,0.6,1.6,0.8,2.2,0.8c1.4,0,2.9-0.6,3.9-1.5c0.3-0.3,0.4-0.5,0.4-0.7c0-0.3-0.6-0.7-1.1-1.1c-0.5-0.4-1.1-0.8-1.6-1.3
			c-0.5-0.5-0.9-1.1-1.3-1.6C394.3,192.3,393.9,191.7,393.6,191.7z"/>
		<path fill="#FFFFFF" d="M395.6,192.2c0.3,0.5,0.7,1,1.2,1.4c0.5,0.5,1,0.8,1.4,1.2c0.1,0.1,0.2,0.1,0.2,0.2
			c0.5-1.8,0.8-3.7,0.8-5.8c0-5.5-1.9-8.5-4.6-9.9l-0.2,0.3c0,0.1,0,0.4,0.1,1c0.1,0.4,0.2,0.8,0.4,1.2c0.7,1.9,1.5,4.2-0.6,9.1
			C394.8,191.1,395.2,191.6,395.6,192.2z"/>
		<path fill="#FFFFFF" d="M386.3,188.4c-0.3-1-0.6-2-0.8-2.9c-0.9-4,1.9-5.2,4.2-6.1c0.6-0.2,1.2-0.5,1.7-0.7c0.9-0.5,1.4-1.2,1.8-2
			c-0.5-0.8-1.1-1.5-1.8-2.2c-1.8,2-4.4,3.3-7.3,3.3c-2,0-3.9-0.6-5.4-1.6c0.2,0.1,0.5,0.2,0.7,0.2c0,0,0.1,0,0.1,0
			c0.2,0.1,0.4,0.1,0.7,0.1c0.1,0,0.2,0,0.3,0c0.2,0,0.3,0.1,0.5,0.1c0.3,0,0.6,0,0.9,0c0.4,0,0.7,0,1.1-0.1c0.1,0,0.2,0,0.3,0
			c0.3,0,0.5-0.1,0.7-0.1c0.1,0,0.2-0.1,0.3-0.1c0.2-0.1,0.5-0.1,0.7-0.2c0.1,0,0.2-0.1,0.3-0.1c0.3-0.1,0.5-0.2,0.8-0.3
			c0.1,0,0.1-0.1,0.2-0.1c3.1-1.6,5.3-4.9,5.3-8.6c0-5.3-4.3-9.7-9.7-9.7s-9.7,4.3-9.7,9.7c0,2.2,0.7,4.2,2,5.9
			c-1.3,1-2.5,2.3-3.5,3.8c0.4,0.8,0.9,1.5,1.8,1.9c0.5,0.3,1.1,0.5,1.7,0.7c2.3,0.9,5.2,2,4.2,6.1c-0.2,0.9-0.5,1.9-0.8,2.9
			c-1.1,3.7-2.4,8.2-1.5,13.5c1.8,0.3,3.7,0.4,5.8,0.4s4-0.1,5.8-0.4C388.7,196.6,387.3,192.1,386.3,188.4z"/>
		<path fill="#FFFFFF" d="M376.7,188.1c0.3-1,0.6-2,0.8-2.8c0.7-3.1-1.3-3.9-3.6-4.8c-0.6-0.2-1.3-0.5-1.8-0.8
			c-0.9-0.5-1.5-1.1-1.9-1.9c-0.1,0.2-0.3,0.5-0.4,0.7c0.2,0,0.3,0,0.5,0.1c0.6,0.4,0.4,1.3,0.3,2.1c-0.1,0.5-0.3,0.9-0.4,1.3
			c-0.7,1.8-1.4,3.9,0.7,8.5c0.3,0.1,0.7,0.3,1.1,0.7c0.9,0.9,1.6,2.3,1.8,3.7c0.2,1.6-0.1,3-1,3.9c-0.4,0.4-1,0.7-1.6,0.9
			c1.2,0.9,2.6,1.5,4.2,1.8C374.3,196.3,375.6,191.8,376.7,188.1z"/>
		<path fill="#FFFFFF" d="M372.5,195.2c-0.2-1.2-0.7-2.4-1.5-3.1c-0.4-0.4-0.6-0.4-0.7-0.4c-0.3,0-0.7,0.6-1.1,1.1
			c-0.4,0.5-0.8,1.1-1.3,1.6c-0.5,0.5-1.1,0.9-1.6,1.3c-0.5,0.4-1.1,0.8-1.1,1.1c0,0.2,0.1,0.4,0.4,0.7c0.9,0.9,2.5,1.5,3.9,1.5
			c0.6,0,1.6-0.1,2.2-0.8C372.4,197.5,372.7,196.5,372.5,195.2z"/>
		<path fill="#FFFFFF" d="M369.4,180.5c0.1-0.6,0.1-0.9,0.1-1l-0.2-0.3c-2.7,1.5-4.6,4.4-4.6,10c0,2.1,0.3,4.1,0.8,5.8
			c0.1-0.1,0.2-0.1,0.2-0.2c0.5-0.3,1-0.7,1.4-1.2c0.5-0.5,0.8-1,1.2-1.4c0.4-0.6,0.8-1.1,1.2-1.4c-2.1-4.9-1.3-7.2-0.6-9.1
			C369.2,181.3,369.3,180.9,369.4,180.5z"/>
	</g>
</g>
<g>
	<g>
		<path fill="#FFFFFF" d="M266.3,120c-0.6,0.3-1.2,0.6-1.8,0.8c-2.3,0.9-4.3,1.7-3.6,4.8c0.2,0.9,0.5,1.8,0.8,2.8
			c1.1,3.7,2.4,8.2,1.6,13.6c1.6-0.4,3-1,4.2-1.8c-0.6-0.2-1.2-0.5-1.6-0.9c-0.9-0.9-1.3-2.3-1-3.9c0.2-1.4,0.9-2.8,1.8-3.7
			c0.4-0.4,0.7-0.6,1.1-0.7c2.1-4.7,1.3-6.7,0.7-8.5c-0.2-0.5-0.3-0.9-0.4-1.3c-0.2-0.8-0.3-1.7,0.3-2.1c0.2-0.1,0.3-0.1,0.5-0.1
			c-0.1-0.3-0.3-0.5-0.4-0.8C267.8,118.9,267.2,119.5,266.3,120z"/>
		<path fill="#FFFFFF" d="M268,132.1c-0.1,0-0.3,0.1-0.7,0.4c-0.7,0.7-1.3,1.9-1.5,3.1c-0.2,1.2,0.1,2.3,0.7,3
			c0.6,0.6,1.6,0.8,2.2,0.8c1.4,0,2.9-0.6,3.9-1.5c0.3-0.3,0.4-0.5,0.4-0.7c0-0.3-0.6-0.7-1.1-1.1c-0.5-0.4-1.1-0.8-1.6-1.3
			c-0.5-0.5-0.9-1.1-1.3-1.6C268.7,132.6,268.3,132.1,268,132.1z"/>
		<path fill="#FFFFFF" d="M270,132.6c0.3,0.5,0.7,1,1.2,1.4c0.5,0.5,1,0.8,1.4,1.2c0.1,0.1,0.2,0.1,0.2,0.2c0.5-1.8,0.8-3.7,0.8-5.8
			c0-5.5-1.9-8.5-4.6-9.9l-0.2,0.3c0,0.1,0,0.4,0.1,1c0.1,0.4,0.2,0.8,0.4,1.2c0.7,1.9,1.5,4.2-0.6,9.1
			C269.2,131.5,269.6,132,270,132.6z"/>
		<path fill="#FFFFFF" d="M260.7,128.8c-0.3-1-0.6-2-0.8-2.9c-0.9-4,1.9-5.2,4.2-6.1c0.6-0.2,1.2-0.5,1.7-0.7c0.9-0.5,1.4-1.2,1.8-2
			c-0.5-0.8-1.1-1.5-1.8-2.2c-1.8,2-4.4,3.3-7.3,3.3c-2,0-3.9-0.6-5.4-1.6c0.2,0.1,0.5,0.2,0.7,0.2c0,0,0.1,0,0.1,0
			c0.2,0.1,0.4,0.1,0.7,0.1c0.1,0,0.2,0,0.3,0c0.2,0,0.3,0.1,0.5,0.1c0.3,0,0.6,0,0.9,0c0.4,0,0.7,0,1.1-0.1c0.1,0,0.2,0,0.3,0
			c0.3,0,0.5-0.1,0.7-0.1c0.1,0,0.2-0.1,0.3-0.1c0.2-0.1,0.5-0.1,0.7-0.2c0.1,0,0.2-0.1,0.3-0.1c0.3-0.1,0.5-0.2,0.8-0.3
			c0.1,0,0.1-0.1,0.2-0.1c3.1-1.6,5.3-4.9,5.3-8.6c0-5.3-4.3-9.7-9.7-9.7c-5.3,0-9.7,4.3-9.7,9.7c0,2.2,0.7,4.2,2,5.9
			c-1.3,1-2.5,2.3-3.5,3.8c0.4,0.8,0.9,1.5,1.8,1.9c0.5,0.3,1.1,0.5,1.7,0.7c2.3,0.9,5.2,2,4.2,6.1c-0.2,0.9-0.5,1.9-0.8,2.9
			c-1.1,3.7-2.4,8.2-1.5,13.5c1.8,0.3,3.7,0.4,5.8,0.4c2.1,0,4-0.1,5.8-0.4C263.1,137,261.7,132.5,260.7,128.8z"/>
		<path fill="#FFFFFF" d="M251.1,128.5c0.3-1,0.6-2,0.8-2.8c0.7-3.1-1.3-3.9-3.6-4.8c-0.6-0.2-1.3-0.5-1.8-0.8
			c-0.9-0.5-1.5-1.1-1.9-1.9c-0.1,0.2-0.3,0.5-0.4,0.7c0.2,0,0.3,0,0.5,0.1c0.6,0.4,0.4,1.3,0.3,2.1c-0.1,0.5-0.3,0.9-0.4,1.3
			c-0.7,1.8-1.4,3.9,0.7,8.5c0.3,0.1,0.7,0.3,1.1,0.7c0.9,0.9,1.6,2.3,1.8,3.7c0.2,1.6-0.1,3-1,3.9c-0.4,0.4-1,0.7-1.6,0.9
			c1.2,0.9,2.6,1.5,4.2,1.8C248.7,136.7,250,132.2,251.1,128.5z"/>
		<path fill="#FFFFFF" d="M246.9,135.6c-0.2-1.2-0.7-2.4-1.5-3.1c-0.4-0.4-0.6-0.4-0.7-0.4c-0.3,0-0.7,0.6-1.1,1.1
			c-0.4,0.5-0.8,1.1-1.3,1.6c-0.5,0.5-1.1,0.9-1.6,1.3c-0.5,0.4-1.1,0.8-1.1,1.1c0,0.2,0.1,0.4,0.4,0.7c0.9,0.9,2.5,1.5,3.9,1.5
			c0.7,0,1.6-0.1,2.2-0.8C246.8,137.9,247.1,136.8,246.9,135.6z"/>
		<path fill="#FFFFFF" d="M243.8,120.9c0.1-0.6,0.1-0.9,0.1-1l-0.2-0.3c-2.7,1.5-4.6,4.4-4.6,10c0,2.1,0.3,4.1,0.8,5.8
			c0.1-0.1,0.2-0.1,0.2-0.2c0.5-0.3,1-0.7,1.4-1.2c0.5-0.5,0.8-1,1.2-1.4c0.4-0.6,0.8-1.1,1.2-1.4c-2.1-4.9-1.3-7.2-0.6-9.1
			C243.6,121.7,243.7,121.3,243.8,120.9z"/>
	</g>
	<path d="M265.8,103.2c-1.7-3.5-5.3-5.9-9.4-5.9c-4.1,0-7.7,2.4-9.4,5.8c0,0,0,0,0,0c-1.4,0-2.5,1.8-2.5,4c0,2.2,1.1,4,2.5,4
		s1.5-1.8,1.5-4c0-1.5-0.1-2.9-0.6-3.5c1.6-3.1,4.8-5.3,8.5-5.3c3.6,0,6.7,2,8.4,5c-0.8,0.5-0.9,2-0.9,3.9c0,2.2,0.1,4,1.5,4
		s2.5-1.8,2.5-4C267.8,105.2,267,103.6,265.8,103.2z"/>
</g>
</svg>
